<svg width="26" height="23" viewBox="0 0 26 23" fill="none" xmlns="http://www.w3.org/2000/svg">
    <path
        d="M4.482 22.984c-1.1 0-2.203.001-3.305-.001-.342-.001-.667-.07-.899-.353-.277-.338-.373-.721-.169-1.12.322-.63.663-1.25 1.011-1.864 1.29-2.278 2.583-4.552 3.876-6.828L9.89 4.2A1397.37 1397.37 0 0 1 11.82.817c.067-.118.144-.231.224-.34.456-.625 1.274-.642 1.722-.013.275.386.507.805.744 1.217.821 1.425 1.637 2.854 2.452 4.283.266.467.508.944.578 1.49a3.208 3.208 0 0 1-.391 2.027c-.757 1.352-1.519 2.702-2.282 4.05-1.362 2.409-2.723 4.817-4.09 7.222-.282.496-.547 1.006-.98 1.395-.596.535-1.286.832-2.092.836-1.074.004-2.148 0-3.223 0Zm16.158 0c-1.368 0-2.735.002-4.102-.001-.382 0-.729-.091-.964-.43-.238-.342-.296-.709-.096-1.077.395-.73.803-1.45 1.218-2.168.883-1.524 1.77-3.045 2.662-4.564.158-.268.328-.535.527-.773.39-.464 1.155-.459 1.521.025.294.39.546.813.794 1.234 1.095 1.864 2.185 3.731 3.271 5.601.15.258.29.526.396.803.206.535-.177 1.206-.743 1.301-.3.05-.609.059-.914.06-1.19.008-2.381.004-3.57.004v-.015Z"
        fill="#fff" />
</svg>