<svg width="434" height="8" viewBox="0 0 434 8" fill="none" xmlns="http://www.w3.org/2000/svg">
    <path
        d="M217.05 7.03235L175.818 7.03235C171.934 7.03235 168.785 3.88386 168.785 1.57356e-05L217.05 1.57356e-05V7.03235Z"
        fill="#FFAE00" />
    <path opacity="0.8"
        d="M154.096 2.83538C154.096 5.1533 152.217 7.03235 149.899 7.03235L124.717 7.03235C122.399 7.03235 120.52 5.1533 120.52 2.83538V1.57356e-05L154.096 1.57356e-05V2.83538Z"
        fill="#FFAE00" />
    <path opacity="0.65"
        d="M107.929 2.83538C107.929 5.1533 106.05 7.03235 103.732 7.03235L84.8452 7.03235C82.5273 7.03235 80.6482 5.1533 80.6482 2.83538V1.57356e-05L107.929 1.57356e-05V2.83538Z"
        fill="#FFAE00" />
    <path opacity="0.45"
        d="M68.0581 2.83538C68.0581 5.1533 66.1791 7.03235 63.8611 7.03235L51.2702 7.03235C48.9523 7.03235 47.0732 5.1533 47.0732 2.83538V1.57356e-05L68.0581 1.57356e-05V2.83538Z"
        fill="#FFAE00" />
    <path opacity="0.28"
        d="M34.4817 2.83538C34.4817 5.1533 32.6026 7.03235 30.2847 7.03235H23.9892C21.6713 7.03235 19.7923 5.1533 19.7923 2.83538V1.57356e-05L34.4817 1.57356e-05V2.83538Z"
        fill="#FFAE00" />
    <path opacity="0.12"
        d="M9.3002 2.83538C9.3002 5.1533 7.42115 7.03235 5.10323 7.03235C2.78531 7.03235 0.906259 5.1533 0.906259 2.83538V1.57356e-05L9.3002 1.57356e-05V2.83538Z"
        fill="#FFAE00" />
    <path d="M216.858 0H265.123C265.123 3.88384 261.975 7.03233 258.091 7.03233H216.858V0Z" fill="#FFAE00" />
    <path opacity="0.8"
        d="M279.813 0H313.389V2.83537C313.389 5.15329 311.51 7.03233 309.192 7.03233H284.01C281.692 7.03233 279.813 5.15329 279.813 2.83537V0Z"
        fill="#FFAE00" />
    <path opacity="0.65"
        d="M325.98 0H353.26V2.83537C353.26 5.15329 351.381 7.03233 349.063 7.03233H330.177C327.859 7.03233 325.98 5.15329 325.98 2.83537V0Z"
        fill="#FFAE00" />
    <path opacity="0.45"
        d="M365.851 0H386.836V2.83537C386.836 5.15329 384.956 7.03233 382.639 7.03233H370.048C367.73 7.03233 365.851 5.15329 365.851 2.83537V0Z"
        fill="#FFAE00" />
    <path opacity="0.28"
        d="M399.427 0H414.116V2.83537C414.116 5.15329 412.237 7.03233 409.919 7.03233H403.624C401.306 7.03233 399.427 5.15329 399.427 2.83537V0Z"
        fill="#FFAE00" />
    <path opacity="0.12"
        d="M424.608 0H433.002V2.83537C433.002 5.15329 431.123 7.03233 428.805 7.03233C426.487 7.03233 424.608 5.15329 424.608 2.83537V0Z"
        fill="#FFAE00" />
</svg>