<svg width="221" height="7" viewBox="0 0 221 7" fill="none" xmlns="http://www.w3.org/2000/svg">
    <path
        d="M175.942 0H216.709C219.079 0 221 1.92188 221 4.29199V7.03296H171.651V4.29199C171.651 1.92187 173.572 0 175.942 0H175.942Z"
        fill="#13BB6B" />
    <g opacity="0.8">
        <path
            d="M126.592 0H152.34C154.71 0 156.631 1.92188 156.631 4.29199V7.03296H122.301V4.29199C122.301 1.92187 124.222 0 126.592 0H126.592Z"
            fill="#13BB6B" />
    </g>
    <g opacity="0.65">
        <path
            d="M85.825 0H105.136C107.506 0 109.427 1.92188 109.427 4.29199V7.03296H81.534V4.29199C81.534 1.92187 83.4551 0 85.825 0H85.825Z"
            fill="#13BB6B" />
    </g>
    <g opacity="0.45">
        <path
            d="M51.495 0H64.3688C66.7389 0 68.6598 1.92188 68.6598 4.29199V7.03296H47.204V4.29199C47.204 1.92187 49.1249 0 51.495 0H51.495Z"
            fill="#13BB6B" />
    </g>
    <g opacity="0.28">
        <path
            d="M23.602 0H30.039C32.4089 0 34.33 1.92188 34.33 4.29199V7.03296H19.311V4.29199C19.311 1.92187 21.2319 0 23.602 0H23.602Z"
            fill="#13BB6B" />
    </g>
    <g opacity="0.12">
        <path d="M4.29102 0C6.66089 0 8.58301 1.92188 8.58301 4.29199V7.03296H0V4.29199C0 1.92187 1.9209 0 4.29102 0Z"
            fill="#13BB6B" />
    </g>
</svg>