<svg width="230" height="7" viewBox="0 0 230 7" fill="none" xmlns="http://www.w3.org/2000/svg">
    <path
        d="M-0.09375 7.03233C-0.09375 3.14849 3.05473 0 6.93858 0H44.0313C47.9151 0 51.0636 3.14849 51.0636 7.03233H-0.09375Z"
        fill="#0986C7" />
    <path opacity="0.8"
        d="M66.6331 7.03233C66.6331 3.14849 69.7815 0 73.6654 0H95.1885C99.0723 0 102.221 3.14849 102.221 7.03233H66.6331Z"
        fill="#0986C7" />
    <path opacity="0.65"
        d="M115.566 7.03233C115.566 3.14849 118.715 0 122.599 0H137.449C141.333 0 144.481 3.14849 144.481 7.03233H115.566Z"
        fill="#0986C7" />
    <path opacity="0.45"
        d="M157.827 7.03233C157.827 3.14849 160.975 0 164.859 0H173.037C176.921 0 180.069 3.14849 180.069 7.03233H157.827Z"
        fill="#0986C7" />
    <path opacity="0.28"
        d="M193.415 7.03233C193.415 3.14849 196.563 0 200.447 0H201.952C205.836 0 208.984 3.14849 208.984 7.03233H193.415Z"
        fill="#0986C7" />
    <rect opacity="0.12" x="220.105" width="8.89693" height="7.03233" fill="#0986C7" />
</svg>