<svg width="18" height="18" viewBox="0 0 18 18" fill="none" xmlns="http://www.w3.org/2000/svg">
    <path
        d="M14.117 1.17437e-06C13.0889 -0.000799144 12.1025 0.407486 11.3743 1.13523C10.6461 1.86298 10.2356 2.85072 10.233 3.88164V8.18543C9.833 8.2125 9.424 8.22955 9 8.22955C8.576 8.22955 8.169 8.2466 7.767 8.27066V3.88164C7.75064 2.85966 7.3343 1.88509 6.60778 1.16817C5.88126 0.451256 4.90281 0.0494565 3.8835 0.0494565C2.86419 0.0494565 1.88574 0.451256 1.15922 1.16817C0.432701 1.88509 0.016355 2.85966 0 3.88164V14.1678C0.016355 15.1898 0.432701 16.1644 1.15922 16.8813C1.88574 17.5982 2.86419 18 3.8835 18C4.90281 18 5.88126 17.5982 6.60778 16.8813C7.3343 16.1644 7.75064 15.1898 7.767 14.1678V9.86403C8.167 9.83695 8.576 9.81991 9 9.81991C9.424 9.81991 9.831 9.80286 10.233 9.77879V14.1678C10.2494 15.1898 10.6657 16.1644 11.3922 16.8813C12.1187 17.5982 13.0972 18 14.1165 18C15.1358 18 16.1143 17.5982 16.8408 16.8813C17.5673 16.1644 17.9836 15.1898 18 14.1678V3.88164C17.9974 2.85089 17.587 1.86331 16.859 1.13559C16.1311 0.407869 15.1449 -0.000533422 14.117 1.17437e-06ZM3.883 1.59036C4.48975 1.59009 5.07182 1.83118 5.50151 2.26074C5.9312 2.69029 6.17341 3.27323 6.175 3.88164V8.43912C5.03878 8.60422 3.92922 8.91879 2.875 9.37469C2.41823 9.57571 1.98825 9.83306 1.595 10.1408V3.88164C1.59659 3.27392 1.83825 2.69159 2.26707 2.26215C2.6959 1.83271 3.27695 1.59115 3.883 1.59036ZM6.175 14.1678C6.175 14.7774 5.93352 15.3619 5.50369 15.793C5.07386 16.224 4.49088 16.4661 3.883 16.4661C3.27512 16.4661 2.69214 16.224 2.26231 15.793C1.83248 15.3619 1.591 14.7774 1.591 14.1678V13.136C1.591 12.2245 2.311 11.3611 3.518 10.8237C4.36847 10.4557 5.26084 10.1941 6.175 10.0445V14.1678ZM14.117 16.4591C13.5103 16.4594 12.9282 16.2183 12.4985 15.7887C12.0688 15.3592 11.8266 14.7762 11.825 14.1678V9.61033C12.9612 9.44524 14.0708 9.13067 15.125 8.67477C15.5818 8.47375 16.0118 8.2164 16.405 7.90867V14.1678C16.4034 14.7755 16.1618 15.3579 15.7329 15.7873C15.3041 16.2167 14.7231 16.4583 14.117 16.4591ZM14.482 7.21978C13.6315 7.58771 12.7392 7.84938 11.825 7.99892V3.88164C11.825 3.27209 12.0665 2.68751 12.4963 2.25649C12.9261 1.82548 13.5091 1.58334 14.117 1.58334C14.7249 1.58334 15.3079 1.82548 15.7377 2.25649C16.1675 2.68751 16.409 3.27209 16.409 3.88164V4.91346C16.409 5.82095 15.689 6.68432 14.482 7.21978Z"
        fill="white" />
</svg>