<svg width="39" height="39" viewBox="0 0 39 39" fill="none" xmlns="http://www.w3.org/2000/svg">
    <path
        d="M4.67996 37.8767L4.23801 37.4348C4.08687 37.5859 4.02345 37.8038 4.06987 38.0125C4.11629 38.2211 4.26612 38.3916 4.46708 38.4644L4.67996 37.8767ZM12.5579 32.0735L11.9333 32.0962L11.9336 32.1026L12.5579 32.0735ZM12.3084 30.5915L12.9059 30.4084L12.9058 30.408L12.3084 30.5915ZM0.779956 32.5727L0.155468 32.5992L0.155901 32.6071L0.779956 32.5727ZM1.12316 34.3199L0.532477 34.5242C0.602862 34.7277 0.773083 34.8807 0.982964 34.929C1.19284 34.9773 1.41281 34.9142 1.5651 34.7619L1.12316 34.3199ZM8.0288 26.1716C7.78472 26.4157 7.78472 26.8114 8.0288 27.0555C8.27288 27.2996 8.66861 27.2996 8.91268 27.0555L8.0288 26.1716ZM27.0867 8.88148C27.3308 8.63741 27.3308 8.24168 27.0867 7.9976C26.8426 7.75352 26.4469 7.75352 26.2028 7.9976L27.0867 8.88148ZM12.1316 25.298C11.8875 25.5421 11.8875 25.9378 12.1316 26.1819C12.3757 26.426 12.7714 26.426 13.0155 26.1819L12.1316 25.298ZM22.7187 16.4787C22.9628 16.2346 22.9628 15.8389 22.7187 15.5948C22.4746 15.3507 22.0789 15.3507 21.8348 15.5948L22.7187 16.4787ZM30.9869 12.7657C31.2308 12.5215 31.2307 12.1258 30.9865 11.8818C30.7423 11.6378 30.3466 11.638 30.1026 11.8822L30.9869 12.7657ZM11.9286 30.0718C11.6846 30.316 11.6848 30.7117 11.929 30.9557C12.1732 31.1996 12.5689 31.1995 12.8129 30.9553L11.9286 30.0718ZM37.8767 4.67996L38.4644 4.46708C38.3916 4.26612 38.2211 4.11629 38.0125 4.06987C37.8038 4.02345 37.5859 4.08687 37.4348 4.23801L37.8767 4.67996ZM32.0735 12.5579L32.1026 11.9336L32.0962 11.9333L32.0735 12.5579ZM30.5915 12.3084L30.408 12.9058L30.4084 12.9059L30.5915 12.3084ZM32.5727 0.779956L32.6071 0.155852L32.5992 0.155518L32.5727 0.779956ZM34.3199 1.12316L34.7619 1.5651C34.9142 1.41281 34.9773 1.19284 34.929 0.982964C34.8807 0.773083 34.7277 0.602862 34.5242 0.532477L34.3199 1.12316ZM32.8379 9.71874L32.396 10.1607C32.6401 10.4048 33.0358 10.4048 33.2799 10.1607L32.8379 9.71874ZM29.2811 6.16194L28.8392 5.72C28.722 5.83721 28.6561 5.99618 28.6561 6.16194C28.6561 6.3277 28.722 6.48667 28.8392 6.60388L29.2811 6.16194ZM9.71874 32.8379L10.1607 33.2799C10.4048 33.0358 10.4048 32.6401 10.1607 32.396L9.71874 32.8379ZM6.16194 29.2811L6.60388 28.8392C6.48667 28.722 6.3277 28.6561 6.16194 28.6561C5.99618 28.6561 5.83721 28.722 5.72 28.8392L6.16194 29.2811ZM16.9883 13.0259L17.4037 12.559C17.1564 12.339 16.7805 12.3499 16.5464 12.584L16.9883 13.0259ZM12.9947 17.0195L12.5528 16.5776C12.3187 16.8117 12.3078 17.1876 12.5278 17.4349L12.9947 17.0195ZM36.2918 31.0122C36.55 31.2413 36.945 31.2178 37.1742 30.9597C37.4033 30.7015 37.3798 30.3065 37.1217 30.0773L36.2918 31.0122ZM24.2049 18.6113C23.9467 18.3822 23.5517 18.4057 23.3225 18.6638C23.0934 18.922 23.1169 19.317 23.375 19.5462L24.2049 18.6113ZM19.2561 15.8797C19.5141 16.1091 19.9091 16.086 20.1385 15.8281C20.3679 15.5702 20.3448 15.1752 20.0869 14.9458L19.2561 15.8797ZM30.0464 37.1531C30.2757 37.4111 30.6707 37.4344 30.9287 37.2051C31.1867 36.9758 31.21 36.5808 30.9807 36.3228L30.0464 37.1531ZM19.5147 23.4216C19.2854 23.1635 18.8904 23.1403 18.6324 23.3696C18.3743 23.5989 18.3511 23.9939 18.5804 24.2519L19.5147 23.4216ZM14.9146 20.1181C15.144 20.376 15.539 20.3991 15.7969 20.1697C16.0548 19.9403 16.0779 19.5453 15.8485 19.2873L14.9146 20.1181ZM15.5965 13.7035C15.8414 13.9467 16.2372 13.9452 16.4803 13.7002C16.7235 13.4552 16.722 13.0595 16.477 12.8163L15.5965 13.7035ZM13.9463 11.1851L14.3866 10.7415C14.1418 10.4985 13.7464 10.4998 13.5032 10.7444L13.9463 11.1851ZM11.1851 13.9619L10.742 13.5212C10.4991 13.7655 10.4996 14.1603 10.7432 14.4039L11.1851 13.9619ZM12.818 16.4787C13.0621 16.7228 13.4578 16.7228 13.7019 16.4787C13.946 16.2346 13.946 15.8389 13.7019 15.5948L12.818 16.4787ZM3.84134 5.20851L3.3994 4.76657L2.95746 5.20851L3.3994 5.65045L3.84134 5.20851ZM5.18711 3.86274L5.62905 3.4208L5.18711 2.97886L4.74517 3.4208L5.18711 3.86274ZM13.2617 11.9373L13.7037 12.3793L14.1456 11.9373L13.7037 11.4954L13.2617 11.9373ZM11.9159 13.2831L11.474 13.7251L11.9159 14.167L12.3579 13.7251L11.9159 13.2831ZM0.774673 3.06847L0.332732 2.62653C0.088654 2.87061 0.088654 3.26633 0.332732 3.51041L0.774673 3.06847ZM2.93671 0.906429L3.37866 0.464487C3.26145 0.347277 3.10247 0.281429 2.93671 0.281429C2.77095 0.281429 2.61198 0.347277 2.49477 0.464487L2.93671 0.906429ZM5.57307 3.54279L6.01501 3.98473C6.25909 3.74065 6.25909 3.34492 6.01501 3.10085L5.57307 3.54279ZM3.41103 5.70483L2.96909 6.14677C3.0863 6.26398 3.24527 6.32983 3.41103 6.32983C3.57679 6.32983 3.73576 6.26398 3.85297 6.14677L3.41103 5.70483ZM37.1019 30.1028C36.8579 29.8587 36.4622 29.8587 36.2181 30.1027C35.9739 30.3468 35.9739 30.7425 36.2179 30.9866L37.1019 30.1028ZM36.8471 30.732L36.4051 31.1738L36.4054 31.1741L36.8471 30.732ZM38.1107 34.2107L37.4882 34.1551L37.4876 34.162L38.1107 34.2107ZM36.8471 36.9407L37.2852 37.3865L37.2875 37.3843L36.8471 36.9407ZM34.1327 38.2043L34.1883 38.8269L34.1919 38.8265L34.1327 38.2043ZM30.6384 36.9407L31.0792 36.4977C31.0736 36.4921 31.0679 36.4866 31.062 36.4812L30.6384 36.9407ZM30.99 36.3962C30.8013 36.1072 30.414 36.0259 30.125 36.2146C29.836 36.4034 29.7547 36.7907 29.9435 37.0797L30.99 36.3962ZM28.3637 30.1165C28.1272 29.8651 27.7316 29.853 27.4802 30.0894C27.2287 30.3259 27.2166 30.7214 27.4531 30.9729L28.3637 30.1165ZM32.5884 35.5211L32.1331 35.9493C32.1623 35.9804 32.1946 36.0083 32.2295 36.0328L32.5884 35.5211ZM35.724 36.0328C36.0066 35.8346 36.0751 35.4449 35.8769 35.1623C35.6787 34.8797 35.2889 34.8112 35.0063 35.0094L35.724 36.0328ZM4.46708 38.4644C5.47378 38.8291 6.55495 38.9397 7.61465 38.7864L7.43568 37.5492C6.57958 37.6731 5.70613 37.5837 4.89283 37.2891L4.46708 38.4644ZM7.61465 38.7864C8.67435 38.6331 9.67979 38.2206 10.5419 37.5856L9.8005 36.5791C9.10404 37.0922 8.29178 37.4254 7.43568 37.5492L7.61465 38.7864ZM10.5419 37.5856C11.4039 36.9505 12.096 36.1125 12.5566 35.1459L11.4281 34.6082C11.056 35.3891 10.497 36.0661 9.8005 36.5791L10.5419 37.5856ZM12.5566 35.1459C13.0172 34.1793 13.2321 33.114 13.1823 32.0445L11.9336 32.1026C11.9739 32.9667 11.8002 33.8273 11.4281 34.6082L12.5566 35.1459ZM13.1825 32.0508C13.1623 31.4937 13.0693 30.9415 12.9059 30.4084L11.7108 30.7747C11.8423 31.2036 11.9171 31.6479 11.9333 32.0962L13.1825 32.0508ZM12.9058 30.408C12.4402 28.8922 11.4383 27.5979 10.0876 26.7673L9.43282 27.8321C10.5247 28.5035 11.3346 29.5497 11.7109 30.775L12.9058 30.408ZM10.0876 26.7673C8.73678 25.9368 7.12965 25.6268 5.56686 25.8953L5.77857 27.1273C7.04184 26.9102 8.34095 27.1608 9.43282 27.8321L10.0876 26.7673ZM5.56686 25.8953C4.00406 26.1639 2.59263 26.9927 1.59664 28.2266L2.5693 29.0117C3.3744 28.0143 4.51531 27.3444 5.77857 27.1273L5.56686 25.8953ZM1.59664 28.2266C0.60065 29.4605 0.0883383 31.0149 0.155518 32.5992L1.4044 32.5463C1.35009 31.2656 1.76421 30.0091 2.5693 29.0117L1.59664 28.2266ZM0.155901 32.6071C0.19187 33.2605 0.318614 33.9057 0.532477 34.5242L1.71384 34.1157C1.53788 33.6068 1.4336 33.076 1.40401 32.5384L0.155901 32.6071ZM8.91268 27.0555L27.0867 8.88148L26.2028 7.9976L8.0288 26.1716L8.91268 27.0555ZM13.0155 26.1819L22.7187 16.4787L21.8348 15.5948L12.1316 25.298L13.0155 26.1819ZM30.1026 11.8822L11.9286 30.0718L12.8129 30.9553L30.9869 12.7657L30.1026 11.8822ZM37.2891 4.89283C37.5837 5.70613 37.6731 6.57958 37.5492 7.43568L38.7864 7.61465C38.9397 6.55495 38.8291 5.47378 38.4644 4.46708L37.2891 4.89283ZM37.5492 7.43568C37.4254 8.29178 37.0922 9.10404 36.5791 9.8005L37.5856 10.5419C38.2206 9.67979 38.6331 8.67435 38.7864 7.61465L37.5492 7.43568ZM36.5791 9.8005C36.0661 10.497 35.3891 11.056 34.6082 11.4281L35.1459 12.5566C36.1125 12.096 36.9505 11.4039 37.5856 10.5419L36.5791 9.8005ZM34.6082 11.4281C33.8273 11.8002 32.9667 11.9739 32.1026 11.9336L32.0445 13.1823C33.114 13.2321 34.1793 13.0172 35.1459 12.5566L34.6082 11.4281ZM32.0962 11.9333C31.6479 11.9171 31.2036 11.8423 30.7747 11.7108L30.4084 12.9059C30.9415 13.0693 31.4937 13.1623 32.0508 13.1825L32.0962 11.9333ZM30.775 11.7109C29.5497 11.3346 28.5035 10.5247 27.8321 9.43282L26.7673 10.0876C27.5979 11.4383 28.8922 12.4402 30.408 12.9058L30.775 11.7109ZM27.8321 9.43282C27.1608 8.34095 26.9102 7.04184 27.1273 5.77857L25.8953 5.56686C25.6268 7.12965 25.9368 8.73678 26.7673 10.0876L27.8321 9.43282ZM27.1273 5.77857C27.3444 4.51531 28.0143 3.3744 29.0117 2.5693L28.2266 1.59664C26.9927 2.59263 26.1639 4.00406 25.8953 5.56686L27.1273 5.77857ZM29.0117 2.5693C30.0091 1.76421 31.2656 1.35009 32.5463 1.4044L32.5992 0.155518C31.0149 0.0883383 29.4605 0.60065 28.2266 1.59664L29.0117 2.5693ZM32.5384 1.40401C33.076 1.4336 33.6068 1.53788 34.1157 1.71384L34.5242 0.532477C33.9057 0.318614 33.2605 0.19187 32.6071 0.155901L32.5384 1.40401ZM37.4348 4.23801L32.396 9.2768L33.2799 10.1607L38.3187 5.1219L37.4348 4.23801ZM33.2799 9.2768L29.7231 5.72L28.8392 6.60388L32.396 10.1607L33.2799 9.2768ZM29.7231 6.60388L34.7619 1.5651L33.878 0.681216L28.8392 5.72L29.7231 6.60388ZM5.1219 38.3187L10.1607 33.2799L9.2768 32.396L4.23801 37.4348L5.1219 38.3187ZM10.1607 32.396L6.60388 28.8392L5.72 29.7231L9.2768 33.2799L10.1607 32.396ZM5.72 28.8392L0.681216 33.878L1.5651 34.7619L6.60388 29.7231L5.72 28.8392ZM16.5464 12.584L12.5528 16.5776L13.4367 17.4615L17.4303 13.4679L16.5464 12.584ZM37.1217 30.0773L24.2049 18.6113L23.375 19.5462L36.2918 31.0122L37.1217 30.0773ZM20.0869 14.9458L17.4037 12.559L16.5729 13.4929L19.2561 15.8797L20.0869 14.9458ZM30.9807 36.3228L19.5147 23.4216L18.5804 24.2519L30.0464 37.1531L30.9807 36.3228ZM15.8485 19.2873L13.4617 16.6041L12.5278 17.4349L14.9146 20.1181L15.8485 19.2873ZM16.477 12.8163L14.3866 10.7415L13.5061 11.6287L15.5965 13.7035L16.477 12.8163ZM13.5032 10.7444L10.742 13.5212L11.6283 14.4026L14.3895 11.6258L13.5032 10.7444ZM10.7432 14.4039L12.818 16.4787L13.7019 15.5948L11.6271 13.52L10.7432 14.4039ZM4.28328 5.65045L5.62905 4.30468L4.74517 3.4208L3.3994 4.76657L4.28328 5.65045ZM4.74517 4.30468L12.8198 12.3793L13.7037 11.4954L5.62905 3.4208L4.74517 4.30468ZM12.8198 11.4954L11.474 12.8412L12.3579 13.7251L13.7037 12.3793L12.8198 11.4954ZM12.3579 12.8412L4.28328 4.76657L3.3994 5.65045L11.474 13.7251L12.3579 12.8412ZM1.21662 3.51041L3.37866 1.34837L2.49477 0.464487L0.332732 2.62653L1.21662 3.51041ZM2.49477 1.34837L5.13113 3.98473L6.01501 3.10085L3.37866 0.464487L2.49477 1.34837ZM5.13113 3.10085L2.96909 5.26289L3.85297 6.14677L6.01501 3.98473L5.13113 3.10085ZM3.85297 5.26289L1.21662 2.62653L0.332732 3.51041L2.96909 6.14677L3.85297 5.26289ZM36.2179 30.9866L36.4051 31.1738L37.2891 30.2901L37.1019 30.1028L36.2179 30.9866ZM36.4054 31.1741C36.7931 31.5614 37.0911 32.0292 37.2782 32.5443L38.453 32.1175C38.2035 31.4304 37.806 30.8065 37.2889 30.2898L36.4054 31.1741ZM37.2782 32.5443C37.4653 33.0594 37.537 33.6093 37.4882 34.1551L38.7332 34.2663C38.7983 33.5382 38.7026 32.8046 38.453 32.1175L37.2782 32.5443ZM37.4876 34.162C37.4187 35.0448 37.0351 35.8734 36.4068 36.4972L37.2875 37.3843C38.1283 36.5495 38.6415 35.4406 38.7338 34.2594L37.4876 34.162ZM36.4091 36.4949C35.7784 37.1146 34.9538 37.4985 34.0736 37.5821L34.1919 38.8265C35.3577 38.7157 36.4499 38.2073 37.2852 37.3865L36.4091 36.4949ZM34.0772 37.5818C33.5286 37.6308 32.976 37.5591 32.4581 37.3718L32.0331 38.5473C32.7225 38.7966 33.4581 38.892 34.1883 38.8269L34.0772 37.5818ZM32.4581 37.3718C31.9402 37.1845 31.4696 36.8862 31.0792 36.4977L30.1975 37.3837C30.7171 37.9009 31.3436 38.298 32.0331 38.5473L32.4581 37.3718ZM31.062 36.4812C31.0346 36.4559 31.0104 36.4273 30.99 36.3962L29.9435 37.0797C30.0203 37.1974 30.1115 37.305 30.2147 37.4002L31.062 36.4812ZM27.4531 30.9729L32.1331 35.9493L33.0437 35.093L28.3637 30.1165L27.4531 30.9729ZM32.2295 36.0328C32.7414 36.3918 33.3514 36.5845 33.9767 36.5845V35.3345C33.6084 35.3345 33.2489 35.221 32.9472 35.0094L32.2295 36.0328ZM33.9767 36.5845C34.602 36.5845 35.2121 36.3918 35.724 36.0328L35.0063 35.0094C34.7046 35.221 34.3451 35.3345 33.9767 35.3345V36.5845Z"
        fill="#FFAE00" />
</svg>