<svg width="46" height="46" viewBox="0 0 46 46" fill="none" xmlns="http://www.w3.org/2000/svg">
    <path d="M6.34486 3.17238H4.75866V6.34477C4.75866 7.21939 4.04701 7.93096 3.17247 7.93096V12.6896H6.34486V3.17238Z"
        fill="#FFAE00" />
    <path d="M3.17238 17.7437C4.13452 17.3242 5.20105 16.9705 6.34477 16.6866V14.2758H3.17238V17.7437Z"
        fill="#FFAE00" />
    <path
        d="M23.2552 19.2383C20.658 18.0839 17.1874 17.4483 13.4828 17.4483C9.77815 17.4483 6.30748 18.0839 3.71037 19.2383C1.35233 20.2862 0 21.6574 0 23C0 24.3426 1.35233 25.7138 3.71037 26.7617C6.30748 27.9161 9.77815 28.5517 13.4828 28.5517C17.1874 28.5517 20.658 27.9161 23.2552 26.7617C25.6132 25.7138 26.9655 24.3426 26.9655 23C26.9655 21.6574 25.6132 20.2862 23.2552 19.2383ZM21.7218 24.823C19.4803 25.6932 16.5543 26.1724 13.4828 26.1724C10.4113 26.1724 7.48524 25.6932 5.24373 24.823C3.28765 24.0637 2.56189 23.2755 2.40251 23C2.5618 22.7246 3.28765 21.9363 5.24373 21.177C7.48524 20.3068 10.4113 19.8276 13.4828 19.8276C16.5543 19.8276 19.4803 20.3068 21.7218 21.177C23.6779 21.9363 24.4036 22.7245 24.563 23C24.4037 23.2754 23.678 24.0637 21.7218 24.823Z"
        fill="#FFAE00" />
    <path d="M7.93105 16.346C8.94772 16.161 10.0107 16.0282 11.1034 15.9491V14.2759H7.93105V16.346Z" fill="#FFAE00" />
    <path
        d="M12.6896 15.8721C12.953 15.8658 13.2173 15.8621 13.4828 15.8621C14.2875 15.8621 15.082 15.8925 15.8621 15.9491V14.2759H12.6897L12.6896 15.8721Z"
        fill="#FFAE00" />
    <path
        d="M23.7931 28.2563V40.7838C25.8172 39.7736 26.9655 38.5127 26.9655 37.2759V26.2608C26.2011 26.9865 25.1721 27.6456 23.8994 28.2112C23.8647 28.2267 23.8281 28.2409 23.7931 28.2563Z"
        fill="#FFAE00" />
    <path d="M12.6896 3.17238H15.862V12.6896H12.6896V3.17238Z" fill="#FFAE00" />
    <path d="M7.93105 3.17238H11.1034V12.6896H7.93105V3.17238Z" fill="#FFAE00" />
    <path
        d="M13.4828 44.4138C9.56099 44.4138 5.86168 43.7296 3.0661 42.4871C1.79499 41.9223 0.766906 41.2642 0.002875 40.5394C0.0624414 41.8527 1.40561 43.1857 3.71037 44.21C6.30748 45.3644 9.77806 46 13.4828 46C17.1875 46 20.658 45.3644 23.2552 44.2099C25.5599 43.1856 26.903 41.8526 26.9626 40.5393C26.1986 41.2641 25.1705 41.9221 23.8994 42.487C21.1038 43.7296 17.4045 44.4138 13.4828 44.4138Z"
        fill="#FFAE00" />
    <path
        d="M4.75866 28.8595V41.4579C5.73014 41.8098 6.79713 42.0967 7.93105 42.3163V29.654C6.81034 29.4502 5.74551 29.1843 4.75866 28.8595Z"
        fill="#FFAE00" />
    <path
        d="M3.17238 40.7838V28.2563C3.13734 28.241 3.10078 28.2267 3.0661 28.2113C1.79337 27.6456 0.764391 26.9866 0 26.2608V37.2759C0 38.5127 1.14829 39.7735 3.17238 40.7838Z"
        fill="#FFAE00" />
    <path
        d="M9.51724 29.8951V42.5741C10.5389 42.7082 11.602 42.79 12.6896 42.8168V30.1279C11.6061 30.1023 10.5444 30.0229 9.51724 29.8951Z"
        fill="#FFAE00" />
    <path
        d="M19.0345 29.654V42.3163C20.1684 42.0967 21.2355 41.8097 22.2069 41.4579V28.8595C21.22 29.1843 20.1551 29.4502 19.0345 29.654Z"
        fill="#FFAE00" />
    <path
        d="M14.2759 30.1279V42.8168C15.3636 42.79 16.4266 42.7082 17.4483 42.5741V29.8951C16.4211 30.0229 15.3594 30.1023 14.2759 30.1279Z"
        fill="#FFAE00" />
    <path d="M31.7241 3.17238H34.8965V12.6896H31.7241V3.17238Z" fill="#FFAE00" />
    <path d="M36.4828 14.2759H39.6551V23.7931H36.4828V14.2759Z" fill="#FFAE00" />
    <path d="M36.4828 3.17238H39.6551V12.6896H36.4828V3.17238Z" fill="#FFAE00" />
    <path d="M44.4138 25.3793H28.5517V26.9655H45.2069C45.6441 26.9655 46 26.6097 46 26.1724V20.6207H44.4138V25.3793Z"
        fill="#FFAE00" />
    <path d="M31.7241 14.2759H34.8965V23.7931H31.7241V14.2759Z" fill="#FFAE00" />
    <path
        d="M45.2069 0H2.37933C1.94206 0 1.58619 0.355781 1.58619 0.793141V6.34486H3.17238V1.58619H44.4137V6.34486H46V0.793141C46 0.355781 45.6442 0 45.2069 0Z"
        fill="#FFAE00" />
    <path d="M17.4483 16.1049C18.5532 16.2426 19.6166 16.4374 20.6207 16.6867V14.2758H17.4483V16.1049Z"
        fill="#FFAE00" />
    <path d="M41.2413 23.7931H42.8275V20.6208C42.8275 19.7461 43.5392 19.0346 44.4137 19.0346V14.2759H41.2413V23.7931Z"
        fill="#FFAE00" />
    <path d="M41.2413 3.17238V12.6896H44.4137V7.93105C43.5391 7.93105 42.8275 7.21939 42.8275 6.34486V3.17238H41.2413Z"
        fill="#FFAE00" />
    <path
        d="M22.2069 17.1405C22.8006 17.3359 23.3666 17.552 23.8993 17.7889C24.4368 18.0277 24.9301 18.2834 25.3792 18.5535V14.2759H22.2069V17.1405Z"
        fill="#FFAE00" />
    <path d="M17.4483 3.17238H20.6207V12.6896H17.4483V3.17238Z" fill="#FFAE00" />
    <path d="M22.2069 3.17238H25.3792V12.6896H22.2069V3.17238Z" fill="#FFAE00" />
    <path d="M26.9655 3.17238H30.1379V12.6896H26.9655V3.17238Z" fill="#FFAE00" />
    <path d="M28.5517 23.7931H30.1379V14.2759H26.9655V19.7393C28.0029 20.7244 28.5517 21.8329 28.5517 23.0001V23.7931Z"
        fill="#FFAE00" />
</svg>