<svg width="41" height="41" viewBox="0 0 41 41" fill="none" xmlns="http://www.w3.org/2000/svg">
    <g clip-path="url(#clip0_27_18514)">
        <path
            d="M20.5 0C16.4455 0 12.482 1.20229 9.11082 3.45486C5.73961 5.70743 3.11208 8.90911 1.56048 12.655C0.0088827 16.4009 -0.397086 20.5227 0.393911 24.4993C1.18491 28.476 3.13733 32.1287 6.0043 34.9957C8.87128 37.8627 12.524 39.8151 16.5007 40.6061C20.4773 41.3971 24.5991 40.9911 28.345 39.4395C32.0909 37.8879 35.2925 35.2604 37.5451 31.8892C39.7977 28.518 41 24.5545 41 20.5C40.9954 15.0645 38.8341 9.85289 34.9906 6.00939C31.1471 2.16589 25.9355 0.00460248 20.5 0ZM34.326 33.8915L31.5451 33.596C31.4664 33.588 31.3869 33.5956 31.311 33.6184C31.2352 33.6411 31.1647 33.6786 31.1033 33.7286C31.042 33.7787 30.9911 33.8403 30.9536 33.91C30.9161 33.9797 30.8927 34.0561 30.8847 34.1348C30.8767 34.2135 30.8843 34.2931 30.9071 34.3689C30.9298 34.4447 30.9673 34.5153 31.0173 34.5766C31.0673 34.6379 31.129 34.6888 31.1987 34.7263C31.2683 34.7638 31.3447 34.7873 31.4235 34.7953L33.1615 34.9864C29.7464 37.998 25.3739 39.7008 20.8215 39.7921L19.0835 37.6022C19.0322 37.5393 18.969 37.4872 18.8975 37.4489C18.8261 37.4105 18.7478 37.3866 18.667 37.3785C18.5863 37.3704 18.5048 37.3784 18.4271 37.4018C18.3495 37.4253 18.2772 37.4638 18.2145 37.5153C18.1507 37.5659 18.0977 37.6288 18.0586 37.7002C18.0196 37.7717 17.9953 37.8503 17.9872 37.9314C17.9791 38.0124 17.9873 38.0943 18.0114 38.1721C18.0356 38.2499 18.0751 38.322 18.1276 38.3843L19.2399 39.766C14.6667 39.4707 10.3506 37.547 7.07375 34.3434L7.36921 31.5712C7.37777 31.4925 7.37075 31.4128 7.34853 31.3368C7.3263 31.2608 7.28932 31.1899 7.23969 31.1281C7.19006 31.0664 7.12875 31.015 7.05927 30.977C6.9898 30.939 6.91352 30.915 6.83478 30.9064C6.75604 30.8979 6.67639 30.9049 6.60037 30.9271C6.52434 30.9493 6.45344 30.9863 6.39171 31.0359C6.32998 31.0856 6.27861 31.1469 6.24057 31.2164C6.20253 31.2858 6.17856 31.3621 6.17 31.4409L5.97882 33.1789C2.97394 29.7432 1.28903 25.3507 1.22532 20.7868L3.40652 19.0488C3.53098 18.9485 3.61051 18.8029 3.62762 18.644C3.64473 18.4851 3.59803 18.3259 3.49778 18.2015C3.39752 18.077 3.25192 17.9975 3.09303 17.9804C2.93413 17.9633 2.77494 18.01 2.65048 18.1102L1.26006 19.2225C1.56364 14.6514 3.48618 10.3381 6.68271 7.05638L9.46354 7.35184H9.52437C9.6742 7.35045 9.81824 7.29382 9.92889 7.1928C10.0395 7.09177 10.109 6.95344 10.124 6.80435C10.1324 6.72554 10.1251 6.64584 10.1025 6.56986C10.0799 6.49389 10.0425 6.42315 9.99237 6.36173C9.94227 6.30032 9.8805 6.24944 9.81061 6.21205C9.74072 6.17466 9.66411 6.15152 9.58521 6.14392L7.84719 5.95274C11.2856 2.9466 15.6812 1.26166 20.248 1.19924L21.986 3.38044C22.0426 3.4505 22.1141 3.50712 22.1952 3.5462C22.2764 3.58527 22.3652 3.60582 22.4553 3.6064C22.5954 3.60833 22.7315 3.55887 22.8376 3.46735C22.9025 3.41749 22.9565 3.3549 22.9962 3.28341C23.036 3.21191 23.0607 3.13302 23.0688 3.05162C23.077 2.97022 23.0684 2.88803 23.0436 2.81008C23.0188 2.73212 22.9783 2.66005 22.9246 2.59834L21.8122 1.21661C26.3833 1.51331 30.698 3.43337 33.9784 6.63057L33.6829 9.41139C33.6745 9.49021 33.6818 9.56991 33.7044 9.64588C33.727 9.72186 33.7644 9.79262 33.8145 9.85404C33.8646 9.91546 33.9264 9.96633 33.9963 10.0037C34.0662 10.0411 34.1428 10.0643 34.2217 10.0718H34.2825C34.4324 10.0705 34.5764 10.0138 34.6871 9.91281C34.7977 9.81178 34.8672 9.67345 34.8821 9.52437L35.0733 7.78634C38.0868 11.2169 39.773 15.6126 39.8268 20.1785L37.6456 21.9165C37.5493 21.9959 37.4797 22.1031 37.4464 22.2235C37.4131 22.3438 37.4176 22.4715 37.4594 22.5892C37.5011 22.7069 37.5781 22.8089 37.6798 22.8813C37.7816 22.9537 37.9031 22.9931 38.028 22.9941C38.1679 22.9944 38.3034 22.9452 38.4103 22.855L39.7921 21.7427C39.4865 26.3296 37.5473 30.6552 34.326 33.9349V33.8915Z"
            fill="#FFAE00" />
        <path
            d="M20.5001 6.99561C17.8291 6.99561 15.2182 7.78765 12.9974 9.27154C10.7766 10.7554 9.04569 12.8645 8.02357 15.3321C7.00145 17.7997 6.73403 20.515 7.2551 23.1347C7.77617 25.7543 9.06234 28.1605 10.951 30.0491C12.8396 31.9378 15.2459 33.2239 17.8655 33.745C20.4851 34.2661 23.2004 33.9987 25.668 32.9765C28.1356 31.9544 30.2447 30.2235 31.7286 28.0027C33.2125 25.7819 34.0045 23.171 34.0045 20.5001C33.9999 16.9199 32.5756 13.4876 30.044 10.956C27.5125 8.42447 24.0802 7.0002 20.5001 6.99561ZM20.5001 32.7966C18.068 32.7966 15.6906 32.0754 13.6685 30.7242C11.6463 29.3731 10.0702 27.4526 9.13954 25.2057C8.20884 22.9588 7.96534 20.4864 8.43981 18.1011C8.91427 15.7158 10.0854 13.5248 11.8051 11.8051C13.5248 10.0854 15.7158 8.91428 18.1011 8.43981C20.4864 7.96535 22.9588 8.20885 25.2057 9.13955C27.4526 10.0702 29.3731 11.6463 30.7242 13.6685C32.0754 15.6906 32.7966 18.068 32.7966 20.5001C32.792 23.7599 31.495 26.8849 29.1899 29.1899C26.8849 31.495 23.7599 32.792 20.5001 32.7966Z"
            fill="#FFAE00" />
        <path
            d="M20.5 9.54175C18.3327 9.54175 16.214 10.1844 14.4119 11.3885C12.6099 12.5926 11.2053 14.3041 10.3759 16.3065C9.5465 18.3088 9.32948 20.5121 9.75231 22.6378C10.1751 24.7635 11.2188 26.7161 12.7513 28.2486C14.2839 29.7812 16.2365 30.8248 18.3622 31.2477C20.4878 31.6705 22.6912 31.4535 24.6935 30.6241C26.6959 29.7947 28.4073 28.3901 29.6114 26.5881C30.8156 24.786 31.4582 22.6673 31.4582 20.5C31.4536 17.5951 30.2976 14.8105 28.2436 12.7564C26.1895 10.7023 23.4049 9.54634 20.5 9.54175ZM28.4688 14.8948L27.4608 16.2418L23.0028 17.05L22.4031 12.5659L23.3764 11.1842C25.4375 11.824 27.2283 13.1289 28.4688 14.8948ZM30.146 19.0574L28.7643 18.6316C28.6251 18.5746 28.469 18.5746 28.3298 18.6316L24.7321 20.3696C24.7104 19.5487 24.4508 18.7517 23.9847 18.0754L27.9127 17.3629C28.0629 17.3358 28.1968 17.2517 28.2863 17.1282L29.1554 15.9811C29.6569 16.9433 29.9918 17.9834 30.146 19.0574ZM20.5 23.5242C19.9019 23.5242 19.3172 23.3468 18.8199 23.0145C18.3225 22.6822 17.9349 22.2099 17.706 21.6573C17.4771 21.1047 17.4172 20.4966 17.5339 19.91C17.6506 19.3234 17.9387 18.7845 18.3616 18.3616C18.7845 17.9386 19.3234 17.6506 19.91 17.5339C20.4966 17.4173 21.1047 17.4771 21.6573 17.706C22.2099 17.9349 22.6822 18.3225 23.0145 18.8198C23.3468 19.3172 23.5241 19.9019 23.5241 20.5C23.5241 21.302 23.2055 22.0712 22.6384 22.6384C22.0713 23.2055 21.3021 23.5242 20.5 23.5242ZM11.8533 16.0072L12.7223 17.1543C12.8137 17.2759 12.9468 17.3595 13.096 17.3889L17.0239 18.1015C16.5569 18.7767 16.2999 19.5749 16.2853 20.3957L12.6876 18.6577C12.5453 18.6011 12.3867 18.6011 12.2444 18.6577L10.8713 19.0835C11.0218 18.0098 11.3539 16.9695 11.8533 16.0072ZM22.1077 10.8887L21.2387 12.0619C21.1529 12.1863 21.1158 12.3378 21.1344 12.4877L21.6732 16.4417C20.8846 16.21 20.0459 16.21 19.2573 16.4417L19.7961 12.4877C19.8146 12.3378 19.7775 12.1863 19.6918 12.0619L18.8228 10.8887C19.8866 10.7034 20.9744 10.7034 22.0381 10.8887H22.1077ZM17.6236 11.1842L18.6056 12.5659L17.9972 17.05L13.5392 16.2418L12.5311 14.8948C13.7735 13.1308 15.5637 11.8263 17.6236 11.1842ZM10.7584 20.3523L12.366 19.8569L16.4504 21.8209L14.3039 25.8097L12.705 26.3484C11.4354 24.663 10.749 22.6101 10.7497 20.5C10.7484 20.4506 10.7513 20.4012 10.7584 20.3523ZM13.5566 27.3044L14.9123 26.8438C14.9854 26.8218 15.0532 26.785 15.1116 26.7357C15.1699 26.6863 15.2174 26.6255 15.2512 26.557L17.1456 23.0809C17.6444 23.7309 18.3204 24.2228 19.0922 24.4974L16.3374 27.3999C16.2347 27.5123 16.1734 27.6564 16.1636 27.8084V29.2509C15.1941 28.7599 14.313 28.1108 13.5566 27.3304V27.3044ZM17.3455 29.7028V28.0083L20.4739 24.7408L23.6024 28.0083V29.7028C21.5568 30.3981 19.3389 30.3981 17.2933 29.7028H17.3455ZM24.8538 29.1988V27.7562C24.8485 27.6032 24.7865 27.4577 24.6799 27.3478L21.9252 24.4627C22.697 24.188 23.373 23.6961 23.8718 23.0462L25.7662 26.5222C25.8369 26.6588 25.9587 26.7619 26.1051 26.809L27.4608 27.2696C26.7071 28.0624 25.8259 28.7233 24.8538 29.2249V29.1988ZM28.3298 26.3224L26.7395 25.7836L24.593 21.7948L28.6687 19.8309L30.2851 20.3262V20.4739C30.2814 22.5969 29.5824 24.6603 28.295 26.3484L28.3298 26.3224Z"
            fill="#FFAE00" />
    </g>
    <defs>
        <clipPath id="clip0_27_18514">
            <rect width="41" height="41" fill="white" />
        </clipPath>
    </defs>
</svg>