<svg width="38" height="39" viewBox="0 0 38 39" fill="none" xmlns="http://www.w3.org/2000/svg">
    <path
        d="M28.5825 3.39658C28.5593 5.03883 28.5049 6.67999 28.5214 8.32189C28.5297 9.22751 28.1928 9.65283 27.257 9.67365C25.2438 9.71725 23.2286 9.80915 21.2156 9.88903C20.5423 9.91558 19.9718 9.79368 19.9586 8.96565C19.9299 7.19891 19.9288 5.43315 19.9122 3.62537C22.8123 3.48669 25.6137 3.35319 28.4152 3.21968L28.5791 3.39646L28.5825 3.39658Z"
        fill="#FFAE00" />
    <path
        d="M21.173 13.2462C21.672 12.5311 22.0957 11.9257 22.6332 11.1549C23.5797 11.1241 24.7807 11.0832 26.0664 11.0401C26.22 13.136 25.2946 14.6517 23.7871 16.0329L31.0908 23.9094C30.0387 24.885 29.0709 25.7824 28.1049 26.6781C26.3867 28.2715 24.6469 29.8415 22.9601 31.4688C22.2713 32.134 21.8087 32.0781 21.1675 31.3974C19.8882 30.0431 18.5678 28.7667 18.5027 26.705C18.4897 26.2985 18.0736 25.8642 17.7575 25.5196C15.5216 23.0796 13.2606 20.6629 11.0176 18.2296C10.0674 17.1977 10.0867 16.934 11.1336 15.96C12.9958 14.2265 14.8631 12.4951 16.7319 10.7688C17.8037 9.7783 17.957 9.78885 18.9789 10.8837C19.6399 11.5893 20.2936 12.3015 21.1745 13.2515L21.173 13.2462Z"
        fill="#FFAE00" />
    <path
        d="M33.5461 38.985L30.9648 36.2012C30.3094 36.8089 29.7244 37.3447 29.1442 37.8894C28.4938 38.5024 27.6607 38.6771 27.1042 38.0374C26.7245 37.5991 26.7945 36.7671 26.6708 36.108C26.594 35.701 26.6597 35.1884 26.4327 34.904C25.7405 34.0315 24.9377 33.245 24.1412 32.3861L32.0467 25.0555L34.8864 28.1179C35.21 27.9772 35.4266 27.8794 35.6444 27.7902C36.4282 27.4687 37.0876 27.6576 37.5486 28.3493C38.0502 29.1063 37.8736 29.7981 37.2203 30.3972C36.6335 30.9347 36.0515 31.4811 35.3979 32.0871L37.9793 34.8709L33.5445 38.9832L33.5461 38.985Z"
        fill="#FFAE00" />
    <path
        d="M3.93458 8.70046C3.04144 8.26665 2.14112 7.83951 1.25365 7.39381C0.986033 7.26005 0.609627 7.12421 0.527178 6.89845C0.446245 6.67793 0.596369 6.25643 0.785173 6.07472C2.77982 4.18527 4.78772 2.31011 6.82362 0.468756C7.4657 -0.110026 7.917 0.182198 8.13735 1.01403C8.39367 1.98188 8.83349 2.89914 9.25872 4.00593C9.74871 3.64125 9.94264 3.41825 10.181 3.33674C10.4876 3.23172 10.8329 3.24034 11.1629 3.20005C11.1976 3.49325 11.3111 3.80648 11.2516 4.08084C11.0502 5.00158 11.7962 5.82416 12.6777 5.65112C12.9477 5.59665 13.2534 5.72828 13.5436 5.77472C13.46 6.13116 13.4931 6.59534 13.2749 6.82095C12.4377 7.69353 11.5223 8.49253 10.6336 9.31666C9.36058 10.4971 8.10567 11.7006 6.79805 12.84C6.51686 13.0842 6.03753 13.1002 5.64899 13.2214C5.62859 12.8717 5.71962 12.4585 5.56651 12.1853C5.25036 11.6283 4.87236 11.0622 4.38384 10.665C4.1095 10.4412 3.56441 10.5448 3.14282 10.5007C3.33191 10.0132 3.51934 9.52387 3.70663 9.03803C3.78206 8.92491 3.85915 8.81358 3.93458 8.70046Z"
        fill="#FFAE00" />
    <path
        d="M14.4119 7.67621L16.0346 9.42615C15.6072 9.82239 15.1817 10.217 14.7544 10.6132C13.3629 11.9035 11.9944 13.2223 10.565 14.468C10.1029 14.87 9.49847 15.2445 8.91792 15.3278C8.54598 15.3805 8.04064 14.9291 7.71224 14.5894C7.59785 14.4696 7.72954 13.9058 7.92 13.7259C10.0228 11.7262 12.1604 9.764 14.4119 7.67621Z"
        fill="#FFAE00" />
</svg>