<svg width="21" height="21" viewBox="0 0 21 21" fill="none" xmlns="http://www.w3.org/2000/svg">
<circle cx="10.5" cy="10.5" r="10" fill="#FF4D4D" stroke="white"/>
<path d="M7.53086 13.9994C7.15451 13.9994 6.77838 14.0002 6.40226 13.9989C6.28534 13.9985 6.1743 13.9752 6.09499 13.8763C6.0004 13.7583 5.96762 13.6252 6.03741 13.4861C6.14739 13.2673 6.26384 13.0518 6.38275 12.8377C6.82268 12.0448 7.26472 11.2533 7.70606 10.4611C8.26313 9.46149 8.81998 8.46158 9.37729 7.46192C9.59654 7.06902 9.81627 6.67662 10.0365 6.28421C10.0593 6.24325 10.0856 6.20401 10.113 6.16575C10.2689 5.94846 10.5483 5.94257 10.7011 6.16134C10.7952 6.29574 10.8744 6.44142 10.9552 6.58489C11.2356 7.08104 11.5145 7.57818 11.7927 8.07555C11.8836 8.2384 11.966 8.40444 11.9901 8.59476C12.022 8.84565 11.9768 9.08061 11.8565 9.29986C11.5977 9.77051 11.3376 10.2399 11.0772 10.7096C10.6121 11.5476 10.1474 12.3859 9.68056 13.223C9.58432 13.3954 9.49361 13.5729 9.34532 13.7086C9.14252 13.8947 8.90634 13.9982 8.63162 13.9992C8.26454 14.0007 7.89758 13.9997 7.53086 13.9997L7.53086 13.9994Z" fill="white"/>
<path d="M12.9996 13.995C12.482 13.995 11.9645 13.9956 11.4471 13.9947C11.3025 13.9945 11.1716 13.9654 11.0825 13.8569C10.9922 13.7475 10.9701 13.63 11.0459 13.512C11.1953 13.2788 11.35 13.0478 11.5071 12.8182C11.841 12.3303 12.1772 11.8436 12.5148 11.3575C12.5746 11.2713 12.6387 11.1861 12.7143 11.1098C12.8619 10.9612 13.1513 10.963 13.29 11.1179C13.4013 11.2424 13.4965 11.378 13.5904 11.5129C14.0051 12.1095 14.4176 12.7072 14.8289 13.3056C14.8854 13.3882 14.9384 13.4739 14.9788 13.5628C15.0564 13.734 14.9116 13.9487 14.6973 13.9792C14.5838 13.9952 14.4667 13.9981 14.3511 13.9988C13.9006 14.0008 13.4501 13.9997 12.9996 13.9997V13.995Z" fill="white"/>
</svg>
