<svg width="23" height="23" viewBox="0 0 23 23" fill="none" xmlns="http://www.w3.org/2000/svg">
    <g clip-path="url(#a)" fill="#00A3FF">
        <path
            d="M11.5 0A11.5 11.5 0 1 0 23 11.5 11.51 11.51 0 0 0 11.5 0Zm7.756 19.012-1.56-.166a.34.34 0 0 0-.358.434.338.338 0 0 0 .29.24l.975.107a10.793 10.793 0 0 1-6.923 2.695l-.975-1.228a.345.345 0 0 0-.487-.049.34.34 0 0 0-.049.488l.624.775a10.755 10.755 0 0 1-6.825-3.042l.166-1.555a.338.338 0 1 0-.673-.073l-.107.974a10.788 10.788 0 0 1-2.667-6.951l1.224-.975a.338.338 0 0 0-.424-.527l-.78.624a10.808 10.808 0 0 1 3.042-6.825l1.56.166h.034a.341.341 0 0 0 .16-.64.336.336 0 0 0-.126-.037l-.975-.108A10.793 10.793 0 0 1 11.36.673l.975 1.223a.342.342 0 0 0 .263.127.322.322 0 0 0 .214-.078.337.337 0 0 0 .05-.487l-.625-.776a10.778 10.778 0 0 1 6.825 3.038l-.166 1.56a.336.336 0 0 0 .303.37h.034a.341.341 0 0 0 .336-.307l.107-.975a10.725 10.725 0 0 1 2.667 6.952l-1.224.975a.341.341 0 0 0 .215.604.332.332 0 0 0 .214-.078l.775-.624c-.171 2.573-1.259 5-3.066 6.84v-.025Z" />
        <path
            d="M11.5 3.924a7.576 7.576 0 1 0 7.576 7.576A7.585 7.585 0 0 0 11.5 3.924Zm0 14.474a6.898 6.898 0 1 1 6.898-6.898 6.908 6.908 0 0 1-6.898 6.898Z" />
        <path
            d="M11.5 5.353a6.147 6.147 0 1 0 6.147 6.147A6.157 6.157 0 0 0 11.5 5.353Zm4.47 3.003-.565.755-2.501.454-.336-2.516.546-.775a5.475 5.475 0 0 1 2.856 2.082Zm.941 2.335-.775-.239a.322.322 0 0 0-.244 0l-2.018.975a2.379 2.379 0 0 0-.42-1.287l2.204-.4a.331.331 0 0 0 .21-.131l.487-.644c.282.54.47 1.123.556 1.726ZM11.5 13.197a1.696 1.696 0 1 1 0-3.393 1.696 1.696 0 0 1 0 3.393ZM6.65 8.98l.487.643a.346.346 0 0 0 .21.132l2.203.4a2.335 2.335 0 0 0-.414 1.287l-2.019-.975a.336.336 0 0 0-.248 0l-.77.239c.084-.603.27-1.186.55-1.726Zm5.752-2.872-.488.659a.347.347 0 0 0-.058.238l.302 2.218a2.403 2.403 0 0 0-1.355 0l.302-2.218a.346.346 0 0 0-.058-.238l-.488-.659a5.255 5.255 0 0 1 1.804 0h.039Zm-2.516.166.551.775-.341 2.516-2.5-.454-.566-.755a5.494 5.494 0 0 1 2.856-2.082Zm-3.85 5.143.901-.278 2.291 1.102-1.204 2.238-.897.302A5.45 5.45 0 0 1 6.03 11.5c0-.029.001-.056.005-.084Zm1.569 3.9.76-.258a.313.313 0 0 0 .19-.161l1.063-1.95c.28.364.66.64 1.092.795L9.165 15.37a.376.376 0 0 0-.098.229v.81a5.494 5.494 0 0 1-1.462-1.078v-.015Zm2.125 1.346v-.951l1.755-1.833 1.755 1.833v.95a5.5 5.5 0 0 1-3.539 0h.03Zm4.212-.283v-.81a.346.346 0 0 0-.097-.229l-1.546-1.618c.433-.154.813-.43 1.093-.795l1.062 1.95c.04.077.108.135.19.161l.76.259a5.491 5.491 0 0 1-1.462 1.097v-.015Zm1.95-1.614L15 14.464l-1.204-2.238 2.286-1.101.907.278v.082a5.45 5.45 0 0 1-1.116 3.296l.02-.015Z" />
    </g>
    <defs>
        <clipPath id="a">
            <path fill="#fff" d="M0 0h23v23H0z" />
        </clipPath>
    </defs>
</svg>