<svg width="56" height="36" viewBox="0 0 56 36" fill="none" xmlns="http://www.w3.org/2000/svg">
    <path
        d="M26.7371 15.2878H24.6449C23.9758 15.2878 23.4291 15.8321 23.4291 16.4984C23.4291 17.1648 23.9758 17.7091 24.6449 17.7091H26.7371C27.4063 17.7091 27.9529 17.1648 27.9529 16.4984C27.9529 15.8321 27.4063 15.2878 26.7371 15.2878Z"
        fill="#FFAE00" />
    <path
        d="M26.7371 25.5735H24.6449C23.9758 25.5735 23.4291 26.1178 23.4291 26.7841C23.4291 27.4505 23.9758 27.9948 24.6449 27.9948H26.7371C27.4063 27.9948 27.9529 27.4505 27.9529 26.7841C27.9529 26.1178 27.4063 25.5735 26.7371 25.5735Z"
        fill="#FFAE00" />
    <path
        d="M0 20.6277V16.1887C0 15.4755 0.584315 14.8936 1.30057 14.8936H10.2255V21.9228H1.30057C0.584315 21.9322 0 21.3504 0 20.6277ZM16.9546 26.9718C14.7398 26.9718 12.8549 25.245 12.6759 23.0209C12.6664 22.9176 12.657 22.805 12.657 22.6924V13.6924C12.6759 11.3462 14.6079 9.44108 16.9546 9.44108H20.9882V26.9718H16.9546ZM33.928 36H25.8607C24.5224 36 23.4292 34.9114 23.4292 33.5787V6.81335H26.7371C27.4063 6.81335 27.9529 6.26903 27.9529 5.60271C27.9529 4.93639 27.4063 4.39208 26.7371 4.39208H23.4292V2.42127C23.4292 1.08863 24.5224 0 25.8607 0H33.928C35.2662 0 36.3595 1.08863 36.3595 2.42127V6.81335H33.0515C32.3824 6.81335 31.8357 7.35767 31.8357 8.02398C31.8357 8.6903 32.3824 9.23462 33.0515 9.23462H36.3595V18.4505H33.0515C32.3824 18.4505 31.8357 18.9948 31.8357 19.6611C31.8357 20.3274 32.3824 20.8717 33.0515 20.8717H36.3595V29.44H33.0515C32.3824 29.44 31.8357 29.9844 31.8357 30.6507C31.8357 31.317 32.3824 31.8613 33.0515 31.8613H36.3595V33.5693C36.3595 34.9114 35.2757 36 33.928 36ZM38.8004 27.2534V9.16893C39.5355 9.37539 40.2141 9.76017 40.7701 10.3045C41.6183 11.1585 42.0895 12.2847 42.0895 13.4765V22.9364C42.0895 24.9917 40.6947 26.7185 38.8004 27.2534ZM56 20.4213C56 21.1345 55.4157 21.7164 54.6994 21.7164H44.521V14.6872H54.6994C55.4157 14.6872 56 15.269 56 15.9823V20.4213Z"
        fill="#FFAE00" />
</svg>