<svg width="37" height="41" viewBox="0 0 37 35" fill="none" xmlns="http://www.w3.org/2000/svg">
    <path
        d="M16.8862 13.6595C16.0698 14.1832 15.2959 14.67 14.536 15.1796C14.3953 15.2946 14.2233 15.3644 14.0425 15.3801C13.8616 15.3958 13.6802 15.3565 13.5219 15.2673C13.327 15.1598 13.214 15.2504 13.0785 15.3692C11.8045 16.5016 10.5362 17.6112 9.24535 18.7152C8.94526 18.9276 8.63307 19.1224 8.31037 19.2984C8.11525 19.3961 7.94296 19.534 7.80476 19.7032C6.78787 21.3592 5.78792 23.0265 4.78516 24.691C4.42077 25.2968 4.07616 25.3902 3.4632 25.0533L2.16385 24.3202C1.6215 24.0116 1.51699 23.6153 1.84183 23.0774C2.86813 21.379 3.89632 19.6881 4.92639 18.0047C4.99097 17.9215 5.03233 17.8227 5.04623 17.7182C5.06013 17.6137 5.04607 17.5075 5.00549 17.4102C4.93627 17.2542 4.88875 17.0895 4.86426 16.9205C4.81632 16.7259 4.82513 16.5215 4.88967 16.3317C5.14052 15.8673 5.45632 15.4412 5.82747 15.0664C7.31608 13.7585 8.84142 12.4932 10.347 11.2108C10.4501 11.0884 10.5304 10.9484 10.5843 10.7975C10.6503 10.6222 10.7346 10.4542 10.8357 10.2965C12.074 8.86939 13.1599 7.31626 14.0756 5.66252C14.5687 4.74063 14.9156 3.74739 15.1038 2.71851C15.1335 2.49726 15.2323 2.29112 15.3863 2.12971C16.5783 1.06534 17.9144 0.269894 19.5329 0.0575861C20.4993 -0.0845917 21.486 0.0376698 22.3887 0.411433C22.6451 0.566999 22.8549 0.788989 22.996 1.05402C23.431 1.71925 23.4197 1.72208 24.1965 1.60036L31.987 0.374634C32.164 0.325147 32.353 0.342136 32.5184 0.422408C32.6838 0.502679 32.8142 0.64071 32.8852 0.810572C33.0914 1.28897 33.3993 1.37673 33.8965 1.27765C34.661 1.13133 35.4335 1.03019 36.2099 0.974758C36.3348 0.963064 36.4606 0.98413 36.5749 1.03589C36.6892 1.08764 36.7881 1.16831 36.8619 1.26996C36.9357 1.37161 36.9819 1.49075 36.9958 1.61568C37.0098 1.74061 36.991 1.86703 36.9415 1.98251C36.8986 2.11415 36.8183 2.23036 36.7104 2.31686C36.6025 2.40336 36.4718 2.45638 36.3342 2.46941L34.4247 2.7355C34.2806 2.75532 34.1422 2.78079 34.001 2.80344L34.4642 4.6491C34.8343 4.60381 35.2439 4.53587 35.6535 4.51323C35.7641 4.5031 35.8756 4.51877 35.9793 4.55903C36.0829 4.59929 36.1759 4.66303 36.2508 4.74528C36.3258 4.82752 36.3807 4.92604 36.4114 5.03311C36.442 5.14018 36.4475 5.2529 36.4274 5.36246C36.4138 5.52182 36.3461 5.6717 36.2356 5.78709C36.1251 5.90248 35.9784 5.97641 35.8201 5.99655C35.3964 6.07015 34.9727 6.10978 34.549 6.19188C34.4918 6.20898 34.4394 6.23909 34.3958 6.27984C34.3522 6.3206 34.3186 6.3709 34.2976 6.42683C34.2461 6.88008 34.0359 7.30035 33.7044 7.61293C33.6366 7.66954 33.6507 7.86486 33.6762 7.98376C34.0595 9.69959 34.0517 11.48 33.6536 13.1924C33.2863 14.8257 32.3062 15.7401 30.7356 16.1166C29.5519 16.4065 28.3409 16.5707 27.1229 16.6063C24.8308 16.7204 22.5348 16.4866 20.3125 15.9128C19.9286 15.8092 19.5513 15.6825 19.1826 15.5334C18.2561 15.1484 17.3664 14.6757 16.8862 13.6595ZM30.2554 14.6304C30.6029 14.5087 30.9503 14.3926 31.2949 14.2624C31.4347 14.2042 31.5604 14.1168 31.6637 14.006C31.7669 13.8952 31.8454 13.7635 31.8938 13.6198C32.7412 11.7006 32.4587 9.75299 32.0491 7.77711L30.8797 7.97243C30.8697 8.00565 30.8631 8.03979 30.8599 8.07434C30.8599 8.1536 30.8882 8.23003 30.9023 8.3093C31.1396 9.6341 31.4079 10.9589 31.1848 12.3148C31.0492 13.1641 30.9164 14.0133 30.2526 14.6389C29.3628 14.6927 28.4731 14.755 27.5833 14.7974C26.0495 14.8654 24.51 14.9361 22.9875 14.6814C21.6345 14.4577 20.3747 14.0529 19.8803 12.5894L18.3013 13.1924C18.6343 13.4728 18.9895 13.7255 19.3634 13.9482C19.8408 14.1783 20.3406 14.3585 20.8549 14.486C23.4567 15.1391 26.1578 15.2966 28.8177 14.9503C29.3022 14.8689 29.7821 14.7621 30.2554 14.6304ZM20.1798 1.52959C18.7674 1.60602 17.6375 2.21747 16.6291 3.09784C16.5535 3.18108 16.5061 3.28608 16.4935 3.3979C16.2675 4.46041 15.8868 5.48384 15.3636 6.43532C14.5162 8.07434 13.3864 9.51238 12.2565 10.9419C12.141 11.0746 12.0821 11.2474 12.0926 11.4231C12.2875 12.3913 12.7141 13.2179 13.6547 13.6595C13.7281 13.6858 13.8061 13.6966 13.8839 13.6913C13.9617 13.6859 14.0375 13.6645 14.1067 13.6283C14.6716 13.2971 15.2139 12.9659 15.728 12.5838C16.3667 12.0953 17.1229 11.7847 17.92 11.6836C19.3323 11.4883 20.0809 10.7041 20.3323 9.41896C20.4001 9.08776 20.417 8.74524 20.4707 8.4112C20.7772 6.58236 21.3085 4.7986 22.0525 3.10067C22.103 2.95005 22.1213 2.79046 22.1062 2.63228C22.0911 2.4741 22.043 2.32088 21.9649 2.18258C21.8869 2.04427 21.7806 1.92398 21.6531 1.82952C21.5256 1.73507 21.3797 1.66856 21.2249 1.63433C20.8662 1.5862 20.5159 1.56639 20.1798 1.52959ZM22.1316 7.82806C22.1909 7.8319 22.2503 7.8319 22.3096 7.82806L31.8938 6.26831C32.8514 6.10978 32.8259 6.10695 32.8344 5.11901C32.8649 4.07228 32.5686 3.04212 31.987 2.17218C31.8909 2.02498 31.7977 1.87494 31.5774 2.04479C31.7243 2.29956 31.8599 2.55716 32.0152 2.80627C32.3588 3.41039 32.5426 4.09249 32.5491 4.78781C32.56 4.88638 32.5508 4.98615 32.5221 5.08106C32.4935 5.17598 32.4459 5.26408 32.3822 5.34003C32.3186 5.41598 32.2402 5.4782 32.1519 5.52292C32.0636 5.56765 31.9671 5.59396 31.8683 5.60024C31.7668 5.61487 31.6633 5.60742 31.5649 5.5784C31.4665 5.54938 31.3755 5.49947 31.298 5.43207C31.2206 5.36466 31.1585 5.28133 31.1161 5.18775C31.0736 5.09416 31.0518 4.99252 31.052 4.88972C30.9785 3.99256 30.6224 3.14203 30.0351 2.46091C29.8911 2.27974 29.7526 2.20614 29.5464 2.37882C29.7074 2.62793 29.8628 2.87421 30.0238 3.11765C30.3744 3.67547 30.5865 4.30932 30.6424 4.96615C30.6645 5.06602 30.666 5.16936 30.6467 5.26981C30.6275 5.37027 30.5879 5.46572 30.5305 5.5503C30.4731 5.63487 30.3991 5.70679 30.3129 5.76163C30.2267 5.81646 30.1303 5.85306 30.0295 5.86917C29.9233 5.89151 29.8134 5.8898 29.7079 5.86416C29.6025 5.83851 29.504 5.78959 29.4199 5.72095C29.3357 5.65232 29.2679 5.56571 29.2213 5.46744C29.1748 5.36918 29.1508 5.26174 29.151 5.15298C29.0324 4.19335 28.4928 3.45452 27.9109 2.75248C27.8893 2.70964 27.857 2.67303 27.8173 2.64611C27.7776 2.61919 27.7318 2.60283 27.684 2.59858C27.6363 2.59433 27.5882 2.60234 27.5444 2.62183C27.5006 2.64133 27.4625 2.67168 27.4336 2.71002C27.6595 3.03273 27.8884 3.34129 28.0946 3.66116C28.4511 4.2136 28.662 4.84765 28.7075 5.504C28.7169 5.59738 28.7076 5.6917 28.6804 5.7815C28.6532 5.87129 28.6084 5.95479 28.5488 6.02717C28.4892 6.09956 28.4159 6.15938 28.333 6.2032C28.2502 6.24701 28.1596 6.27395 28.0663 6.28246C27.9707 6.30108 27.8723 6.30001 27.7772 6.2793C27.682 6.25859 27.592 6.21868 27.5127 6.16201C27.4335 6.10533 27.3665 6.03307 27.316 5.94963C27.2655 5.8662 27.2324 5.77332 27.2189 5.67668C27.0805 4.60098 26.4393 3.82252 25.7331 3.07802C25.6854 3.03631 25.6298 3.00476 25.5696 2.98529C25.5094 2.96583 25.4458 2.95885 25.3828 2.96479C24.88 3.0299 24.3829 3.13464 23.8773 3.19692C23.7959 3.19974 23.7175 3.22881 23.6539 3.27981C23.5903 3.33081 23.5448 3.40101 23.5242 3.47999C23.2643 4.17919 22.9592 4.86424 22.7333 5.57194C22.5073 6.27963 22.335 7.05526 22.1316 7.82806ZM27.781 13.3084C27.7077 13.0679 27.6688 12.8182 27.6652 12.5668C27.7089 12.3779 27.6868 12.1796 27.6025 12.005C27.5183 11.8305 27.3769 11.6901 27.2019 11.6071C26.9629 11.4769 26.7099 11.3744 26.4478 11.3014C25.4149 11.0574 24.3504 10.9762 23.2926 11.0608C22.6542 11.0948 22.0186 11.1599 21.3972 11.2108C21.095 12.4734 21.6797 12.7989 22.6259 13.048C23.1932 13.1946 23.7748 13.2781 24.3603 13.2971C25.5015 13.3339 26.6483 13.3084 27.7725 13.3084H27.781ZM10.8611 12.7904C10.8131 12.8244 10.7594 12.8612 10.7086 12.9036C9.41861 13.9925 8.13242 15.0824 6.85001 16.1732C6.72065 16.2977 6.60682 16.4374 6.51104 16.5893C6.47443 16.6292 6.44772 16.6772 6.43306 16.7294C6.4184 16.7816 6.4162 16.8365 6.42665 16.8897C6.4371 16.9429 6.45991 16.9929 6.49321 17.0356C6.52652 17.0784 6.5694 17.1126 6.61838 17.1357C6.90085 17.3281 7.18332 17.498 7.46579 17.7018C7.51231 17.7468 7.56769 17.7817 7.62839 17.8041C7.68908 17.8265 7.75376 17.8361 7.81833 17.8321C7.88289 17.8281 7.94592 17.8106 8.0034 17.7809C8.06088 17.7512 8.11155 17.7098 8.15219 17.6593C8.67476 17.1951 9.20298 16.7337 9.72838 16.2723L11.8836 14.37L10.8611 12.7904ZM21.8322 9.61711H22.1344C22.9112 9.59164 23.688 9.54068 24.4676 9.54068C25.5417 9.50806 26.6106 9.70091 27.6059 10.1068C28.2207 10.3437 28.7179 10.8135 28.99 11.4147C29.1237 11.6888 29.1932 11.9899 29.1932 12.295C29.1932 12.6002 29.1237 12.9013 28.99 13.1754C29.4363 13.1754 29.4137 13.1754 29.5351 12.7989C30.0323 11.259 29.6142 9.76431 29.3657 8.26966C28.6454 8.2272 21.965 9.40198 21.8237 9.61711H21.8322ZM6.38393 18.7662L6.24835 18.7803L4.50269 21.6564L4.75409 21.8347C5.31903 20.9006 5.88397 19.9862 6.41784 19.0606C6.44891 18.9926 6.39241 18.8539 6.37546 18.7662H6.38393ZM3.51121 23.2954C3.79368 23.5587 3.85018 23.3322 3.94057 23.1482L3.70612 22.984L3.51121 23.2954Z"
        fill="#FFAE00" />
    <path
        d="M5.1713e-05 31.7623C0.0154591 30.7228 0.408085 29.7246 1.10452 28.9541C1.60904 28.3894 2.00973 27.7396 2.28805 27.0349C2.33072 26.8735 2.42768 26.7319 2.56252 26.6339C2.69736 26.5359 2.86184 26.4875 3.02813 26.497C3.1956 26.4962 3.35853 26.5514 3.49108 26.654C3.62362 26.7566 3.71817 26.9006 3.75972 27.0632C4.04112 27.754 4.43962 28.3909 4.93761 28.9456C5.86412 30.0128 6.30196 31.2357 5.9404 32.6455C5.54776 34.1854 4.16083 35.0346 2.47732 34.8167C1.02542 34.6129 -0.00842237 33.356 5.1713e-05 31.7623ZM3.0592 28.9315C2.70894 29.3674 2.37844 29.7552 2.07902 30.1629C1.66509 30.6667 1.45715 31.309 1.49714 31.9604C1.52833 32.3011 1.67522 32.6207 1.91324 32.866C2.15126 33.1112 2.46602 33.2672 2.80497 33.3079C3.15389 33.3677 3.51264 33.2993 3.81522 33.1152C4.1178 32.9311 4.34385 32.6436 4.45178 32.3058C4.55199 32.0155 4.5835 31.7058 4.54379 31.4012C4.50408 31.0966 4.39425 30.8054 4.22298 30.5507C3.87836 30.0043 3.46313 29.4976 3.0592 28.94V28.9315Z"
        fill="#FFAE00" />
</svg>