<svg width="30" height="39" viewBox="0 0 30 39" fill="none" xmlns="http://www.w3.org/2000/svg">
    <g clip-path="url(#clip0_27_18489)">
        <path
            d="M16.2156 4.73681H15.2912L15.0001 3.26722C15.0001 3.20489 14.9662 3.08352 14.9357 2.89982C14.9052 2.71612 14.8883 2.57179 14.8748 2.43729C14.8748 2.5357 14.8477 2.66364 14.824 2.81125C14.8003 2.95887 14.7766 3.09992 14.7529 3.22458C14.7292 3.34923 14.6614 3.85768 14.4786 4.73681H13.5508L12.833 1.3515H13.5881L13.903 3.054C13.9741 3.43124 14.0249 3.72975 14.052 3.95281C14.052 3.79536 14.0994 3.58213 14.1434 3.29674C14.1874 3.01135 14.228 2.80141 14.2653 2.62427L14.5226 1.33838H15.2506L15.4978 2.62427C15.5384 2.82765 15.5824 3.06712 15.6265 3.33611C15.6705 3.6051 15.6976 3.80848 15.7145 3.93969C15.7145 3.76911 15.7788 3.4706 15.8533 3.04744L16.1919 1.33838H16.9301L16.2156 4.73681Z"
            fill="#FFAE00" />
        <path
            d="M26.1941 21.0499L19.2427 18.6979C20.4932 17.6154 21.4373 16.2412 21.9853 14.7057L23.0181 14.44C23.5038 14.3125 23.9328 14.0337 24.2388 13.6466C24.5448 13.2595 24.7107 12.7855 24.7111 12.2979V11.6976C24.7102 11.2241 24.5153 10.7702 24.1694 10.4356C23.8234 10.101 23.3545 9.91313 22.8657 9.91313H22.5609V4.90733C22.5609 3.60233 22.0258 2.35078 21.0733 1.428C20.1208 0.505226 18.829 -0.0131836 17.4819 -0.0131836H12.4944C11.1473 -0.0131836 9.85545 0.505226 8.90296 1.428C7.95046 2.35078 7.41535 3.60233 7.41535 4.90733V9.91313H7.11061C6.62177 9.91313 6.15291 10.101 5.80693 10.4356C5.46095 10.7702 5.26613 11.2241 5.26524 11.6976V12.2979C5.2668 12.7462 5.40876 13.1835 5.67237 13.5519C5.93597 13.9203 6.30879 14.2026 6.74154 14.3613V16.254L8.74605 16.2901C9.27463 17.1911 9.94913 18.0041 10.7438 18.6979L3.80587 21.0499C2.69476 21.4254 1.73161 22.1262 1.04975 23.0554C0.367888 23.9845 0.00104576 25.0961 0 26.2361V38.4226C0 38.5748 0.0624288 38.7209 0.173554 38.8285C0.284678 38.9362 0.435397 38.9967 0.592551 38.9967C0.749705 38.9967 0.900422 38.9362 1.01155 38.8285C1.12267 38.7209 1.1851 38.5748 1.1851 38.4226V26.2361C1.18314 25.3324 1.47201 24.4505 2.01152 23.7132C2.55103 22.976 3.31435 22.42 4.19526 22.1226L5.27878 21.7552V38.4128C5.27878 38.565 5.34121 38.711 5.45233 38.8187C5.56346 38.9263 5.71418 38.9868 5.87133 38.9868C6.02849 38.9868 6.1792 38.9263 6.29033 38.8187C6.40145 38.711 6.46388 38.565 6.46388 38.4128V30.1299H23.5361V38.4226C23.5361 38.5748 23.5985 38.7209 23.7097 38.8285C23.8208 38.9362 23.9715 38.9967 24.1287 38.9967C24.2858 38.9967 24.4365 38.9362 24.5477 38.8285C24.6588 38.7209 24.7212 38.5748 24.7212 38.4226V21.765L25.8047 22.1226C26.684 22.4194 27.4462 22.9739 27.9855 23.7092C28.5249 24.4445 28.8148 25.3242 28.8149 26.2263V38.4128C28.8149 38.565 28.8773 38.711 28.9885 38.8187C29.0996 38.9263 29.2503 38.9868 29.4075 38.9868C29.5646 38.9868 29.7153 38.9263 29.8264 38.8187C29.9376 38.711 30 38.565 30 38.4128V26.2361C29.999 25.0961 29.6321 23.9845 28.9503 23.0554C28.2684 22.1262 27.3052 21.4254 26.1941 21.0499ZM22.5711 11.1465V11.0613H22.8758C23.049 11.0654 23.214 11.1336 23.3368 11.252C23.4597 11.3704 23.531 11.5299 23.5361 11.6976V12.2979C23.5359 12.5332 23.4555 12.7617 23.3073 12.948C23.1591 13.1343 22.9514 13.2679 22.7167 13.328L22.3409 13.4231C22.496 12.6736 22.5732 11.9109 22.5711 11.1465ZM8.614 4.91389C8.61355 4.41979 8.71357 3.93043 8.90833 3.47378C9.1031 3.01712 9.3888 2.60209 9.74912 2.2524C10.1094 1.90271 10.5373 1.6252 11.0084 1.43572C11.4794 1.24624 11.9843 1.14849 12.4944 1.14806H17.5056C18.5345 1.14893 19.521 1.54527 20.2485 2.25008C20.976 2.9549 21.3851 3.91058 21.386 4.90733V6.30804C19.3936 5.37958 17.211 4.89747 15 4.89747C12.789 4.89747 10.6064 5.37958 8.614 6.30804V4.91389ZM20.9865 7.40695L20.9492 7.43976C20.2858 8.06849 19.3953 8.42158 18.4673 8.42386H11.5327C10.6047 8.42158 9.71419 8.06849 9.05079 7.43976L9.01354 7.40695C10.8751 6.51581 12.9236 6.05225 15 6.05225C17.0764 6.05225 19.1249 6.51581 20.9865 7.40695ZM6.46388 11.6976C6.46917 11.5271 6.54284 11.3652 6.66927 11.2464C6.7957 11.1276 6.96494 11.0612 7.14108 11.0613H7.44582V11.1465C7.44375 11.9109 7.52088 12.6736 7.67607 13.4231L7.30023 13.328C7.06549 13.2679 6.85785 13.1343 6.70964 12.948C6.56143 12.7617 6.48098 12.5332 6.48081 12.2979L6.46388 11.6976ZM7.77088 15.2863V14.6303L8.01467 14.6959C8.08916 14.8993 8.16704 15.0961 8.25169 15.2863H7.77088ZM10.1716 16.3164L11.4921 16.3393C11.6268 16.3393 11.756 16.2875 11.8512 16.1952C11.9465 16.1029 12 15.9778 12 15.8473C12 15.7168 11.9465 15.5916 11.8512 15.4993C11.756 15.4071 11.6268 15.3552 11.4921 15.3552L9.58239 15.3191C8.93192 14.0197 8.60489 12.5906 8.62754 11.1465V8.58132C9.45966 9.21601 10.4872 9.56246 11.5463 9.56542H18.4673C19.5263 9.56246 20.5539 9.21601 21.386 8.58132V11.1465C21.386 15.0009 19.3815 17.2414 17.6986 18.442C16.9186 19.0044 15.9723 19.3081 15 19.3081C14.0277 19.3081 13.0814 19.0044 12.3014 18.442C11.4736 17.854 10.7537 17.1354 10.1716 16.3164ZM19.1309 19.8788L18.1151 25.0618L15.7449 23.1985L17.4074 19.9379C17.6605 19.8222 17.9049 19.6896 18.1388 19.5409L19.1309 19.8788ZM12.5959 19.9379L14.2585 23.1985L11.8883 25.0618L10.8725 19.8788L11.8679 19.5508C12.1011 19.696 12.3443 19.8253 12.5959 19.9379ZM7.88939 28.9818H6.46727V21.3648L7.88939 20.8859V28.9818ZM14.4108 28.9818H9.07111V20.4824L9.74831 20.2561L10.9165 26.223C10.9367 26.32 10.9821 26.4104 11.0485 26.4856C11.1148 26.5608 11.1999 26.6183 11.2957 26.6527C11.3608 26.6758 11.4295 26.688 11.4989 26.6888C11.636 26.6883 11.7688 26.6419 11.8747 26.5576L14.4074 24.5599L14.4108 28.9818ZM14.1535 20.3938C14.7146 20.4769 15.2854 20.4769 15.8465 20.3938L15 22.057L14.1535 20.3938ZM20.9255 28.9818H15.5926V24.5599L18.1253 26.5576C18.2313 26.6419 18.364 26.6883 18.5011 26.6888C18.5705 26.688 18.6392 26.6758 18.7043 26.6527C18.8001 26.6183 18.8852 26.5608 18.9515 26.4856C19.0179 26.4104 19.0633 26.32 19.0835 26.223L20.2619 20.2593L20.9391 20.4857L20.9255 28.9818ZM23.5327 28.9818H22.1106V20.8859L23.5327 21.3648V28.9818Z"
            fill="#FFAE00" />
        <path
            d="M12.772 15.8473C12.772 15.9995 12.8344 16.1455 12.9455 16.2532C13.0567 16.3608 13.2074 16.4213 13.3645 16.4213H16.6354C16.7926 16.4213 16.9433 16.3608 17.0544 16.2532C17.1655 16.1455 17.228 15.9995 17.228 15.8473C17.228 15.695 17.1655 15.549 17.0544 15.4413C16.9433 15.3337 16.7926 15.2732 16.6354 15.2732H13.3645C13.2074 15.2732 13.0567 15.3337 12.9455 15.4413C12.8344 15.549 12.772 15.695 12.772 15.8473Z"
            fill="#FFAE00" />
        <path
            d="M17.6073 12.2159C17.7842 12.2159 17.9572 12.165 18.1043 12.0697C18.2513 11.9744 18.3659 11.839 18.4335 11.6805C18.501 11.5221 18.5185 11.3478 18.4838 11.1797C18.449 11.0117 18.3635 10.8574 18.2382 10.7364C18.1128 10.6154 17.9532 10.5332 17.7796 10.5001C17.606 10.4671 17.4261 10.4847 17.2629 10.5508C17.0996 10.6168 16.9602 10.7283 16.8624 10.8712C16.7646 11.014 16.7127 11.1818 16.7134 11.3532C16.7143 11.5823 16.8089 11.8017 16.9764 11.9634C17.1439 12.1251 17.3708 12.2159 17.6073 12.2159Z"
            fill="#FFAE00" />
        <path
            d="M13.2866 11.3532C13.2873 11.1818 13.2354 11.014 13.1376 10.8712C13.0398 10.7283 12.9004 10.6168 12.7371 10.5508C12.5738 10.4847 12.394 10.4671 12.2204 10.5001C12.0467 10.5332 11.8872 10.6154 11.7618 10.7364C11.6364 10.8574 11.551 11.0117 11.5162 11.1797C11.4814 11.3478 11.4989 11.5221 11.5665 11.6805C11.6341 11.839 11.7486 11.9744 11.8957 12.0697C12.0428 12.165 12.2157 12.2159 12.3927 12.2159C12.6292 12.2159 12.856 12.1251 13.0236 11.9634C13.1911 11.8017 13.2857 11.5823 13.2866 11.3532Z"
            fill="#FFAE00" />
    </g>
    <defs>
        <clipPath id="clip0_27_18489">
            <rect width="30" height="39" fill="white" />
        </clipPath>
    </defs>
</svg>