<svg width="48" height="48" viewBox="0 0 48 48" fill="none" xmlns="http://www.w3.org/2000/svg">
    <g clip-path="url(#a)">
        <path
            d="M30.496 17.035h-12.32c-.582 0-.975.48-.741.909l6.79 12.371 7.224-13.278h-.955l.002-.002Zm-3.125 2.827-2.52 4.605-.654 1.193-3.16-5.781c-.234-.429.159-.907.742-.907h6.078l-.486.89Z"
            fill="url(#b)" opacity=".48" />
        <path opacity=".5"
            d="M7.777 23.907c0-.564.03-1.124.086-1.674a2.567 2.567 0 0 0-.288-1.477l-.362-.673a.147.147 0 0 0-.272.036 17.281 17.281 0 0 0-.42 3.788c0 7.407 4.658 13.746 11.2 16.245.126.048.243-.088.18-.207l-.366-.68a2.572 2.572 0 0 0-1.076-1.058c-5.155-2.695-8.682-8.092-8.682-14.302v.002Z"
            fill="url(#c)" />
        <path opacity=".5"
            d="M40.044 23.907c0 6.272-3.6 11.715-8.839 14.384a2.59 2.59 0 0 0-1.116 1.09l-.328.625c-.063.117.054.25.178.205 6.623-2.457 11.358-8.836 11.358-16.304 0-1.469-.186-2.894-.533-4.258a.145.145 0 0 0-.27-.032l-.325.621a2.57 2.57 0 0 0-.267 1.54c.093.696.144 1.406.144 2.127l-.002.002Z"
            fill="url(#d)" />
        <path opacity=".5"
            d="M15.634 8.936h1.78c.305 0 .61-.048.896-.154a16.014 16.014 0 0 1 5.6-1.007c1.968 0 3.855.357 5.6 1.007.286.106.59.154.896.154h1.78c.151 0 .203-.2.07-.273A17.274 17.274 0 0 0 23.91 6.52c-3.023 0-5.867.78-8.345 2.142a.145.145 0 0 0 .069.273Z"
            fill="url(#e)" />
        <path
            d="M41.897 16.958a2.537 2.537 0 0 0-.182 1.874c.462 1.613.708 3.316.708 5.075 0 8.147-5.29 15.081-12.616 17.549a2.554 2.554 0 0 0-1.454 1.22l-.147.276c-.058.11.04.238.161.211 8.76-2.027 15.31-9.891 15.31-19.258 0-2.547-.485-4.981-1.367-7.219a.146.146 0 0 0-.265-.012l-.148.282v.002Z"
            fill="url(#f)" />
        <path
            d="M5.397 23.907c0-1.617.21-3.186.6-4.682a2.515 2.515 0 0 0-.228-1.827l-.159-.294c-.058-.11-.223-.1-.265.017a19.693 19.693 0 0 0-1.201 6.784c0 9.327 6.496 17.166 15.2 19.233a.146.146 0 0 0 .162-.211l-.16-.297c-.308-.574-.83-1-1.447-1.214-7.266-2.5-12.502-9.406-12.502-17.511v.002Z"
            fill="url(#g)" />
        <path
            d="M23.91 5.395a18.41 18.41 0 0 1 10.256 3.107c.422.282.915.434 1.42.434h.817c.136 0 .199-.17.094-.257a19.673 19.673 0 0 0-12.589-4.538c-4.78 0-9.167 1.705-12.59 4.538-.104.086-.04.257.095.257h.817c.506 0 1-.152 1.42-.434a18.406 18.406 0 0 1 10.256-3.107h.004Z"
            fill="url(#h)" />
        <path opacity=".5"
            d="M23.996 45.064c-11.616 0-21.064-9.448-21.064-21.063 0-11.615 9.448-21.065 21.064-21.065 11.615 0 21.064 9.448 21.064 21.063 0 11.615-9.449 21.063-21.064 21.063v.002Zm0-41.917C12.497 3.145 3.14 12.5 3.14 24s9.356 20.854 20.855 20.854c11.498 0 20.855-9.356 20.855-20.854S35.496 3.145 23.996 3.145v.002Z"
            fill="url(#i)" />
        <path opacity=".5"
            d="M23.996 45.89c-12.071 0-21.89-9.82-21.89-21.889 0-12.068 9.819-21.89 21.89-21.89s21.89 9.82 21.89 21.888c0 12.068-9.821 21.889-21.89 21.889v.002Zm0-43.57c-11.954 0-21.68 9.724-21.68 21.68s9.726 21.68 21.68 21.68c11.954 0 21.68-9.726 21.68-21.68 0-11.954-9.724-21.682-21.68-21.682Z"
            fill="url(#j)" />
        <path opacity=".5"
            d="M23.996 46.738c-12.54 0-22.74-10.2-22.74-22.74 0-12.538 10.2-22.736 22.74-22.736 12.539 0 22.74 10.2 22.74 22.739 0 12.539-10.201 22.74-22.74 22.74v-.003Zm0-45.27c-12.422.003-22.531 10.11-22.531 22.533 0 12.424 10.107 22.53 22.53 22.53 12.425 0 22.532-10.106 22.532-22.53 0-12.424-10.107-22.53-22.531-22.53v-.002Z"
            fill="url(#k)" />
        <path opacity=".5"
            d="M23.693 48a.21.21 0 0 1-.207-.211.21.21 0 0 1 .213-.207.208.208 0 0 1 .205.213.207.207 0 0 1-.209.205h-.002Zm1.05-.217a.208.208 0 1 1 .416-.017.207.207 0 0 1-.2.217h-.006a.208.208 0 0 1-.21-.2Zm-2.316.169a.208.208 0 1 1 .027-.416.21.21 0 0 1 .196.222.211.211 0 0 1-.209.194h-.014Zm3.57-.24a.209.209 0 1 1 .226.188l-.018.002a.209.209 0 0 1-.207-.19Zm-4.83.125a.21.21 0 1 1 .023.002h-.023v-.002Zm6.078-.263a.21.21 0 1 1 .236.177s-.019.003-.03.003a.21.21 0 0 1-.206-.18Zm-7.332.083a.21.21 0 0 1 .069-.413.21.21 0 0 1 .171.242.208.208 0 0 1-.204.173l-.036-.002Zm8.571-.286a.206.206 0 0 1 .165-.244.207.207 0 0 1 .245.163.21.21 0 0 1-.163.246c-.015 0-.028.004-.042.004a.211.211 0 0 1-.205-.169Zm-9.814.038a.206.206 0 0 1-.157-.249.208.208 0 0 1 .249-.159.21.21 0 0 1 .159.251.212.212 0 0 1-.205.163.173.173 0 0 1-.046-.006Zm11.04-.305a.211.211 0 0 1 .151-.255.211.211 0 0 1 .255.15.21.21 0 0 1-.203.261.211.211 0 0 1-.202-.156Zm-12.269-.007a.21.21 0 0 1-.144-.259.21.21 0 0 1 .403.115.21.21 0 0 1-.2.15c-.02 0-.038 0-.059-.006Zm13.482-.326a.21.21 0 0 1 .135-.263.211.211 0 0 1 .264.138.208.208 0 0 1-.138.261.218.218 0 0 1-.063.01.21.21 0 0 1-.198-.146Zm-14.69-.052a.209.209 0 1 1 .067.01c-.023 0-.046 0-.067-.01Zm15.88-.345a.21.21 0 0 1 .124-.27.207.207 0 0 1 .267.124.205.205 0 0 1-.12.268.19.19 0 0 1-.074.014.21.21 0 0 1-.196-.136Zm-17.07-.098a.208.208 0 0 1-.116-.271.207.207 0 0 1 .272-.115.208.208 0 1 1-.157.387Zm18.236-.361a.21.21 0 0 1 .385-.165.21.21 0 0 1-.385.165Zm-19.4-.142a.211.211 0 0 1-.103-.278.21.21 0 0 1 .278-.103.21.21 0 0 1 .102.278.21.21 0 0 1-.277.103Zm20.541-.379a.211.211 0 0 1 .094-.28.21.21 0 0 1 .28.095c.053.104.01.23-.094.28a.206.206 0 0 1-.28-.094Zm-21.678-.188a.208.208 0 0 1-.086-.282.208.208 0 1 1 .368.195.208.208 0 0 1-.282.087Zm22.79-.39a.209.209 0 0 1 .08-.284.21.21 0 0 1 .286.077c.056.1.02.228-.08.286a.233.233 0 0 1-.102.027.216.216 0 0 1-.184-.106Zm-23.893-.234a.21.21 0 0 1 .215-.36.209.209 0 0 1-.107.389.223.223 0 0 1-.108-.03Zm24.975-.404a.207.207 0 0 1 .063-.288.207.207 0 0 1 .288.063.21.21 0 0 1-.175.322.206.206 0 0 1-.176-.096Zm-26.045-.28a.21.21 0 0 1-.055-.29.212.212 0 0 1 .29-.056.21.21 0 0 1-.118.382c-.04 0-.08-.01-.117-.035Zm27.09-.413a.21.21 0 0 1 .34-.245.21.21 0 0 1-.05.293.213.213 0 0 1-.29-.048ZM9.54 43.16a.208.208 0 1 1 .25-.332.208.208 0 1 1-.25.332Zm29.127-.426a.209.209 0 1 1 .328-.26.209.209 0 0 1-.328.26ZM8.548 42.37a.207.207 0 0 1-.025-.294.206.206 0 0 1 .293-.026c.09.074.1.205.027.295a.215.215 0 0 1-.161.073.199.199 0 0 1-.134-.048Zm31.086-.437a.21.21 0 0 1 .016-.294.213.213 0 0 1 .297.017.211.211 0 0 1-.157.349.204.204 0 0 1-.156-.072ZM7.6 41.53a.21.21 0 0 1-.01-.295.213.213 0 0 1 .296-.01.21.21 0 0 1 .008.297.204.204 0 0 1-.152.065.208.208 0 0 1-.142-.057Zm32.96-.443a.21.21 0 0 1 0-.297.21.21 0 0 1 .294 0 .208.208 0 0 1-.148.356.21.21 0 0 1-.149-.06l.002.001Zm-33.863-.445a.21.21 0 0 1 .006-.297.208.208 0 1 1 .288.301.213.213 0 0 1-.297-.004h.003Zm34.74-.453a.208.208 0 1 1 .28-.31.21.21 0 0 1-.14.364.212.212 0 0 1-.142-.054h.002Zm-35.593-.483a.209.209 0 1 1 .316-.274.209.209 0 0 1-.316.274Zm36.422-.46a.21.21 0 0 1-.027-.294.209.209 0 0 1 .322.265.212.212 0 0 1-.295.03Zm-37.226-.52a.207.207 0 0 1 .038-.292.208.208 0 0 1 .292.037.21.21 0 0 1-.165.336.206.206 0 0 1-.165-.08Zm38.008-.466a.21.21 0 0 1-.046-.292.21.21 0 1 1 .171.334.205.205 0 0 1-.123-.042h-.002ZM4.29 37.708a.206.206 0 0 1 .052-.29.208.208 0 0 1 .29.05.21.21 0 0 1-.342.24Zm39.485-.475a.209.209 0 1 1 .288-.058.208.208 0 0 1-.173.094c-.04 0-.08-.01-.115-.036ZM3.594 36.65a.208.208 0 0 1 .067-.288.207.207 0 0 1 .286.067.208.208 0 0 1-.175.32.207.207 0 0 1-.178-.099Zm40.852-.478a.21.21 0 0 1-.073-.286.206.206 0 0 1 .284-.076.209.209 0 1 1-.211.362Zm-41.491-.614a.21.21 0 0 1 .081-.285.21.21 0 0 1 .284.084.208.208 0 0 1-.365.2Zm42.107-.483a.208.208 0 0 1-.09-.28.209.209 0 1 1 .186.303.198.198 0 0 1-.096-.023Zm-42.688-.642a.208.208 0 0 1 .096-.277.207.207 0 0 1 .28.096.21.21 0 0 1-.188.3.208.208 0 0 1-.188-.118Zm43.244-.486c-.105-.046-.15-.172-.105-.276a.21.21 0 0 1 .276-.105c.107.048.153.172.107.276a.212.212 0 0 1-.278.105ZM1.853 33.28a.209.209 0 1 1 .385-.16.207.207 0 0 1-.11.273.207.207 0 0 1-.274-.113Zm44.262-.489a.207.207 0 0 1-.119-.27.208.208 0 0 1 .27-.12.21.21 0 0 1-.075.405.187.187 0 0 1-.076-.015Zm-44.72-.687a.208.208 0 1 1 .267.125.21.21 0 0 1-.267-.125Zm45.153-.495a.21.21 0 0 1-.134-.264.212.212 0 0 1 .265-.133.21.21 0 0 1 .134.265.209.209 0 0 1-.265.132ZM.998 30.9a.21.21 0 0 1 .402-.12.207.207 0 0 1-.14.258.22.22 0 0 1-.06.01.21.21 0 0 1-.201-.148Zm45.92-.49a.207.207 0 0 1-.147-.256.208.208 0 0 1 .255-.148c.113.03.178.144.149.255a.211.211 0 0 1-.203.157c-.017 0-.035-.005-.054-.009Zm-46.25-.734a.208.208 0 0 1 .406-.098.21.21 0 0 1-.203.259.21.21 0 0 1-.202-.161Zm46.555-.485a.21.21 0 0 1-.161-.246.211.211 0 0 1 .248-.163.211.211 0 0 1 .161.248.21.21 0 0 1-.204.165c-.015 0-.03 0-.044-.004Zm-46.82-.754a.205.205 0 0 1 .167-.242.208.208 0 0 1 .075.41c-.012.003-.024.003-.037.003a.208.208 0 0 1-.205-.171Zm47.06-.479a.209.209 0 1 1 .067-.412.208.208 0 0 1-.034.415h-.033v-.003Zm-47.26-.77a.211.211 0 0 1 .18-.237.21.21 0 0 1 .054.416l-.027.002a.21.21 0 0 1-.207-.182Zm47.436-.473a.209.209 0 1 1 .23-.186.21.21 0 0 1-.208.186h-.022Zm-47.57-.788a.212.212 0 0 1 .192-.225.208.208 0 0 1 .224.192.208.208 0 0 1-.19.226H.278a.21.21 0 0 1-.209-.193Zm47.678-.463a.21.21 0 0 1-.198-.22.211.211 0 0 1 .22-.198.209.209 0 0 1-.01.418h-.012ZM.002 24.66a.207.207 0 0 1 .203-.213.21.21 0 0 1 .215.203.212.212 0 0 1-.203.215H.211a.209.209 0 0 1-.209-.205Zm47.58-.66v-.054a.209.209 0 1 1 .418 0l-.002.027L48 24a.21.21 0 0 1-.209.209.208.208 0 0 1-.209-.209ZM.205 23.61A.211.211 0 0 1 0 23.394a.208.208 0 0 1 .215-.203.207.207 0 0 1 .203.214.209.209 0 0 1-.209.204H.205Zm47.342-.91a.21.21 0 1 1 .22.198h-.011a.209.209 0 0 1-.21-.198Zm-47.29-.346a.208.208 0 1 1 .017 0H.257Zm47.19-.893a.208.208 0 0 1 .185-.23.208.208 0 1 1 .044.414h-.02a.21.21 0 0 1-.21-.186v.002Zm-47.07-.357a.21.21 0 1 1 .026.002H.376v-.002Zm46.904-.877a.21.21 0 0 1 .414-.067.212.212 0 0 1-.173.24h-.034a.209.209 0 0 1-.207-.175v.002ZM.56 19.862a.208.208 0 1 1 .076-.409.208.208 0 0 1-.076.409Zm46.491-.857a.21.21 0 0 1 .41-.087.209.209 0 0 1-.16.246.163.163 0 0 1-.045.006.21.21 0 0 1-.205-.165ZM.81 18.631a.21.21 0 0 1-.155-.25.21.21 0 1 1 .205.256.21.21 0 0 1-.05-.006Zm45.948-.835a.211.211 0 0 1 .146-.258.21.21 0 0 1 .257.149.207.207 0 0 1-.146.255.208.208 0 0 1-.257-.146Zm-45.633-.38a.21.21 0 0 1-.142-.26.21.21 0 0 1 .401.12.212.212 0 0 1-.2.15.191.191 0 0 1-.059-.01Zm45.273-.811a.211.211 0 0 1 .134-.266.208.208 0 0 1 .263.134.207.207 0 0 1-.198.274.208.208 0 0 1-.199-.142Zm-44.895-.387a.21.21 0 0 1-.127-.267.21.21 0 0 1 .395.142.208.208 0 0 1-.268.125Zm44.475-.786a.207.207 0 0 1 .12-.27.206.206 0 0 1 .269.118.209.209 0 1 1-.389.152Zm-44.032-.39a.21.21 0 0 1-.112-.274.21.21 0 0 1 .273-.113.21.21 0 0 1 .113.274.21.21 0 0 1-.194.127.222.222 0 0 1-.08-.014Zm43.55-.755a.209.209 0 1 1 .38-.17.209.209 0 0 1-.38.17ZM2.45 13.888a.208.208 0 1 1 .18-.376.208.208 0 0 1-.18.376Zm42.502-.719a.207.207 0 0 1 .09-.282.208.208 0 0 1 .28.09.208.208 0 1 1-.37.192Zm-41.938-.405a.208.208 0 1 1 .2-.366.21.21 0 0 1-.1.393.196.196 0 0 1-.1-.027Zm41.337-.683a.21.21 0 1 1 .286.075.21.21 0 0 1-.104.027.208.208 0 0 1-.182-.102ZM3.64 11.674a.21.21 0 0 1-.069-.289.21.21 0 0 1 .288-.067c.099.06.128.188.067.287a.206.206 0 0 1-.286.069Zm40.056-.648a.21.21 0 1 1 .348-.232.21.21 0 0 1-.348.232Zm-39.377-.41a.208.208 0 0 1-.052-.29.207.207 0 0 1 .29-.052c.096.064.12.196.052.29h.003a.212.212 0 0 1-.293.052Zm38.664-.61a.208.208 0 0 1 .044-.292.208.208 0 1 1 .247.336.209.209 0 0 1-.29-.044Zm-37.928-.41a.207.207 0 0 1-.038-.292.21.21 0 0 1 .295-.037.21.21 0 0 1-.257.33Zm37.161-.572a.21.21 0 1 1 .324-.266.21.21 0 0 1-.324.266ZM5.842 8.617a.209.209 0 1 1 .272-.316.209.209 0 0 1-.136.368.202.202 0 0 1-.136-.052Zm35.56-.533a.21.21 0 0 1 .012-.295.213.213 0 0 1 .297.013.208.208 0 0 1-.015.294.203.203 0 0 1-.14.057.208.208 0 0 1-.155-.07ZM6.68 7.68a.206.206 0 0 1-.006-.295.208.208 0 1 1 .3.288.206.206 0 0 1-.294.007Zm33.858-.493h-.002a.206.206 0 0 1 0-.295.209.209 0 1 1 .149.355.197.197 0 0 1-.147-.06ZM7.564 6.79a.206.206 0 0 1 .01-.295.208.208 0 1 1 .287.303.206.206 0 0 1-.297-.008Zm32.063-.452a.21.21 0 0 1-.018-.294.207.207 0 0 1 .294-.02.207.207 0 0 1 .019.295.207.207 0 0 1-.295.019ZM8.494 5.946a.21.21 0 0 1 .025-.294.209.209 0 1 1 .27.32.207.207 0 0 1-.295-.025Zm30.178-.41a.207.207 0 0 1-.03-.292.207.207 0 0 1 .292-.033.209.209 0 1 1-.261.326Zm-29.204-.38a.208.208 0 0 1 .041-.293.208.208 0 1 1 .251.332.21.21 0 0 1-.293-.04Zm28.21-.368a.208.208 0 1 1 .245-.338.208.208 0 0 1 .047.29.212.212 0 0 1-.17.088.205.205 0 0 1-.122-.04ZM10.48 4.413a.207.207 0 0 1 .056-.289.209.209 0 1 1-.056.288Zm26.165-.322a.21.21 0 0 1-.065-.288.21.21 0 0 1 .29-.063c.096.06.126.19.063.286a.208.208 0 0 1-.288.065Zm-25.114-.363a.206.206 0 0 1 .071-.287.207.207 0 0 1 .286.071.206.206 0 0 1-.177.316.21.21 0 0 1-.18-.1Zm24.046-.278a.209.209 0 1 1 .205-.364.209.209 0 0 1-.205.364Zm-22.962-.351a.207.207 0 0 1 .086-.282.21.21 0 0 1 .284.083.21.21 0 0 1-.184.31.214.214 0 0 1-.186-.111Zm21.86-.232a.207.207 0 0 1-.093-.28.206.206 0 0 1 .28-.094.21.21 0 0 1 .094.28.21.21 0 0 1-.28.094Zm-20.742-.34a.208.208 0 1 1 .379-.176.21.21 0 0 1-.103.277.214.214 0 0 1-.088.02.205.205 0 0 1-.188-.122Zm19.612-.185h-.002a.21.21 0 1 1 .002 0Zm-18.469-.326a.207.207 0 0 1 .115-.271.209.209 0 1 1-.115.271Zm17.312-.14a.208.208 0 0 1-.126-.267.21.21 0 0 1 .27-.123c.109.04.163.16.123.267a.208.208 0 0 1-.196.138.173.173 0 0 1-.071-.015Zm-16.14-.311a.21.21 0 1 1 .266.13.211.211 0 0 1-.265-.13Zm14.957-.09a.21.21 0 0 1-.138-.261.212.212 0 0 1 .264-.138c.108.033.17.15.135.261a.205.205 0 0 1-.198.146.216.216 0 0 1-.063-.008Zm-13.761-.297a.21.21 0 0 1 .144-.259.207.207 0 0 1 .257.145.207.207 0 0 1-.2.265.208.208 0 0 1-.201-.15Zm12.564-.041a.206.206 0 0 1-.15-.253.208.208 0 1 1 .403.102.208.208 0 0 1-.253.15ZM18.459.855a.207.207 0 0 1 .156-.251.208.208 0 0 1 .251.157.211.211 0 0 1-.159.25.34.34 0 0 1-.046.004.206.206 0 0 1-.202-.16Zm10.136.008a.206.206 0 0 1-.165-.245.21.21 0 0 1 .246-.165.208.208 0 0 1 .163.247.208.208 0 0 1-.204.167c-.013 0-.028 0-.04-.004ZM19.687.595a.209.209 0 1 1 .24.17s-.022.004-.035.004a.21.21 0 0 1-.205-.174Zm7.68.059a.208.208 0 1 1 .06-.412.208.208 0 0 1-.03.414s-.02 0-.03-.002Zm-6.44-.253A.207.207 0 0 1 21.11.17a.21.21 0 0 1 .05.416h-.025a.208.208 0 0 1-.207-.184Zm5.203.11a.21.21 0 0 1-.19-.227.209.209 0 1 1 .416.038.207.207 0 0 1-.207.19h-.019ZM22.178.275a.208.208 0 1 1 .416-.027.21.21 0 0 1-.195.223h-.014a.208.208 0 0 1-.207-.196Zm2.71.159a.21.21 0 0 1-.2-.218.208.208 0 0 1 .217-.2.21.21 0 0 1-.008.418h-.009Zm-1.456-.22c0-.115.09-.21.205-.213a.21.21 0 0 1 .213.207.21.21 0 0 1-.207.21.209.209 0 0 1-.21-.204h-.001Z"
            fill="url(#l)" />
        <path
            d="M41.587 9.747H39.64c-1.25 0-2.395.67-2.978 1.74l-1.168 2.146-.907 1.668h.01l-1.393 2.549-7.225 13.199-1.872 3.42-9.058-16.571c-.671-1.227.45-2.6 2.125-2.6h15.159l.907-1.667 2.116-3.886h-28.5c-1.674 0-2.8 1.379-2.125 2.606l19.465 35.457 20.707-38.06h-3.316Z"
            fill="url(#m)" />
        <path
            d="m33.948 10.58-1.444 2.652-.668 1.23H17.174c-1.2 0-2.278.565-2.817 1.474a2.339 2.339 0 0 0-.042 2.363l9.058 16.571.733 1.342.734-1.342 1.872-3.42 7.226-13.199 1.393-2.55.677-1.236h-.014l.234-.43 1.166-2.144c.439-.805 1.3-1.304 2.244-1.304h3.857L24.192 46.065 5.462 11.947a.68.68 0 0 1 .012-.71c.237-.4.778-.656 1.382-.656h27.092Zm1.406-.835H6.856c-1.674 0-2.8 1.379-2.125 2.606l19.465 35.457 20.707-38.06H39.64c-1.25 0-2.395.67-2.978 1.74l-1.168 2.145-.907 1.668h.01l-1.393 2.549-7.225 13.199-1.872 3.42-9.058-16.571c-.671-1.227.45-2.6 2.125-2.6h15.159l.907-1.667 2.116-3.886h-.002Z"
            fill="url(#n)" />
    </g>
    <defs>
        <linearGradient id="b" x1="19.299" y1="25.384" x2="29.549" y2="15.133" gradientUnits="userSpaceOnUse">
            <stop stop-color="#0036E9" />
            <stop offset="1" stop-color="#43C2C9" />
        </linearGradient>
        <linearGradient id="c" x1="12.222" y1="5.742" x2="12.222" y2="34.329" gradientUnits="userSpaceOnUse">
            <stop stop-color="#904AFF" stop-opacity="0" />
            <stop offset="1" stop-color="#004AFF" />
        </linearGradient>
        <linearGradient id="d" x1="35.52" y1="5.742" x2="35.52" y2="34.329" gradientUnits="userSpaceOnUse">
            <stop stop-color="#904AFF" stop-opacity="0" />
            <stop offset="1" stop-color="#004AFF" />
        </linearGradient>
        <linearGradient id="e" x1="23.91" y1="5.742" x2="23.91" y2="34.329" gradientUnits="userSpaceOnUse">
            <stop stop-color="#904AFF" stop-opacity="0" />
            <stop offset="1" stop-color="#004AFF" />
        </linearGradient>
        <linearGradient id="f" x1="50.278" y1="16.632" x2="13.314" y2="54.778" gradientUnits="userSpaceOnUse">
            <stop stop-color="#43C2C9" />
            <stop offset="1" stop-color="#0036E9" />
        </linearGradient>
        <linearGradient id="g" x1="37.484" y1="4.233" x2=".518" y2="42.381" gradientUnits="userSpaceOnUse">
            <stop stop-color="#43C2C9" />
            <stop offset="1" stop-color="#0036E9" />
        </linearGradient>
        <linearGradient id="h" x1="32.761" y1="-.343" x2="-4.202" y2="37.805" gradientUnits="userSpaceOnUse">
            <stop stop-color="#43C2C9" />
            <stop offset="1" stop-color="#0036E9" />
        </linearGradient>
        <linearGradient id="i" x1="23.996" y1="45.064" x2="23.996" y2="2.936" gradientUnits="userSpaceOnUse">
            <stop stop-color="#004AFF" stop-opacity="0" />
            <stop offset="1" stop-color="#67FFFF" />
        </linearGradient>
        <linearGradient id="j" x1="23.996" y1="45.89" x2="23.996" y2="2.11" gradientUnits="userSpaceOnUse">
            <stop stop-color="#004AFF" stop-opacity="0" />
            <stop offset="1" stop-color="#67FFFF" />
        </linearGradient>
        <linearGradient id="k" x1="23.996" y1="46.738" x2="23.996" y2="1.262" gradientUnits="userSpaceOnUse">
            <stop stop-color="#004AFF" stop-opacity="0" />
            <stop offset="1" stop-color="#67FFFF" />
        </linearGradient>
        <linearGradient id="l" x1="24" y1="48" x2="24" y2="0" gradientUnits="userSpaceOnUse">
            <stop stop-color="#45BFCA" stop-opacity="0" />
            <stop offset="1" stop-color="#43C2C9" />
        </linearGradient>
        <linearGradient id="m" x1="4.53" y1="28.777" x2="44.903" y2="28.777" gradientUnits="userSpaceOnUse">
            <stop stop-color="#0036E9" />
            <stop offset="1" stop-color="#43C2C9" />
        </linearGradient>
        <linearGradient id="n" x1="10.065" y1="33.679" x2="39.45" y2="4.295" gradientUnits="userSpaceOnUse">
            <stop stop-color="#0036E9" />
            <stop offset="1" stop-color="#43C2C9" />
        </linearGradient>
        <clipPath id="a">
            <path fill="#fff" d="M0 0h48v48H0z" />
        </clipPath>
    </defs>
</svg>