<svg width="52" height="32" viewBox="0 0 52 32" fill="none" xmlns="http://www.w3.org/2000/svg">
    <path
        d="M14.5262 5.5827C15.439 5.08308 16.3743 5.36197 17.2765 5.30083C17.5318 5.28293 17.7885 5.27547 18.0452 5.29635C18.5166 5.33513 18.988 5.39329 19.3438 5.43058C19.8948 6.21208 19.7041 6.96225 19.7071 7.67664C19.7252 11.2724 19.7071 14.8697 19.7297 18.4655C19.7327 18.9457 19.8528 19.4334 19.9774 19.9032C20.0795 20.2895 20.2416 20.6683 20.4293 21.0217C20.5884 21.3215 20.8631 21.5616 21.0193 21.8629C21.5432 22.8741 22.4665 23.5154 23.2367 24.2999C24.0099 25.0873 24.7755 25.8808 25.5517 26.6637C26.1537 27.2707 26.7647 27.8703 27.3848 28.4609C27.4478 28.522 27.5949 28.5071 27.703 28.5071C28.9266 28.5101 30.1517 28.5101 31.3752 28.5086C31.7085 28.5086 32.2565 28.2148 32.2955 27.9657C32.3555 27.581 32.336 27.2305 31.9952 26.9083C31.1035 26.0657 30.2673 25.1664 29.3935 24.3043C28.6804 23.5989 27.9297 22.9308 27.2286 22.2149C26.8038 21.7809 26.3909 21.317 26.0636 20.81C25.8174 20.4297 25.7363 19.9479 25.5457 19.5274C25.0142 18.3581 25.1193 17.1202 25.1193 15.8928C25.1163 12.7922 25.1118 9.69153 25.1268 6.59239C25.1283 6.24787 25.2514 5.90336 25.307 5.61551C26.0216 5.1144 26.7707 5.33513 27.4838 5.29486C27.8156 5.27547 28.1504 5.25907 28.4822 5.28442C29.0827 5.33065 29.7178 5.14274 30.2808 5.6185C30.7131 6.3299 30.4924 7.17851 30.4984 7.99133C30.5225 11.4022 30.5105 14.8115 30.5105 18.2224C30.5105 18.8756 30.6501 19.496 30.9398 20.0866C31.0524 20.3163 31.078 20.5892 31.1921 20.8189C31.3632 21.1649 31.6094 21.4766 31.764 21.8286C31.9367 22.2223 32.2234 22.5027 32.5177 22.7935C33.0116 23.2812 33.4845 23.7898 33.9724 24.282C34.5324 24.8472 35.0999 25.4065 35.6659 25.9688C36.2244 26.5236 36.7784 27.0798 37.3414 27.6302C37.5996 27.8807 37.8683 28.1208 38.1415 28.3565C38.2211 28.4251 38.3292 28.4997 38.4253 28.4997C39.7239 28.5086 41.024 28.5071 42.3227 28.5041C42.5764 28.5041 42.9877 28.0582 43.0388 27.8196C43.1469 27.3125 42.8271 27.0127 42.5283 26.71C41.8092 25.9837 41.0751 25.2708 40.3499 24.5504C39.5678 23.7734 38.7751 23.0053 38.0124 22.2104C37.5996 21.7809 37.1912 21.332 36.8714 20.8353C36.6252 20.4535 36.5081 19.9867 36.3535 19.5512C36.2064 19.1396 36.0743 18.722 35.9542 18.3014C35.9136 18.1612 35.9196 18.0061 35.9196 17.8585C35.9166 13.9898 35.9121 10.1196 35.9256 6.25085C35.9256 6.01969 36.0788 5.79001 36.1598 5.56182C37.0141 5.07264 37.9464 5.36496 38.8427 5.29784C39.0829 5.27995 39.3231 5.27249 39.5633 5.29188C40.0302 5.32767 40.5016 5.38882 40.8634 5.4276C41.3828 6.13452 41.2237 6.82057 41.2267 7.4753C41.2387 11.0845 41.2237 14.6922 41.2447 18.3014C41.2477 18.8324 41.3678 19.3708 41.4939 19.8898C41.5885 20.2775 41.7537 20.6564 41.9398 21.0098C42.0975 21.3096 42.4097 21.5437 42.5163 21.8525C42.698 22.3759 43.1258 22.6683 43.4681 23.0396C43.932 23.5437 44.4275 24.021 44.9124 24.5072C45.5549 25.1529 46.1975 25.7972 46.8431 26.4385C47.5231 27.1127 48.2032 27.7868 48.8953 28.4475C48.9659 28.5146 49.125 28.5056 49.2436 28.5056C50.1534 28.5101 51.0632 28.5086 52 28.5086V32H51.5706C40.0527 32 28.5363 32 17.0183 32C16.6685 32 16.098 31.9761 15.7497 31.9478C15.3083 31.912 14.867 31.8732 14.4541 31.745C13.9181 31.5779 13.3672 31.4855 12.8387 31.3169C12.3328 31.1559 11.8599 30.8979 11.372 30.6816C10.9005 30.4728 10.4141 30.2879 9.96223 30.0433C9.58391 29.8389 9.26113 29.5317 8.90983 29.2827C8.70715 29.1395 8.50898 28.9888 8.32582 28.8203C7.86643 28.3968 7.40553 27.9687 6.98667 27.5034C6.62335 27.0992 6.28256 26.6682 5.9808 26.2178C5.68054 25.7704 5.43433 25.2857 5.1761 24.8114C4.95691 24.4072 4.74373 23.9971 4.54406 23.5825C4.45849 23.405 4.38792 23.2201 4.33388 23.0292C4.22578 22.6414 4.13571 22.2477 4.05314 21.854C3.91652 21.2097 3.7859 20.5639 3.65679 19.9181C3.63427 19.8063 3.61626 19.6198 3.61626 19.505C3.61175 15.077 3.60875 10.6505 3.60875 6.22252C3.60875 5.77509 4.11769 5.29486 4.58009 5.29337C5.71657 5.29039 6.85455 5.30828 7.99103 5.28442C8.46094 5.27398 9.00741 5.82729 9.00591 6.30305C8.9909 10.224 8.9984 14.1449 8.9999 18.0658C8.9999 18.3581 9.01341 18.6519 9.03894 18.9427C9.07497 19.3514 9.114 19.7705 9.27314 20.1299C9.39174 20.3969 9.38123 20.6593 9.47131 20.9039C9.64696 21.3767 9.88267 21.8286 10.0868 22.2924C10.1829 22.5087 10.246 22.7413 10.3571 22.9486C10.5237 23.2604 10.7879 23.5348 10.8885 23.8629C11.0567 24.4072 11.5176 24.6966 11.8539 25.0843C12.2787 25.5765 12.7621 26.0329 13.2831 26.4236C13.7005 26.7368 14.2094 26.9322 14.6808 27.1753C15.0997 27.393 15.508 27.6347 15.9449 27.8091C16.2722 27.9404 16.6385 27.9747 16.9838 28.0657C17.4822 28.1954 17.9761 28.3386 18.4731 28.4683C18.5797 28.4967 18.6968 28.4937 18.8079 28.4952C19.3949 28.5012 19.9819 28.5071 20.5689 28.5086C21.2445 28.5101 21.7219 27.9135 21.4997 27.2842C21.4201 27.0605 21.1784 26.8875 20.9968 26.7055C20.2071 25.918 19.4114 25.138 18.6187 24.3536C17.9041 23.6466 17.185 22.9442 16.4824 22.2253C16.1701 21.9062 15.8848 21.5601 15.6206 21.1992C15.3264 20.7965 15.0321 20.3879 14.8159 19.9435C14.6523 19.6064 14.6283 19.2007 14.5427 18.8264C14.0773 16.8026 14.3941 14.7504 14.3385 12.7131C14.2815 10.6565 14.316 8.59684 14.3355 6.5372C14.3385 6.20611 14.4661 5.87502 14.5277 5.58121L14.5262 5.5827Z"
        fill="#FFAE00" />
    <path
        d="M43.0343 12.2746C43.0343 11.8973 43.0343 11.6259 43.0343 11.3544C43.0343 9.48124 43.0313 7.60953 43.0328 5.73632C43.0328 5.3754 42.7956 5.12037 42.6589 4.8191C42.5268 4.52529 42.3647 4.28667 42.114 4.09726C41.9653 3.98541 41.8272 3.84521 41.6606 3.77213C41.3979 3.65879 41.1156 3.52158 40.8394 3.5171C39.3531 3.49175 37.8668 3.50517 36.379 3.50368C36.0052 3.50368 35.7335 3.72292 35.4212 3.8825C35.0999 4.04655 34.7967 4.1778 34.654 4.56556C34.612 4.67891 34.5565 4.78927 34.4784 4.88174C33.8493 5.62446 34.1376 6.46412 34.1181 7.26054C34.079 8.82204 34.1061 10.385 34.1061 11.948C34.1061 12.0942 34.1061 12.2403 34.1061 12.4089H32.3135C32.3135 12.2582 32.3135 12.1151 32.3135 11.9704C32.3135 9.91226 32.3105 7.85262 32.3135 5.79448C32.3135 5.40821 32.0928 5.12782 31.9307 4.80568C31.7881 4.51933 31.6439 4.2643 31.3827 4.08831C31.18 3.9511 30.9548 3.8467 30.7417 3.72441C29.985 3.29488 29.1638 3.55141 28.3726 3.51114C27.5259 3.46789 26.6732 3.51412 25.8249 3.49772C25.3595 3.48877 24.9947 3.66475 24.5999 3.89294C24.3341 4.04655 24.0864 4.18973 23.9078 4.42537C23.7606 4.61925 23.6601 4.84744 23.5369 5.05922C23.1076 5.79747 23.3418 6.60432 23.3223 7.37836C23.2832 8.91451 23.3118 10.4536 23.3118 11.9913C23.3118 12.124 23.3118 12.2567 23.3118 12.4104H21.5192C21.5192 12.2523 21.5192 12.1076 21.5192 11.9629C21.5192 9.92866 21.5147 7.89588 21.5192 5.8616C21.5192 5.44997 21.312 5.14125 21.1304 4.79673C20.9862 4.5238 20.8496 4.27921 20.5989 4.11068C20.3887 3.969 20.1635 3.8482 19.9428 3.72441C19.1742 3.2919 18.3365 3.55439 17.5333 3.51114C16.6985 3.4664 15.8593 3.51561 15.0231 3.49622C14.5592 3.48578 14.1944 3.65879 13.8055 3.89592C13.5578 4.04804 13.3101 4.16736 13.1375 4.40747C13.0159 4.57749 12.8312 4.72216 12.7682 4.90859C12.6496 5.25758 12.5325 5.62745 12.5294 5.98986C12.5069 7.97343 12.5189 9.95849 12.5174 11.9421C12.5174 12.0882 12.5174 12.2344 12.5174 12.4044H10.7249C10.7249 12.2448 10.7249 12.0897 10.7249 11.9331C10.7249 9.94954 10.7324 7.96448 10.7174 5.98091C10.7144 5.6349 10.7099 5.2367 10.5447 4.9578C10.3045 4.55512 10.0283 4.18376 9.56889 3.89443C8.96537 3.5171 8.37987 3.5007 7.74632 3.49921C6.52126 3.49622 5.29771 3.5007 4.07265 3.49921C3.69883 3.49921 3.42559 3.71695 3.11483 3.87653C2.79355 4.04208 2.49029 4.17332 2.34766 4.56109C2.30563 4.67444 2.25008 4.7848 2.17201 4.87727C1.53997 5.61999 1.82972 6.45965 1.8117 7.25755C1.77417 8.89214 1.79969 10.5297 1.79969 12.2985C1.44989 12.0465 1.14813 11.872 0.903418 11.6393C0.658707 11.4081 0.420001 11.1442 0.269871 10.8489C0.122744 10.558 0.0236587 10.2105 0.0206562 9.8869C-0.00336457 8.01668 -0.0123723 6.14347 0.0266613 4.27026C0.0341678 3.91233 0.316411 3.56781 0.39598 3.20093C0.495065 2.74754 0.892909 2.55515 1.14513 2.23897C1.25622 2.09878 1.4634 2.00183 1.64506 1.95709C2.06542 1.85418 2.49479 1.73785 2.92266 1.7304C4.62063 1.70504 6.32009 1.70654 8.01956 1.7304C8.46094 1.73636 8.74018 1.55292 9.01342 1.25315C9.38874 0.843011 9.78959 0.453753 10.1949 0.0719531C10.2625 0.00931405 10.4066 0.0108055 10.5162 0.0108055C11.2789 0.00633123 12.0415 0.0242281 12.8027 0.00185701C13.22 -0.0100742 13.3627 0.347863 13.6089 0.544729C13.9677 0.832571 14.2379 1.2263 14.5772 1.54248C14.6943 1.65135 14.903 1.7125 15.0696 1.7125C19.9669 1.72145 24.8641 1.72592 29.7613 1.70206C30.009 1.70206 30.2928 1.49177 30.4939 1.30833C30.9128 0.928021 31.2821 0.494021 31.689 0.0987985C31.7625 0.0272109 31.9157 0.0122969 32.0328 0.0108055C32.8195 0.00334842 33.6076 0.0242281 34.3943 0.000365606C34.8132 -0.0130571 34.9528 0.346372 35.199 0.541746C35.5578 0.828097 35.8235 1.22929 36.1673 1.53801C36.301 1.65881 36.5412 1.70952 36.7348 1.71101C38.5469 1.72443 40.3575 1.71996 42.1695 1.71847C42.6004 1.71847 42.9487 1.95113 43.333 2.08237C43.7684 2.23002 43.9756 2.59094 44.2908 2.84448C44.4305 2.95783 44.5266 3.1532 44.5866 3.32919C44.6902 3.63343 44.8133 3.9511 44.8163 4.2643C44.8373 6.13601 44.8463 8.00922 44.8088 9.88243C44.8028 10.2299 44.5461 10.5655 44.4545 10.919C44.3434 11.3455 44.0191 11.5841 43.7099 11.8362C43.5252 11.9868 43.3075 12.0987 43.0343 12.2732V12.2746ZM10.7444 1.72592V3.48131H12.4994V1.72592H10.7444ZM32.327 3.47534H34.0956V1.73338H32.327V3.47534Z"
        fill="#FFAE00" />
</svg>