<svg width="54" height="46" viewBox="0 0 54 46" fill="none" xmlns="http://www.w3.org/2000/svg">
    <path fill-rule="evenodd" clip-rule="evenodd"
        d="M0 11.0762H15.948V12.6627H1.58195V15.8891H2.37968V17.4756H0V11.0762Z" fill="#FFD900" />
    <path fill-rule="evenodd" clip-rule="evenodd" d="M50.8302 17.4772H36.9637V15.8907H52.4121V40.4871H50.8302V17.4772Z"
        fill="#FFD900" />
    <path fill-rule="evenodd" clip-rule="evenodd" d="M46.882 4.73194H34.9108V3.14546H46.882V4.73194Z" fill="#FFD900" />
    <path fill-rule="evenodd" clip-rule="evenodd" d="M19.2888 4.73194H7.11763V3.14546H19.2888V4.73194Z"
        fill="#FFD900" />
    <path fill-rule="evenodd" clip-rule="evenodd"
        d="M46.0911 1.57241H52.4121V12.7143H46.0911V1.57241ZM47.673 3.15889V11.1278H50.8302V3.15889H47.673Z"
        fill="#FFD900" />
    <path fill-rule="evenodd" clip-rule="evenodd"
        d="M1.58754 1.57241H7.90861V12.7144H1.58754V7.89983H3.1695V11.1279H6.32666V3.15889H3.1695V6.31335H1.58754V1.57241Z"
        fill="#FFD900" />
    <path fill-rule="evenodd" clip-rule="evenodd" d="M6.43568 20.6242H4.85365V19.0378H6.43568V20.6242Z"
        fill="#FFD900" />
    <path fill-rule="evenodd" clip-rule="evenodd" d="M9.59959 20.6242H8.01755V19.0378H9.59959V20.6242Z"
        fill="#FFD900" />
    <path fill-rule="evenodd" clip-rule="evenodd"
        d="M0 39.6523H54V46H45.9845V44.4135H52.418V41.2388H1.58195V44.4135H44.4025V46H0V39.6523Z" fill="#FFD900" />
    <path fill-rule="evenodd" clip-rule="evenodd" d="M1.5887 15.8475H17.018V17.4339H3.17066V40.4439H1.5887V15.8475Z"
        fill="#FFD900" />
    <path fill-rule="evenodd" clip-rule="evenodd"
        d="M52.418 12.6711H38.0747V11.0846H54V17.4324H51.6212V15.8459H52.418V12.6711Z" fill="#FFD900" />
    <path fill-rule="evenodd" clip-rule="evenodd"
        d="M27.001 1.58648C21.3334 1.58648 16.739 6.19409 16.739 11.8779C16.739 17.5617 21.3334 22.1693 27.001 22.1693C32.6686 22.1693 37.263 17.5617 37.263 11.8779C37.263 6.19409 32.6686 1.58648 27.001 1.58648ZM15.157 11.8779C15.157 5.31791 20.4598 0 27.001 0C33.5423 0 38.845 5.31791 38.845 11.8779C38.845 18.4378 33.5423 23.7557 27.001 23.7557C20.4598 23.7557 15.157 18.4378 15.157 11.8779Z"
        fill="#FFD900" />
    <path fill-rule="evenodd" clip-rule="evenodd"
        d="M27.001 4.73871C23.0694 4.73871 19.8822 7.93502 19.8822 11.8779C19.8822 15.8207 23.0694 19.017 27.001 19.017C30.9326 19.017 34.1198 15.8207 34.1198 11.8779C34.1198 7.93502 30.9326 4.73871 27.001 4.73871ZM18.3003 11.8779C18.3003 7.05883 22.1957 3.15223 27.001 3.15223C31.8063 3.15223 35.7018 7.05883 35.7018 11.8779C35.7018 16.6969 31.8063 20.6035 27.001 20.6035C22.1957 20.6035 18.3003 16.6969 18.3003 11.8779Z"
        fill="#FFD900" />
    <path fill-rule="evenodd" clip-rule="evenodd"
        d="M27.001 7.88798C26.1208 7.88798 25.4072 8.6036 25.4072 9.48631H23.8253C23.8253 7.72742 25.2471 6.3015 27.001 6.3015C28.7549 6.3015 30.1767 7.72742 30.1767 9.48631C30.1767 10.9713 29.1632 12.219 27.792 12.5715V14.2475H26.21V11.0846H27.001C27.8812 11.0846 28.5948 10.369 28.5948 9.48631C28.5948 8.6036 27.8812 7.88798 27.001 7.88798Z"
        fill="#FFD900" />
    <path fill-rule="evenodd" clip-rule="evenodd" d="M26.21 17.4188V15.8322H27.792V17.4188H26.21Z" fill="#FFD900" />
    <path fill-rule="evenodd" clip-rule="evenodd"
        d="M6.30113 29.5825L1.81922 25.0878L2.93783 23.966L7.88309 28.9254V40.4871H6.30113V29.5825Z" fill="#FFD900" />
    <path fill-rule="evenodd" clip-rule="evenodd"
        d="M51.0363 23.966L52.1549 25.0878L47.673 29.5825V40.4871H46.0911V28.9254L51.0363 23.966Z" fill="#FFD900" />
    <path fill-rule="evenodd" clip-rule="evenodd" d="M23.8252 40.4871V22.5007H25.4071V40.4871H23.8252Z"
        fill="#FFD900" />
    <path fill-rule="evenodd" clip-rule="evenodd" d="M28.5948 40.4871V22.5007H30.1767V40.4871H28.5948Z"
        fill="#FFD900" />
</svg>