<svg width="70" height="35" viewBox="0 0 70 35" fill="none" xmlns="http://www.w3.org/2000/svg">
    <path
        d="M67.0191 16.3629C66.9577 16.4887 66.8282 16.6238 66.8442 16.739C67.0759 18.4 66.3101 19.8572 65.8969 21.3859C65.8795 21.4501 65.8141 21.5467 65.7654 21.55C65.4402 21.5732 65.3942 21.8241 65.3227 22.0545C65.1879 22.4855 65.0537 22.9165 64.9275 23.3501C64.8487 23.6209 64.6972 23.7321 64.4074 23.6507C64.2058 23.5938 63.9955 23.5646 63.7879 23.5289C63.5883 23.4945 63.5349 23.3925 63.5943 23.2012C63.8306 22.4445 64.0609 21.6858 64.2899 20.9271C64.4201 20.4954 64.5383 20.0598 64.6711 19.6295C64.7392 19.4103 64.6044 19.3613 64.4415 19.3176C63.4334 19.0482 62.4266 18.7748 61.4185 18.506C55.9708 17.0541 50.5225 15.6036 45.0748 14.1524C42.9511 13.587 40.8261 13.0276 38.7065 12.4483C38.3927 12.3629 38.2892 12.4609 38.2278 12.7403C38.0449 13.5665 37.8406 14.3887 37.661 15.2156C37.6049 15.4745 37.5034 15.4996 37.2471 15.4493C36.4159 15.2871 36.5227 15.2878 36.6743 14.4874C36.9526 13.0137 37.2077 11.5353 37.4667 10.0583C37.4861 9.94777 37.456 9.82794 37.4487 9.71275C37.3979 9.67567 37.3479 9.6386 37.2971 9.60152C37.237 9.71473 37.1896 9.83721 37.1162 9.94115C35.2229 12.6165 33.3282 15.2911 31.4302 17.9638C29.5442 20.6192 27.6548 23.2727 25.7662 25.9268C24.5244 27.6719 23.28 29.4151 22.0402 31.1616C21.8693 31.4019 21.7305 31.6654 21.5529 31.9011C21.37 32.1434 21.1537 32.3598 20.96 32.5942C20.8339 32.7465 20.7097 32.9027 20.6049 33.0696C20.2711 33.6025 19.9513 34.1447 19.6161 34.677C19.3778 35.0557 19.2476 35.0822 18.8531 34.8564C18.5453 34.6803 18.2449 34.491 17.9351 34.3188C17.7395 34.2109 17.6941 34.0898 17.8156 33.8925C18.5179 32.7458 19.2136 31.5959 19.9413 30.3982C19.7911 30.3499 19.6335 30.2863 19.4693 30.2473C18.4872 30.0109 17.5098 29.7494 16.5191 29.5568C15.5691 29.3714 14.7553 28.9245 13.9461 28.4346C11.8605 27.1721 9.7649 25.9255 7.67328 24.6722C6.82741 24.1651 5.97287 23.6706 5.14036 23.1429C4.88467 22.9807 4.66369 22.7477 4.47008 22.512C4.1049 22.0684 3.7751 21.5977 3.42327 21.1435C3.32447 21.0164 3.20163 20.9079 3.07411 20.7748C2.51399 21.5639 1.96922 22.3107 1.44915 23.0741C1.26489 23.3442 1.09398 23.4369 0.807577 23.225C0.629992 23.0939 0.434383 22.9853 0.239441 22.8801C-0.0456287 22.7265 -0.0563105 22.516 0.103248 22.275C0.280165 22.0082 0.482451 21.7573 0.651356 21.4865C2.83911 17.9717 5.6344 14.9091 8.12792 11.6221C10.1368 8.97457 12.2237 6.38533 14.2779 3.77225C14.3447 3.68751 14.4228 3.6041 14.5116 3.54517C15.24 3.06188 15.9643 2.57131 16.7087 2.11252C16.9337 1.97415 17.2121 1.87352 17.4745 1.84902C20.5027 1.567 23.533 1.30748 26.562 1.03273C29.8353 0.735472 33.1079 0.428947 36.3805 0.126394C36.8892 0.0793891 37.3999 -0.0146207 37.9067 0.00193028C38.5796 0.0244397 39.2512 0.123084 39.9208 0.207825C41.7147 0.435567 43.5072 0.674564 45.3011 0.906278C46.7318 1.09099 48.1625 1.27239 49.5932 1.45379C51.4391 1.68815 53.2857 1.9139 55.1303 2.15621C57.0631 2.40977 58.9938 2.68253 60.9265 2.93676C61.5754 3.02216 62.2284 3.07843 62.8793 3.14596C63.7058 3.23269 64.3206 3.65441 64.6024 4.41377C65.264 6.19996 65.8715 8.00667 66.5011 9.80477C66.6105 10.1166 66.728 10.4258 66.8295 10.7402C66.9103 10.9898 67.0111 11.1858 67.2982 11.2844C67.612 11.3923 67.668 11.7935 67.4764 12.0577C67.411 12.1477 67.3803 12.3119 67.415 12.4152C67.7221 13.3341 68.0419 14.2497 68.3764 15.1594C68.4138 15.2607 68.5526 15.3414 68.6614 15.3977C68.9886 15.5665 69.0814 15.8068 68.9358 16.1445C68.9111 16.2014 68.8851 16.2802 68.9058 16.3305C69.1782 16.9972 69.1214 17.7585 69.538 18.3888C69.7303 18.6794 69.8391 19.0257 69.9706 19.3527C70.008 19.4461 69.992 19.5606 70 19.6652C69.8985 19.6705 69.7937 19.6943 69.6962 19.6771C69.522 19.646 69.3551 19.5738 69.1802 19.548C68.835 19.4964 68.5733 19.356 68.4765 18.9979C68.4685 18.9674 68.4471 18.9297 68.4211 18.9171C67.8229 18.6364 67.8116 18.0128 67.5926 17.5149C67.4337 17.1541 67.3115 16.7774 67.1733 16.408L67.0211 16.3636L67.0191 16.3629ZM14.0136 26.1989C14.2386 26.3366 14.4228 26.4571 14.6144 26.565C15.1352 26.8576 15.6265 27.2661 16.1866 27.4111C17.7722 27.8216 19.3878 28.1182 20.9874 28.475C21.2284 28.5286 21.3506 28.4565 21.4801 28.2737C22.2332 27.2112 22.9949 26.1539 23.7547 25.0959C27.0961 20.4418 30.4374 15.7883 33.7782 11.1335C34.3042 10.4006 34.8223 9.66243 35.3631 8.90042C34.8964 8.50254 34.4551 8.11922 34.0045 7.74715C33.933 7.68823 33.8216 7.67101 33.7247 7.64917C31.2813 7.10497 28.8365 6.56673 26.3951 6.01459C26.0766 5.94242 25.857 5.94904 25.7221 6.29595C25.6353 6.5184 25.4778 6.7137 25.3549 6.92225C22.2846 12.1385 19.2142 17.3553 16.1439 22.5722C15.4396 23.7692 14.7373 24.9668 14.0129 26.1996L14.0136 26.1989ZM24.007 5.54652C23.8288 5.49025 23.7159 5.44589 23.5991 5.41809C21.8967 5.01159 20.195 4.60444 18.4899 4.20721C18.3136 4.16617 18.1187 4.16551 17.9378 4.18934C17.2675 4.2754 16.5959 4.36346 15.9316 4.48726C15.7474 4.52168 15.5371 4.6435 15.4236 4.78915C13.1937 7.65711 10.9766 10.5343 8.75681 13.4096C7.29942 15.2971 5.84469 17.1872 4.37795 19.0681C4.19369 19.3044 4.15965 19.4739 4.36126 19.7215C4.7872 20.2425 5.17909 20.7913 5.591 21.3243C5.6838 21.4441 5.78728 21.5686 5.91279 21.6487C6.38078 21.944 6.86347 22.2161 7.33413 22.5074C7.52173 22.6239 7.65125 22.6252 7.81414 22.4471C8.35157 21.8605 8.90835 21.2918 9.45913 20.7172C11.4406 18.6503 13.4214 16.5841 15.4042 14.5185C17.6467 12.1822 19.8912 9.84714 22.1344 7.5108C22.7452 6.87458 23.3521 6.23438 24.0077 5.54719L24.007 5.54652ZM46.3372 7.07716C46.4367 7.20692 46.4728 7.26121 46.5162 7.30888C48.089 9.04541 49.6699 10.7747 51.2328 12.5198C51.7082 13.0508 52.2669 13.5241 52.5453 14.2093C52.745 14.7006 53.1635 14.878 53.6502 14.9905C54.6964 15.2335 55.7372 15.499 56.7787 15.7625C59.1433 16.3616 61.5067 16.9661 63.8707 17.5672C63.9808 17.595 64.0943 17.6089 64.2065 17.6294C64.1177 17.4288 63.9989 17.2885 63.866 17.162C61.6956 15.0945 59.5232 13.0282 57.3508 10.962C55.7399 9.43006 54.1296 7.89611 52.51 6.37275C52.4065 6.27543 52.2155 6.19599 52.0807 6.21452C50.6553 6.41314 49.2333 6.63227 47.81 6.84743C47.3433 6.91827 46.8773 6.99242 46.3372 7.0765V7.07716ZM64.7519 16.0577C64.7833 16.0405 64.8147 16.0233 64.8467 16.0061C64.8113 15.8591 64.7833 15.7108 64.7406 15.5659C64.3287 14.1643 63.9147 12.7634 63.5015 11.3626C62.8953 9.30824 62.2904 7.25393 61.6823 5.20028C61.6322 5.03146 61.6248 4.81298 61.3338 4.86793C61.008 4.9295 60.6775 4.9679 60.349 5.0149C58.6733 5.25258 56.9976 5.48826 55.3219 5.72726C54.9127 5.78552 54.5048 5.85437 54.0962 5.91859C54.0835 5.94971 54.0702 5.98148 54.0575 6.0126C57.6225 9.3612 61.1869 12.7091 64.7519 16.0577ZM21.366 10.6641C21.3413 10.6462 21.3166 10.6284 21.2912 10.6105C17.2034 14.8522 13.1163 19.0939 8.99715 23.368C10.2329 24.0969 11.4086 24.7907 12.6089 25.4985C15.5471 20.5206 18.4565 15.5923 21.366 10.6634V10.6641ZM51.0158 14.3146L51.0699 14.2073C50.9725 14.0789 50.8837 13.9419 50.7755 13.8227C49.0624 11.9438 47.3153 10.0954 45.6503 8.17615C45.0808 7.51941 44.5507 7.11026 43.6715 7.43996C43.4305 7.53 43.1527 7.57833 42.9598 7.7306C42.0812 8.42177 41.2267 9.14273 40.3641 9.85442C39.8641 10.2675 39.3667 10.6833 38.868 11.0977C38.87 11.1348 38.872 11.1725 38.874 11.2096C42.8977 12.3371 46.9828 13.2282 51.0165 14.3146H51.0158ZM21.8566 3.26579C21.85 3.29095 21.8426 3.31611 21.836 3.34193C23.4536 3.70142 25.0699 4.06819 26.6895 4.41708C28.3685 4.77922 30.0482 5.13871 31.7339 5.47039C33.0585 5.73123 34.3723 6.0702 35.7423 6.03246C36.229 6.01922 36.7176 6.06027 37.205 6.0841C37.42 6.09469 37.5088 5.99804 37.5121 5.79347C37.5255 4.94605 37.5428 4.09864 37.5568 3.25189C37.5582 3.17906 37.5428 3.10558 37.5315 2.99502C32.2947 3.08572 27.0754 3.17575 21.8566 3.26579ZM38.8694 5.99671C39.0035 5.99671 39.1738 6.03312 39.3207 5.98943C39.7099 5.87423 40.1058 5.75838 40.4696 5.58294C42.0552 4.8196 43.6321 4.03641 45.2076 3.25255C45.3138 3.19959 45.3859 3.08108 45.474 2.99303C45.3585 2.95596 45.243 2.88512 45.1275 2.88644C43.4305 2.90366 41.7334 2.92749 40.037 2.95596C39.6631 2.96258 39.2893 2.99369 38.8694 3.0162V5.99671ZM50.6413 4.65542C50.5739 4.53956 50.5485 4.45813 50.4938 4.40649C49.9951 3.93843 49.4877 3.47897 48.991 3.00892C48.8454 2.87188 48.748 2.92948 48.6251 3.03474C48.0043 3.5657 47.378 4.0907 46.7545 4.61834C46.5729 4.77194 46.3933 4.92685 46.2124 5.08177C46.2277 5.12547 46.2424 5.16916 46.2578 5.21286C47.7052 5.08574 49.1379 4.83417 50.6413 4.65608V4.65542ZM51.0933 3.14133C51.4678 3.52664 51.8023 3.85832 52.1214 4.20457C52.2736 4.37008 52.4359 4.41642 52.6548 4.38067C52.9826 4.32704 53.3164 4.31513 53.6442 4.26283C54.2671 4.16352 54.8873 4.04833 55.5082 3.93975C55.5055 3.89738 55.5022 3.85435 55.4995 3.81198C54.0521 3.59218 52.6048 3.37172 51.0933 3.14199V3.14133ZM38.7539 9.83787C39.559 9.16193 40.3 8.54027 41.0411 7.91862C41.0211 7.87823 41.0004 7.83851 40.9803 7.79813C40.3101 7.9206 39.6378 8.03778 38.9702 8.1735C38.8874 8.19005 38.7672 8.30657 38.7639 8.38072C38.7445 8.83687 38.7545 9.29368 38.7545 9.83787H38.7539Z"
        fill="#FFAE00" />
</svg>