<svg width="19" height="19" viewBox="0 0 19 19" fill="none" xmlns="http://www.w3.org/2000/svg">
    <g clip-path="url(#a)">
        <path
            d="M2.28 18.453a2.865 2.865 0 0 0 3.838-2.827 2.873 2.873 0 1 0-5.738.243c.016.29.072.576.167.851m3.58-3.754 8.854-8.854M6.126 12.54l4.727-4.727m4.027-1.809-8.853 8.861M18.453 2.28a2.865 2.865 0 0 1-2.827 3.838A2.873 2.873 0 1 1 15.869.38c.29.016.576.072.851.167"
            stroke="#00A3FF" stroke-width=".75" stroke-linecap="round" stroke-linejoin="round" />
        <path
            d="m18.453 2.28-2.455 2.455-1.733-1.733L16.72.547M2.28 18.453l2.455-2.455-1.733-1.733L.547 16.72M8.276 6.346 6.331 8.292m11.552 6.588L11.59 9.296M9.584 7.509 8.276 6.346m6.59 11.552L9.28 11.613M7.494 9.599 6.33 8.29m1.483-1.83L6.794 5.45 5.45 6.801l1.011 1.01"
            stroke="#00A3FF" stroke-width=".75" stroke-linecap="round" stroke-linejoin="round" />
        <path d="m2.527 1.882-.656.656L5.805 6.47l.656-.655-3.934-3.934Z" fill="#00A3FF" />
        <path
            d="M1.43.442.378 1.495l1.285 1.284 1.053-1.053L1.431.442ZM17.86 14.88l.091.092a2.127 2.127 0 0 1 .616 1.695c-.04.503-.258.975-.616 1.33a2.19 2.19 0 0 1-1.322.616 2.143 2.143 0 0 1-1.703-.616.526.526 0 0 1-.083-.099"
            stroke="#00A3FF" stroke-width=".75" stroke-linecap="round" stroke-linejoin="round" />
        <path d="m13.596 14.88 2.28 2.425a1.179 1.179 0 0 0 1.353 0" stroke="#00A3FF" stroke-width=".75"
            stroke-linecap="round" stroke-linejoin="round" />
    </g>
    <defs>
        <clipPath id="a">
            <path fill="#fff" d="M0 0h19v19H0z" />
        </clipPath>
    </defs>
</svg>