<svg width="45" height="45" viewBox="0 0 45 45" fill="none" xmlns="http://www.w3.org/2000/svg">
    <path d="M41.9845 14.141L43.1025 13.0305L39.2053 9.13204L38.5046 9.8251L38.0873 10.2425L41.9845 14.141Z"
        fill="#FFAE00" />
    <path d="M3.00981 30.8499L4.12587 29.7335L15.2586 40.8697L14.1425 41.9861L3.00981 30.8499Z" fill="#FFAE00" />
    <path
        d="M0.7919 31.1762C0.635518 31.1753 0.482409 31.2209 0.352092 31.3074C0.221775 31.3939 0.120154 31.5172 0.0601866 31.6617C0.000218966 31.8062 -0.015379 31.9653 0.0153813 32.1186C0.0461417 32.272 0.121867 32.4128 0.232902 32.5229L12.4757 44.7696C12.6244 44.9172 12.8253 45 13.0347 45C13.2442 45 13.4451 44.9172 13.5937 44.7696C13.7404 44.6221 13.8227 44.4225 13.8227 44.2144C13.8227 44.0063 13.7404 43.8067 13.5937 43.6592L1.34302 31.4046C1.27081 31.3319 1.18492 31.2744 1.09032 31.2352C0.995722 31.196 0.894294 31.1759 0.7919 31.1762Z"
        fill="#FFAE00" />
    <path
        d="M39.2053 4.67438L34.749 9.13204L35.8592 10.2425L36.4182 9.69121L37.1582 8.94302L40.3154 5.79273L39.2053 4.67438Z"
        fill="#FFAE00" />
    <path
        d="M35.8592 12.4713L32.5209 9.13204C31.6387 8.25187 30.4845 7.69646 29.2464 7.55631C28.0083 7.41616 26.7593 7.69951 25.7027 8.36022C28.0139 9.59025 30.1245 11.1651 31.9619 13.0305C33.8268 14.8685 35.4011 16.9798 36.6307 19.2917C37.2912 18.2348 37.5745 16.9854 37.4344 15.7469C37.2943 14.5084 36.7391 13.3538 35.8592 12.4713Z"
        fill="#FFAE00" />
    <path
        d="M44.7716 4.67438C44.845 4.60105 44.9029 4.51383 44.9421 4.41781C44.9813 4.32179 45.001 4.21892 45 4.11521C44.9969 3.90905 44.9152 3.71185 44.7716 3.56391L41.4255 0.224604C41.2766 0.0805384 41.0776 0 40.8705 0C40.6633 0 40.4643 0.0805384 40.3154 0.224604L38.6463 1.89426L43.1025 6.34403L44.7716 4.67438Z"
        fill="#FFAE00" />
    <path
        d="M35.5206 20.607C34.3438 18.2014 32.7648 16.0146 30.8518 14.141C28.9773 12.2291 26.7915 10.6499 24.3879 9.47069L9.47605 24.3873C10.657 26.7924 12.2385 28.9789 14.1527 30.8533C16.0245 32.7649 18.2076 34.3441 20.6088 35.5236L35.5206 20.607ZM17.8169 22.2427C17.8766 22.0989 17.9775 21.9759 18.107 21.8894C18.2365 21.8029 18.3887 21.7568 18.5444 21.7568H23.3234L20.771 19.2027L21.8842 18.0891L25.7807 21.9876C25.8907 22.0977 25.9657 22.238 25.9961 22.3908C26.0264 22.5435 26.0108 22.7019 25.9513 22.8457C25.8917 22.9896 25.7908 23.1126 25.6614 23.1992C25.5319 23.2857 25.3797 23.3319 25.224 23.3319H20.445L22.9975 25.886L21.8842 26.9997L17.9878 23.1012C17.8776 22.9911 17.8026 22.8507 17.7722 22.6979C17.7417 22.5451 17.7573 22.3867 17.8169 22.2427Z"
        fill="#FFAE00" />
    <path
        d="M19.4278 36.7049C17.0639 35.4657 14.9071 33.8662 13.0347 31.9637C11.1353 30.0887 9.53661 27.9316 8.29507 25.5687L5.24026 28.6244L16.373 39.7607L19.4278 36.7049Z"
        fill="#FFAE00" />
</svg>