<svg width="19" height="19" viewBox="0 0 19 19" fill="none" xmlns="http://www.w3.org/2000/svg">
    <path fill-rule="evenodd" clip-rule="evenodd"
        d="M11.176 16.675c-2.319.558-4.636 1.117-6.955 1.674-.511.123-1.009-.071-1.235-.517-.106-.208-.154-.448-.21-.678-.454-1.869-.903-3.74-1.353-5.61L.481 7.63c-.16-.662.18-1.22.845-1.375.174-.04.327-.11.475-.212C4.318 4.316 6.836 2.593 9.354.87l.76-.52c.469-.32.999-.222 1.322.246.198.286.395.572.587.86.048.07.088.09.168.049.176-.09.357-.17.535-.253a.935.935 0 0 1 1.266.46c.189.403.38.806.564 1.212.044.096.09.126.2.098.236-.06.475-.131.717-.148.52-.037.972.318 1.094.827l2.363 9.812c.06.242.107.479.03.724-.12.375-.365.63-.745.74-.243.068-.49.121-.735.18-2.101.507-4.203 1.012-6.304 1.518Zm-.116-.497c2.325-.56 4.651-1.119 6.975-1.684a.688.688 0 0 0 .304-.178c.165-.16.175-.364.123-.58-.793-3.285-1.583-6.57-2.375-9.856a.885.885 0 0 0-.044-.146.547.547 0 0 0-.509-.356c-.092-.004-.189.022-.28.044-1.75.42-3.5.842-5.248 1.264L1.44 6.749c-.383.092-.556.375-.465.757.206.861.415 1.721.619 2.583.024.105.066.12.166.097.952-.234 1.905-.462 2.858-.69a.283.283 0 0 0 .181-.124c.46-.669.922-1.336 1.381-2.006a.533.533 0 0 1 .334-.227c.896-.214 1.793-.43 2.688-.646.173-.042.173-.042.182-.214.043-.757.676-1.338 1.456-1.335.73.003 1.362.62 1.391 1.36a1.43 1.43 0 0 1-1.022 1.432 1.413 1.413 0 0 1-1.637-.664c-.06-.105-.114-.12-.225-.093-.869.214-1.74.423-2.612.63a.314.314 0 0 0-.2.136c-.454.664-.913 1.325-1.367 1.988a.544.544 0 0 1-.341.235c-.986.235-1.97.475-2.955.708-.097.023-.126.056-.1.156.105.415.206.83.302 1.247.023.103.065.117.16.094 1.503-.363 3.008-.723 4.513-1.082.096-.021.126-.06.13-.159a1.424 1.424 0 0 1 2.848.044 1.431 1.431 0 0 1-1.067 1.38 1.421 1.421 0 0 1-1.612-.704c-.04-.075-.081-.094-.165-.074-1.51.364-3.022.725-4.535 1.083-.103.025-.117.065-.093.16.116.468.227.938.34 1.407.036.15.036.15.192.113.977-.235 1.956-.47 2.933-.707a.604.604 0 0 1 .364.019c.799.288 1.598.572 2.395.86.095.033.18.039.278.015 1.176-.286 2.352-.57 3.53-.85.116-.028.155-.074.162-.195.034-.672.565-1.226 1.245-1.314a1.425 1.425 0 0 1 .729 2.727c-.657.292-1.45.016-1.808-.638-.057-.105-.108-.115-.213-.09-1.215.296-2.431.59-3.648.876a.62.62 0 0 1-.33-.018c-.815-.283-1.626-.577-2.44-.865a.33.33 0 0 0-.178-.022c-.986.232-1.97.472-2.956.707-.073.017-.095.049-.077.123.201.827.398 1.657.601 2.483.051.207.19.354.397.399.117.026.25.018.366-.01 2.31-.55 4.616-1.107 6.924-1.663ZM5.376 5.246l.002.023 8.725-2.102c-.015-.04-.023-.07-.036-.099l-.53-1.131c-.117-.248-.353-.336-.604-.22-.791.367-1.582.738-2.374 1.108L7.341 4.327l-1.965.919Zm-2.022.35.013.026 8.247-3.851c-.03-.05-.048-.082-.068-.111-.17-.25-.341-.502-.513-.752-.187-.27-.386-.305-.66-.118L4.5 4.81c-.382.26-.764.524-1.146.786Zm11.404 7.777a.925.925 0 0 0-1.1-.682.918.918 0 0 0-.682 1.098.912.912 0 0 0 1.104.686.921.921 0 0 0 .678-1.102ZM11.695 6.15a.914.914 0 1 0-1.775.435.914.914 0 0 0 1.775-.435Zm-4.283 5.047a.914.914 0 1 0 1.775-.439.914.914 0 0 0-1.775.439Z"
        fill="#00CBFF" />
</svg>