<svg width="24" height="24" fill="none" xmlns="http://www.w3.org/2000/svg">
    <g clip-path="url(#prefix__a)" fill="#FFCE0D">
        <path
            d="M6.8 2.4a.4.4 0 100-.8.4.4 0 000 .8zm0 4h3.201a.4.4 0 000-.8h-3.2a.4.4 0 000 .8zM3.2 6a1.2 1.2 0 102.4 0 1.2 1.2 0 00-2.4 0zm1.2-.4a.4.4 0 110 .8.4.4 0 010-.8zm2.4 4h3.201a.4.4 0 000-.8h-3.2a.4.4 0 000 .8zM4.4 8a1.2 1.2 0 100 2.4 1.2 1.2 0 000-2.4zm0 1.6a.4.4 0 110-.8.4.4 0 010 .8zm2.4 3.2h3.201a.4.4 0 000-.8h-3.2a.4.4 0 000 .8zm-2.4-1.6a1.2 1.2 0 100 2.4 1.2 1.2 0 000-2.4zm0 1.6a.4.4 0 110-.8.4.4 0 010 .8zM6.8 16h2.001a.4.4 0 100-.8h-2a.4.4 0 000 .8zm-2.4-1.6a1.2 1.2 0 100 2.4 1.2 1.2 0 000-2.4zm0 1.6a.4.4 0 110-.8.4.4 0 010 .8z" />
        <path
            d="M16.58 9.967a1.612 1.612 0 00-1.375-.767H15.2a1.618 1.618 0 00-1.381.767l-.22.353V2.8A1.6 1.6 0 0012 1.2H9.89A.796.796 0 009.2.8L8.184.798A1.595 1.595 0 005.418.8H4.4a.797.797 0 00-.689.4H1.6A1.6 1.6 0 000 2.8v15.6A1.6 1.6 0 001.6 20h5.99l-.944 1.52A1.625 1.625 0 008.026 24h14.352a1.622 1.622 0 001.376-2.48L16.58 9.968zM12.8 2.8v8.81l-.8 1.288V3.6a.8.8 0 00-.8-.8H10V2h2a.8.8 0 01.8.8zM4.4 1.6h1.018a.8.8 0 00.693-.405.8.8 0 011.377 0 .8.8 0 00.694.405H9.2v1.6H4.4V1.6zM9.2 4a.797.797 0 00.689-.4h1.31v10.586L9.08 17.6H2.4v-14h1.311c.142.247.404.4.689.4h4.8zM1.6 19.2a.8.8 0 01-.8-.8V2.8a.8.8 0 01.8-.8h2v.8H2.4a.8.8 0 00-.8.8v14a.8.8 0 00.8.8h6.184l-.496.8H1.6zm21.497 3.575a.812.812 0 01-.719.425H8.026a.825.825 0 01-.7-1.258L14.5 10.39a.823.823 0 011.398-.001l7.178 11.555c.16.251.168.571.022.83v.001z" />
        <path
            d="M15.202 12.4a1.2 1.2 0 00-1.2 1.2v4a1.2 1.2 0 102.4 0v-4a1.2 1.2 0 00-1.2-1.2zm.4 5.2a.4.4 0 01-.8 0v-4a.4.4 0 01.8 0v4zm-.4 2a1.2 1.2 0 100 2.4 1.2 1.2 0 000-2.4zm0 1.6a.4.4 0 110-.8.4.4 0 010 .8z" />
    </g>
    <defs>
        <clipPath id="prefix__a">
            <path fill="#fff" d="M0 0h24v24H0z" />
        </clipPath>
    </defs>
</svg>