<svg width="20" height="20" viewBox="0 0 20 20" fill="none" xmlns="http://www.w3.org/2000/svg">
    <path
        d="M2.07889 9.13392C1.68524 9.13505 1.29996 9.25048 0.967604 9.46687C0.635248 9.68325 0.369406 9.99175 0.200833 10.3567C0.0322592 10.7216 -0.0321563 11.128 0.0150386 11.5289C0.0622334 11.9298 0.21911 12.3088 0.467518 12.622L5.76301 19.2765C5.95182 19.517 6.19384 19.7078 6.46898 19.8331C6.74411 19.9584 7.04442 20.0145 7.34494 19.9968C7.9877 19.9614 8.568 19.6087 8.93798 19.0287L19.9381 0.855659C19.9399 0.852644 19.9417 0.84963 19.9437 0.84666C20.0469 0.684093 20.0134 0.36193 19.8004 0.159542C19.7419 0.103964 19.6729 0.061265 19.5976 0.0340739C19.5224 0.00688283 19.4426 -0.00422434 19.363 0.00143671C19.2835 0.00709776 19.2059 0.0294072 19.135 0.0669907C19.0642 0.104574 19.0016 0.156636 18.9511 0.219971C18.9472 0.22495 18.9431 0.229855 18.9389 0.234684L7.84519 13.0926C7.80298 13.1415 7.75171 13.1814 7.69436 13.2098C7.63701 13.2382 7.57473 13.2547 7.51113 13.2582C7.44753 13.2618 7.38388 13.2523 7.32387 13.2304C7.26387 13.2084 7.20871 13.1745 7.1616 13.1305L3.4798 9.69356C3.09741 9.33398 2.59763 9.13432 2.07889 9.13392Z"
        fill="#000F44" />
</svg>