<svg width="19" height="19" viewBox="0 0 19 19" fill="none" xmlns="http://www.w3.org/2000/svg">
    <path
        d="M15.5393 5.43267C15.6438 4.89268 15.6275 4.33628 15.4917 3.80331C15.3559 3.27035 15.1038 2.77399 14.7537 2.34978C14.4035 1.92556 13.9639 1.58399 13.4663 1.3495C12.9686 1.11502 12.4253 0.993423 11.8751 0.993423C11.325 0.993423 10.7816 1.11502 10.284 1.3495C9.78634 1.58399 9.3467 1.92556 8.99655 2.34978C8.6464 2.77399 8.39439 3.27035 8.25857 3.80331C8.12275 4.33628 8.10647 4.89268 8.2109 5.43267H15.5393Z"
        fill="#FFAE00" />
    <path
        d="M19 13.5731V11.538C19 11.448 18.9643 11.3617 18.9006 11.2981C18.837 11.2345 18.7507 11.1988 18.6607 11.1988H16.625C16.2651 11.1988 15.9199 11.3417 15.6654 11.5962C15.4109 11.8506 15.2679 12.1957 15.2679 12.5555C15.2679 12.9153 15.4109 13.2604 15.6654 13.5149C15.9199 13.7693 16.2651 13.9123 16.625 13.9123H18.6607C18.7507 13.9123 18.837 13.8765 18.9006 13.8129C18.9643 13.7493 19 13.663 19 13.5731Z"
        fill="#FFAE00" />
    <path
        d="M9.42009 1.09282C8.79164 0.464014 7.95909 0.0804391 7.07264 0.0112979C6.18618 -0.0578432 5.3042 0.192002 4.58579 0.715761C3.86739 1.23952 3.35988 2.0027 3.1548 2.86763C2.94973 3.73256 3.06061 4.64228 3.46743 5.43267H7.5225C7.48578 5.20837 7.46639 4.98158 7.46448 4.75431C7.46324 4.03012 7.64114 3.31687 7.98234 2.67804C8.32353 2.03922 8.81744 1.49465 9.42009 1.09282Z"
        fill="#FFAE00" />
    <path
        d="M17.9822 5.43267V3.05839C17.9822 2.96843 17.9464 2.88216 17.8828 2.81855C17.8192 2.75494 17.7329 2.71921 17.6429 2.71921H15.788C16.1161 3.34735 16.2869 4.04568 16.2858 4.75431C16.2839 4.98158 16.2645 5.20837 16.2277 5.43267H17.9822Z"
        fill="#FFAE00" />
    <path
        d="M4.41097 9.16369C4.78572 9.16369 5.08953 8.85997 5.08953 8.48532C5.08953 8.11067 4.78572 7.80695 4.41097 7.80695C4.03621 7.80695 3.73241 8.11067 3.73241 8.48532C3.73241 8.85997 4.03621 9.16369 4.41097 9.16369Z"
        fill="#FFAE00" />
    <path
        d="M7.1252 13.2339C7.49996 13.2339 7.80376 12.9302 7.80376 12.5555C7.80376 12.1809 7.49996 11.8772 7.1252 11.8772C6.75045 11.8772 6.44664 12.1809 6.44664 12.5555C6.44664 12.9302 6.75045 13.2339 7.1252 13.2339Z"
        fill="#FFAE00" />
    <path
        d="M2.75935 15.174C2.69528 15.0976 2.61523 15.0361 2.52485 14.9939C2.43447 14.9517 2.33593 14.9298 2.23618 14.9298H0.000326293V17.6433C0.000326293 18.0031 0.143308 18.3482 0.397817 18.6026C0.652327 18.8571 0.997515 19 1.35745 19H17.9822C18.0721 19 18.1584 18.9643 18.2221 18.9007C18.2857 18.837 18.3214 18.7508 18.3214 18.6608V14.5906H16.625C16.0851 14.5906 15.5674 14.3762 15.1856 13.9946C14.8038 13.6129 14.5894 13.0953 14.5894 12.5555C14.5894 12.0158 14.8038 11.4981 15.1856 11.1165C15.5674 10.7348 16.0851 10.5204 16.625 10.5204H18.3214V6.45022C18.3214 6.36027 18.2857 6.27399 18.2221 6.21038C18.1584 6.14677 18.0721 6.11104 17.9822 6.11104H1.42869C0.902192 6.11094 0.393999 5.91785 0.000326293 5.56835V10.1812H2.23618C2.33617 10.1812 2.43493 10.1591 2.5255 10.1168C2.61606 10.0744 2.69624 10.0127 2.76037 9.93601L3.31102 9.27392C3.11285 9.0028 3.02054 8.66866 3.05145 8.33429C3.08235 7.99992 3.23434 7.68835 3.47885 7.45812C3.72336 7.22789 4.04355 7.09485 4.37927 7.08401C4.71498 7.07317 5.0431 7.18527 5.30196 7.39925C5.56082 7.61323 5.7326 7.91435 5.78502 8.24603C5.83744 8.5777 5.7669 8.9171 5.58664 9.20045C5.40638 9.48379 5.12882 9.69156 4.80612 9.78473C4.48342 9.87789 4.13779 9.85003 3.83419 9.70638L3.28082 10.3712C3.15312 10.5241 2.99336 10.6472 2.81284 10.7316C2.63233 10.816 2.43546 10.8597 2.23618 10.8596H0.000326293V12.2163H5.81626C5.89884 11.8966 6.09523 11.618 6.36861 11.4326C6.642 11.2473 6.97361 11.168 7.30129 11.2096C7.62897 11.2512 7.93022 11.4109 8.14858 11.6586C8.36694 11.9064 8.48741 12.2253 8.48741 12.5555C8.48741 12.8857 8.36694 13.2046 8.14858 13.4524C7.93022 13.7002 7.62897 13.8598 7.30129 13.9014C6.97361 13.943 6.642 13.8638 6.36861 13.6784C6.09523 13.4931 5.89884 13.2144 5.81626 12.8947H0.000326293V14.2514H2.23618C2.43527 14.2512 2.63197 14.2948 2.81233 14.3791C2.99269 14.4634 3.15229 14.5863 3.27981 14.7392L3.83419 15.4047C4.01392 15.317 4.21099 15.2706 4.41097 15.269C4.71797 15.2669 5.01672 15.3683 5.25903 15.5568C5.50135 15.7453 5.6731 16.0098 5.74661 16.3078C5.82012 16.6058 5.79109 16.9199 5.6642 17.1994C5.53731 17.4788 5.31997 17.7075 5.04721 17.8483C4.77445 17.9892 4.46218 18.0342 4.16075 17.9759C3.85932 17.9177 3.5863 17.7596 3.38571 17.5272C3.18513 17.2949 3.06867 17.0018 3.05512 16.6951C3.04157 16.3885 3.13171 16.0863 3.31102 15.8371L2.75935 15.174Z"
        fill="#FFAE00" />
    <path
        d="M4.41097 17.3041C4.78572 17.3041 5.08953 17.0004 5.08953 16.6257C5.08953 16.2511 4.78572 15.9474 4.41097 15.9474C4.03621 15.9474 3.73241 16.2511 3.73241 16.6257C3.73241 17.0004 4.03621 17.3041 4.41097 17.3041Z"
        fill="#FFAE00" />
    <path
        d="M0.000326297 4.07933C-0.000690331 4.11997 0.000669135 4.16062 0.00439768 4.2011C0.0483168 4.54575 0.217974 4.86205 0.480826 5.08934C0.743679 5.31662 1.08122 5.43888 1.42869 5.43267H2.71253C2.35406 4.57403 2.27906 3.62342 2.49844 2.71921H1.35745C0.997956 2.72064 0.653597 2.86404 0.399397 3.11816C0.145197 3.37229 0.0017557 3.71655 0.000326297 4.07594V4.07933Z"
        fill="#FFAE00" />
</svg>