<svg width="16" height="15" viewBox="0 0 16 15" fill="none" xmlns="http://www.w3.org/2000/svg">
    <g clip-path="url(#a)" fill="#fff">
        <path
            d="M.157 4.184 7.844.039a.331.331 0 0 1 .312 0l7.687 4.145a.29.29 0 0 1 .157.254v10.27c0 .16-.14.292-.313.292H.313C.14 15 0 14.87 0 14.707V4.437a.29.29 0 0 1 .157-.253Zm10.738 9.918c0 .172.15.312.333.312.184 0 .333-.14.333-.312v-.473h-.666v.473Zm-6.456 0c0 .172.15.312.333.312.184 0 .333-.14.333-.312v-.473h-.666v.473Zm-.313-1.059h2.827c.173 0 .313.131.313.293 0 .162-.14.293-.313.293H5.73v.473c0 .11-.021.215-.06.312h4.66a.84.84 0 0 1-.06-.312v-.473H9.212c-.173 0-.313-.131-.313-.293 0-.162.14-.293.313-.293h2.913c.172 0 .313-.131.313-.293v-1.032a.282.282 0 0 0-.08-.195l-.79-.83H4.433l-.791.83a.282.282 0 0 0-.08.195v1.032c0 .162.14.293.313.293h.251Zm2.75-3.43a.323.323 0 0 1-.221.086.323.323 0 0 1-.22-.086L5.15 8.41a1.202 1.202 0 0 0-.145.35l-.323 1.348H8.88L6.416 7.797H6.29c-.259 0-.501.07-.706.19L6.876 9.2a.28.28 0 0 1 0 .414Zm2.889.495h1.552l-.323-1.348c-.136-.567-.664-.963-1.284-.963H7.3l2.465 2.31Zm-9.14 4.306h1.063V5.801c0-.162.14-.293.312-.293h1.031c.173 0 .313.131.313.293 0 .162-.14.293-.313.293h-.719v8.32h1.561a.84.84 0 0 1-.06-.312v-.475c-.488-.03-.876-.412-.876-.877v-1.032a.85.85 0 0 1 .239-.586l.83-.87.39-1.63c.2-.837.979-1.42 1.894-1.42h3.42c.914 0 1.693.583 1.893 1.42l.391 1.63.83.87a.85.85 0 0 1 .239.586v1.033c0 .465-.388.847-.877.876v.475c0 .11-.021.215-.06.313h1.562V6.094H5.624c-.173 0-.313-.131-.313-.293 0-.162.14-.293.313-.293H14c.172 0 .313.131.313.293v8.613h1.062V4.607L8 .631.625 4.607v9.807Z" />
        <path
            d="M4.072 5.594a.325.325 0 0 1 .442 0c.058.054.091.13.091.207a.286.286 0 0 1-.091.207.326.326 0 0 1-.442 0A.285.285 0 0 1 3.98 5.8c0-.077.034-.153.092-.207ZM7.996 2.27c.724 0 1.313.552 1.313 1.23 0 .679-.59 1.23-1.313 1.23-.724 0-1.312-.551-1.312-1.23 0-.678.588-1.23 1.312-1.23Zm0 1.875c.38 0 .688-.29.688-.645 0-.355-.309-.644-.688-.644-.379 0-.687.289-.687.644 0 .355.308.645.687.645Zm-.216 8.984a.326.326 0 0 1 .44 0c.06.054.092.13.092.207a.286.286 0 0 1-.091.207.326.326 0 0 1-.442 0 .286.286 0 0 1-.091-.207c0-.077.033-.153.091-.207Zm-1.561-1.615h3.554c.173 0 .313.13.313.293 0 .161-.14.293-.313.293H6.22c-.173 0-.313-.132-.313-.293 0-.162.14-.293.313-.293Zm4.966.086a.326.326 0 0 1 .442 0c.058.054.092.13.092.207a.286.286 0 0 1-.092.207.326.326 0 0 1-.442 0 .286.286 0 0 1-.091-.207c0-.077.033-.153.091-.207Zm-6.905 0a.326.326 0 0 1 .44 0 .28.28 0 0 1 .093.207.286.286 0 0 1-.092.207.326.326 0 0 1-.442 0 .286.286 0 0 1-.091-.207c0-.077.033-.153.091-.207Z" />
    </g>
    <defs>
        <clipPath id="a">
            <path fill="#fff" d="M16 0H0v15h16z" />
        </clipPath>
    </defs>
</svg>