<svg width="48" height="42" viewBox="0 0 48 42" fill="none" xmlns="http://www.w3.org/2000/svg">
    <path
        d="M27.5251 23.4081C26.2304 23.4081 25.1771 22.3278 25.1771 21C25.1771 19.6721 26.2304 18.5918 27.5251 18.5918C28.8197 18.5918 29.873 19.6721 29.873 21C29.873 22.3278 28.8197 23.4081 27.5251 23.4081Z"
        fill="#FFAE00" />
    <path
        d="M29.0803 30.7079V26.3653C30.2861 25.997 31.3183 25.2125 32.0177 24.1741L36.0449 25.5162C34.6753 28.2232 32.1151 30.1984 29.0803 30.7079Z"
        fill="#FFAE00" />
    <path
        d="M37.0083 22.4831L32.9799 21.1406C32.981 21.0937 32.9835 21.0471 32.9835 21C32.9835 19.7214 32.5625 18.5424 31.8566 17.5989L34.3438 14.0879C36.0574 15.866 37.1172 18.3083 37.1172 21C37.1172 21.504 37.0799 21.9993 37.0083 22.4831Z"
        fill="#FFAE00" />
    <path
        d="M27.5251 42H8.60524C7.74639 42 7.05011 41.2859 7.05011 40.405C7.05011 39.5241 7.74639 38.81 8.60524 38.81H16.6889C14.9834 37.7145 13.4457 36.3691 12.1252 34.8234H1.55513C0.696283 34.8233 0 34.1091 0 33.2282C0 32.3473 0.696283 31.6332 1.55513 31.6332H9.87546C8.08127 28.5124 7.05001 24.8776 7.05001 21C7.05001 16.488 8.44492 12.3039 10.8151 8.87708H6.40267C5.54382 8.87708 4.84754 8.16294 4.84754 7.28207C4.84754 6.4012 5.54382 5.68706 6.40267 5.68706H13.5295C14.4991 4.75417 15.5571 3.91705 16.6889 3.19002H1.71553C0.856689 3.19002 0.160407 2.47588 0.160407 1.59501C0.160407 0.714142 0.856689 0 1.71553 0H27.5251C38.8151 0 48 9.42064 48 21C48 32.5795 38.815 42 27.5251 42ZM35.0793 10.5326C35.0507 10.5078 35.0223 10.4828 34.9914 10.46C34.9567 10.4341 34.9212 10.41 34.8853 10.3875C32.8074 8.86718 30.2663 7.97179 27.5251 7.97179C24.7838 7.97179 22.2428 8.86718 20.1648 10.3875C20.1288 10.41 20.0934 10.4341 20.0587 10.46C20.0279 10.483 19.9995 10.508 19.9709 10.5326C16.8494 12.9086 14.8226 16.7159 14.8226 21C14.8226 28.1838 20.5209 34.0282 27.5251 34.0282C34.5292 34.0282 40.2275 28.1838 40.2275 21C40.2275 16.7158 38.2008 12.9086 35.0793 10.5326Z"
        fill="#FFAE00" />
    <path
        d="M19.0052 25.5163L23.0323 24.1742C23.7319 25.2125 24.764 25.997 25.9698 26.3654V30.708C22.9351 30.1984 20.3749 28.2233 19.0052 25.5163Z"
        fill="#FFAE00" />
    <path
        d="M29.3418 15.7215C28.7732 15.515 28.162 15.4015 27.5251 15.4015C26.8883 15.4015 26.277 15.515 25.7083 15.7215L23.2205 12.2098C24.5158 11.5399 25.9781 11.1618 27.5251 11.1618C29.072 11.1618 30.5343 11.5398 31.8296 12.2098L29.3418 15.7215Z"
        fill="#FFAE00" />
    <path
        d="M22.0667 21C22.0667 21.0471 22.069 21.0937 22.0701 21.1406L18.0418 22.4831C17.9701 21.9993 17.9328 21.504 17.9328 21C17.9328 18.3082 18.9927 15.8659 20.7063 14.0877L23.1935 17.5989C22.4877 18.5423 22.0667 19.7214 22.0667 21Z"
        fill="#FFAE00" />
</svg>