<svg width="20" height="20" viewBox="0 0 20 20" fill="none" xmlns="http://www.w3.org/2000/svg">
    <path
        d="M7.46631 18.3345C7.90068 19.3113 8.86389 20.0001 10.0007 20.0001C11.1375 20.0001 12.1007 19.3113 12.5351 18.3345C11.7335 18.3737 10.8999 18.4001 10.0007 18.4001C9.1015 18.4001 8.26791 18.3737 7.46631 18.3345Z"
        fill="#23D0FF" />
    <path
        d="M18.8238 14.1C17.7694 12.7704 15.9998 10.1568 15.9998 7.6C15.9998 5.0648 14.371 2.78398 11.9998 1.94559C11.971 0.867187 11.0846 0 10.0006 0C8.91576 0 8.03018 0.867187 8.00135 1.94559C5.62936 2.78398 4.00057 5.0648 4.00057 7.6C4.00057 10.1576 2.23178 12.7704 1.17659 14.1C0.824594 14.544 0.715766 15.1304 0.886195 15.6688C1.0526 16.1944 1.46698 16.6016 1.99498 16.7568C2.91979 17.0296 4.43577 17.3368 6.7478 17.4936C7.74858 17.5608 8.82459 17.6 10.0006 17.6C11.1758 17.6 12.2518 17.5608 13.2526 17.4936C15.5654 17.3368 17.0806 17.0296 18.0062 16.7568C18.5342 16.6016 18.9478 16.1944 19.1142 15.6688C19.2846 15.1304 19.175 14.544 18.8238 14.1Z"
        fill="#23D0FF" />
</svg>