<svg width="48" height="35" viewBox="0 0 48 35" fill="none" xmlns="http://www.w3.org/2000/svg">
    <path
        d="M47.707 3.04956L44.8691 0.285742C44.6816 0.102539 44.4277 0 44.162 0C43.8964 0 43.6424 0.102539 43.4549 0.284831L37.4315 6.14669C36.9901 6.57581 36.1034 6.5749 35.662 6.1476C34.3495 4.86682 32.4765 4.13292 30.5233 4.13292C30.5233 4.13292 30.5233 4.13292 30.5213 4.13292C28.6578 4.13292 26.8799 4.81879 25.5791 5.99393L24.7069 5.146C24.3163 4.7662 23.6835 4.7662 23.2929 5.146L22.3906 6.02237C20.8612 4.75581 18.4023 4.84312 16.9726 6.23602L4.41405 18.4447C3.65814 19.1796 3.24217 20.1556 3.24217 21.1943C3.24217 22.1286 3.57808 23.0116 4.19533 23.7131L3.29299 24.5904C2.90233 24.9702 2.90233 25.5855 3.29299 25.9652L4.16214 26.8102L0.292992 30.5766C-0.0976639 30.9564 -0.0976639 31.5716 0.292992 31.9504L3.13089 34.7143C3.31839 34.8975 3.57227 35 3.83795 35C4.10364 35 4.35752 34.8975 4.54502 34.7152L8.4166 30.9464L9.29307 31.7985C9.48835 31.9884 9.74429 32.0833 10.0001 32.0833C10.256 32.0833 10.5118 31.9884 10.7072 31.7985L11.6095 30.9221C13.1369 32.1877 15.5959 32.0985 17.0275 30.7085L29.5861 18.4997C30.342 17.7648 30.7579 16.7888 30.7579 15.7501C30.7579 14.8158 30.422 13.9328 29.8048 13.2313L30.7071 12.354C31.0978 11.9742 31.0978 11.359 30.7071 10.9792L29.8548 10.1505C30.3323 9.86335 31.0068 9.89242 31.4084 10.2843C32.7209 11.565 34.5939 12.2999 36.5471 12.2999C38.5002 12.2999 40.3733 11.565 41.6838 10.2853L47.7073 4.4234C48.0976 4.04368 48.0976 3.42845 47.707 3.04956ZM20.5176 11.0391L14.2168 17.1639C14.0215 17.3538 13.7656 17.4488 13.5098 17.4488C13.2539 17.4488 12.9981 17.3538 12.8027 17.1639C12.412 16.7841 12.412 16.1689 12.8027 15.7892L19.1034 9.66438C19.4941 9.28457 20.1269 9.28457 20.5175 9.66438C20.9082 10.0441 20.9082 10.6593 20.5176 11.0391Z"
        fill="#FFAE00" />
</svg>