<svg width="16" height="16" viewBox="0 0 16 16" fill="none" xmlns="http://www.w3.org/2000/svg">
    <g clip-path="url(#a)" fill="#fff">
        <path
            d="M15.954 2.561 14.299.121a.278.278 0 0 0-.23-.121H1.931a.278.278 0 0 0-.23.12L.046 2.562a.27.27 0 0 0-.046.15v.814c0 .644.462 1.2 1.103 1.329v9.247c0 .15.124.271.276.271H4.91l2.676 1.519a.84.84 0 0 0 .828 0l2.676-1.519h3.53a.274.274 0 0 0 .277-.27v-9.25A1.364 1.364 0 0 0 16 3.525v-.813a.27.27 0 0 0-.046-.15ZM2.079.542H13.92l1.288 1.899H.791L2.079.542Zm11.162 2.44v.543a.82.82 0 0 1-.827.814.82.82 0 0 1-.828-.814v-.542h1.655Zm-2.207 0v.543a.82.82 0 0 1-.827.814.82.82 0 0 1-.828-.814v-.542h1.655Zm-2.206 0v.543A.82.82 0 0 1 8 4.34a.82.82 0 0 1-.828-.814v-.542h1.656Zm-2.207 0v.543a.82.82 0 0 1-.828.814.82.82 0 0 1-.827-.814v-.542H6.62Zm-2.207 0v.543a.82.82 0 0 1-.828.814.82.82 0 0 1-.827-.814v-.542h1.655Zm-3.862.543v-.542h1.655v.542a.82.82 0 0 1-.828.814.82.82 0 0 1-.827-.814Zm7.586 11.896a.28.28 0 0 1-.276 0L4 13.229a.27.27 0 0 1-.138-.235V8.7A.27.27 0 0 1 4 8.465l3.862-2.192a.28.28 0 0 1 .276 0L12 8.465a.27.27 0 0 1 .138.235v4.294a.27.27 0 0 1-.138.235L8.138 15.42Zm3.906-1.591.232-.132a.81.81 0 0 0 .414-.705V8.7c0-.29-.158-.56-.414-.705L8.414 5.803a.84.84 0 0 0-.828 0L3.724 7.995a.81.81 0 0 0-.414.705v4.294c0 .29.158.56.414.705l.232.131h-2.3V4.851c.33-.068.625-.253.827-.52a1.382 1.382 0 0 0 2.207 0 1.382 1.382 0 0 0 2.207 0 1.382 1.382 0 0 0 2.206 0 1.382 1.382 0 0 0 2.207 0 1.382 1.382 0 0 0 2.207 0c.202.267.496.452.828.52v8.979h-2.3Zm3.404-10.305a.82.82 0 0 1-.827.814.82.82 0 0 1-.828-.814v-.542h1.655v.542Z" />
        <path
            d="m9.241 7.848-1.103-.626a.28.28 0 0 0-.276 0l-.276.157a.27.27 0 0 0-.138.235V14.1c0 .15.124.271.276.271a.274.274 0 0 0 .276-.27v-2.848h.965a.274.274 0 0 0 .276-.271.274.274 0 0 0-.276-.272H8V7.77l.965.547c.133.075.301.03.377-.099a.269.269 0 0 0-.1-.37Zm2.207 1.253-1.379-.783a.278.278 0 0 0-.377.1.269.269 0 0 0 .101.37l.414.235v3.993c0 .15.124.272.276.272a.274.274 0 0 0 .276-.272v-3.68l.414.235c.131.075.3.032.377-.097a.269.269 0 0 0-.098-.371l-.003-.002ZM6.483 8.27a.273.273 0 0 0-.276.272v3.473l-1.124-2.76a.277.277 0 0 0-.531.1v3.526c0 .15.123.271.276.271a.273.273 0 0 0 .275-.27v-2.118l1.124 2.76a.277.277 0 0 0 .532-.1V8.542a.273.273 0 0 0-.276-.271Z" />
    </g>
    <defs>
        <clipPath id="a">
            <path fill="#fff" d="M0 0h16v16H0z" />
        </clipPath>
    </defs>
</svg>