<svg width="45" height="45" viewBox="0 0 45 45" fill="none" xmlns="http://www.w3.org/2000/svg"><circle cx="22.5" cy="22.5" r="22" stroke="#EFB627"/><path d="M28.54 18.433a3.73 3.73 0 0 0-3.665-4.44 3.733 3.733 0 0 0-3.664 4.44h7.328Zm3.46 8.14v-2.035a.339.339 0 0 0-.34-.34h-2.035a1.357 1.357 0 1 0 0 2.714h2.036a.34.34 0 0 0 .339-.339Z" fill="#EFB627"/><path d="M22.42 14.093a3.729 3.729 0 0 0-5.953 4.34h4.056a4.43 4.43 0 0 1-.058-.679 4.39 4.39 0 0 1 1.955-3.661Zm8.562 4.34v-2.375a.34.34 0 0 0-.34-.339h-1.854c.328.628.499 1.327.498 2.035a4.418 4.418 0 0 1-.058.679h1.754Zm-13.571 3.731a.678.678 0 1 0 0-1.357.678.678 0 0 0 0 1.357Zm2.714 4.07a.678.678 0 1 0 0-1.357.678.678 0 0 0 0 1.357Z" fill="#EFB627"/><path d="M15.76 28.174a.684.684 0 0 0-.524-.244H13v2.713A1.356 1.356 0 0 0 14.357 32h16.625a.34.34 0 0 0 .34-.34v-4.07h-1.697a2.036 2.036 0 1 1 0-4.07h1.696v-4.07a.34.34 0 0 0-.339-.339H14.43a2.152 2.152 0 0 1-1.43-.543v4.613h2.236a.684.684 0 0 0 .524-.245l.551-.662a1.377 1.377 0 1 1 .523.432l-.553.665a1.36 1.36 0 0 1-1.045.489H13v1.356h5.816a1.357 1.357 0 1 1 0 .679H13v1.356h2.236a1.357 1.357 0 0 1 1.044.488l.554.666a1.34 1.34 0 0 1 .577-.136 1.366 1.366 0 1 1-1.1.568l-.552-.663Z" fill="#EFB627"/><path d="M17.411 30.304a.678.678 0 1 0 0-1.357.678.678 0 0 0 0 1.357ZM13 17.08c0 .04 0 .08.004.121a1.41 1.41 0 0 0 1.425 1.232h1.284a4.37 4.37 0 0 1-.215-2.714h-1.14A1.362 1.362 0 0 0 13 17.076v.003Z" fill="#EFB627"/></svg>