<svg width="15" height="15" viewBox="0 0 15 15" fill="none" xmlns="http://www.w3.org/2000/svg">
    <g clip-path="url(#a)">
        <mask id="b" style="mask-type:luminance" maskUnits="userSpaceOnUse" x="0" y="0" width="15" height="15">
            <path d="M15 0H0v15h15V0Z" fill="#fff" />
        </mask>
        <g mask="url(#b)" fill="#fff">
            <path d="M3.105 2.344a.293.293 0 0 1-.292-.293V.293a.293.293 0 0 1 .585 0V2.05a.293.293 0 0 1-.293.293Z" />
            <path
                d="M3.984 1.465H2.226a.293.293 0 0 1 0-.586h1.758a.293.293 0 0 1 0 .586Zm9.844 6.152a.293.293 0 0 1-.293-.293V5.567a.293.293 0 0 1 .586 0v1.757a.293.293 0 0 1-.293.293Z" />
            <path
                d="M14.707 6.738h-1.758a.293.293 0 0 1 0-.585h1.758a.293.293 0 1 1 0 .585ZM8.379 5.86a1.173 1.173 0 0 1-1.172-1.172.293.293 0 0 1 .586 0 .587.587 0 1 0 .586-.586A1.173 1.173 0 0 1 7.207 2.93c0-.646.526-1.172 1.172-1.172.646 0 1.172.526 1.172 1.172a.293.293 0 0 1-.586 0 .587.587 0 1 0-.586.586c.646 0 1.172.526 1.172 1.172 0 .646-.526 1.171-1.172 1.171Z" />
            <path
                d="M8.379 2.344a.293.293 0 0 1-.293-.293V.293a.293.293 0 0 1 .586 0V2.05a.293.293 0 0 1-.293.293Zm0 5.273a.293.293 0 0 1-.293-.293V5.567a.293.293 0 0 1 .586 0v1.757a.293.293 0 0 1-.293.293Zm1.054 4.746a.293.293 0 0 1 0-.585.587.587 0 0 0 0-1.173H6.445a.292.292 0 0 1-.218-.097c-.007-.007-.715-.781-1.54-.781-.825 0-1.533.774-1.54.781a.293.293 0 0 1-.436-.391c.036-.04.887-.976 1.976-.976.894 0 1.627.63 1.882.879h2.864a1.173 1.173 0 0 1 0 2.343Z" />
            <path
                d="M8.379 7.617A3.813 3.813 0 0 1 4.57 3.81C4.57 1.709 6.28 0 8.38 0s3.808 1.709 3.808 3.808c0 2.1-1.708 3.809-3.808 3.809Zm0-7.031a3.226 3.226 0 0 0-3.223 3.223A3.226 3.226 0 0 0 8.38 7.03a3.226 3.226 0 0 0 3.223-3.222A3.226 3.226 0 0 0 8.378.586ZM6.152 14.297a.293.293 0 1 1-.586 0 .293.293 0 0 1 .586 0ZM8.7 15a4.2 4.2 0 0 1-.687-.057l-.9-.144a.293.293 0 1 1 .094-.579l.901.145a3.6 3.6 0 0 0 2.887-.78c.002 0 .005-.003.007-.005l3.193-2.496c.123-.1.2-.242.216-.4a.585.585 0 0 0-.134-.436.587.587 0 0 0-.816-.089l-2.576 2.137a.293.293 0 0 1-.187.067H6.885a.293.293 0 0 1 0-.585h3.707l2.498-2.072.006-.005a1.17 1.17 0 0 1 .85-.245 1.172 1.172 0 0 1 1.048 1.286c-.032.316-.186.6-.434.8l-.003.002-3.191 2.495A4.183 4.183 0 0 1 8.7 15Zm-5.77 0H.293A.293.293 0 0 1 0 14.707V9.434c0-.162.131-.293.293-.293H2.05c.646 0 1.171.525 1.171 1.172v3.266l1.382.222a.293.293 0 1 1-.093.578l-1.289-.207v.535A.293.293 0 0 1 2.93 15Zm-2.344-.586h2.05v-4.102a.587.587 0 0 0-.585-.586H.586v4.688Z" />
        </g>
    </g>
    <defs>
        <clipPath id="a">
            <path fill="#fff" d="M0 0h15v15H0z" />
        </clipPath>
    </defs>
</svg>