<svg width="34" height="34" viewBox="0 0 34 34" fill="none" xmlns="http://www.w3.org/2000/svg">
    <path
        d="M4.58026 27.9871L13.6469 33.1165C14.6699 33.6956 15.8253 34 17.0007 34C18.1762 34 19.3316 33.6956 20.3546 33.1165L29.4212 27.9871C30.4656 27.3949 31.3345 26.5368 31.9397 25.5C32.545 24.4632 32.865 23.2846 32.8671 22.0841V11.9164C32.8655 10.7157 32.5457 9.53687 31.9403 8.49996C31.3349 7.46305 30.4655 6.60509 29.4207 6.01345L20.354 0.883979C19.3274 0.315316 18.1732 0.0169678 16.9996 0.0169678C15.8261 0.0169678 14.6718 0.315316 13.6452 0.883979L4.57856 6.01401C3.53413 6.60582 2.66514 7.46379 2.06005 8.50058C1.45496 9.53737 1.13536 10.716 1.13379 11.9164V22.0841C1.13555 23.2848 1.4554 24.4636 2.0608 25.5005C2.66619 26.5374 3.53551 27.3953 4.58026 27.9871ZM2.26712 11.9164C2.26857 10.9164 2.53499 9.93455 3.03926 9.07095C3.54353 8.20734 4.26763 7.49278 5.13786 7.00001L14.2045 1.86941C15.0574 1.38669 16.0207 1.13299 17.0007 1.13299C17.9808 1.13299 18.9441 1.38669 19.797 1.86941L28.8636 6.99945C29.7338 7.49233 30.4579 8.20701 30.962 9.07072C31.4662 9.93443 31.7325 10.9163 31.7338 11.9164V22.0841C31.7322 23.0841 31.4658 24.0658 30.9617 24.9293C30.4575 25.7929 29.7336 26.5075 28.8636 27.0005L19.797 32.1305C18.9413 32.6041 17.9793 32.8526 17.0013 32.8526C16.0233 32.8526 15.0613 32.6041 14.2057 32.1305L5.13899 27.0005C4.2686 26.5078 3.54429 25.7933 3.03983 24.9297C2.53536 24.0661 2.26874 23.0843 2.26712 22.0841V11.9164Z"
        fill="#21D0FF" />
    <path
        d="M5.97506 25.521L15.0417 30.651C15.6397 30.9872 16.3141 31.1639 17.0001 31.1639C17.6861 31.1639 18.3606 30.9872 18.9585 30.651L28.0252 25.521C28.6338 25.1767 29.1402 24.6772 29.493 24.0735C29.8458 23.4698 30.0323 22.7834 30.0335 22.0841V11.9164C30.0323 11.2172 29.8459 10.5308 29.4931 9.92703C29.1403 9.3233 28.6338 8.82387 28.0252 8.47961L18.9585 3.34901C18.3606 3.01271 17.6861 2.83606 17.0001 2.83606C16.3141 2.83606 15.6397 3.01271 15.0417 3.34901L5.97506 8.47961C5.36644 8.82387 4.85994 9.3233 4.50716 9.92703C4.15438 10.5308 3.96793 11.2172 3.9668 11.9164V22.0841C3.96799 22.7834 4.15446 23.4698 4.50724 24.0735C4.86001 24.6772 5.36648 25.1767 5.97506 25.521ZM5.10013 11.9164C5.10074 11.4174 5.23365 10.9275 5.4853 10.4965C5.73695 10.0656 6.09835 9.7091 6.53266 9.46334L15.5993 4.33274C16.0272 4.09274 16.5095 3.9667 17.0001 3.9667C17.4907 3.9667 17.9731 4.09274 18.4009 4.33274L27.4676 9.46334C27.9019 9.7091 28.2633 10.0656 28.515 10.4965C28.7666 10.9275 28.8995 11.4174 28.9001 11.9164V22.0841C28.8994 22.5831 28.7664 23.0729 28.5147 23.5037C28.2631 23.9345 27.9018 24.2909 27.4676 24.5367L18.4009 29.6667C17.973 29.9067 17.4907 30.0327 17.0001 30.0327C16.5096 30.0327 16.0272 29.9067 15.5993 29.6667L6.53266 24.5367C6.09847 24.2909 5.73715 23.9345 5.48551 23.5037C5.23388 23.0729 5.1009 22.5831 5.10013 22.0841V11.9164Z"
        fill="#21D0FF" />
    <path
        d="M9.02839 22.9064L15.9361 26.9167C16.2605 27.1035 16.6282 27.2018 17.0025 27.2018C17.3768 27.2018 17.7446 27.1035 18.069 26.9167L24.9784 22.9053C25.3104 22.7055 25.5851 22.4232 25.7758 22.0859C25.9665 21.7486 26.0668 21.3678 26.0669 20.9803V13.022C26.0665 12.6349 25.966 12.2545 25.7751 11.9177C25.5843 11.5809 25.3096 11.2992 24.9778 11.0999L24.9721 11.0965L18.0645 7.08619C17.7401 6.89921 17.3724 6.80078 16.998 6.80078C16.6236 6.80078 16.2558 6.89921 15.9315 7.08619L9.02273 11.0999C8.69088 11.2992 8.41621 11.5809 8.22538 11.9177C8.03454 12.2545 7.93403 12.6349 7.93359 13.022V20.9803C7.93454 21.3685 8.03584 21.7498 8.22767 22.0873C8.4195 22.4248 8.69534 22.707 9.02839 22.9064ZM17.5046 25.9313C17.3518 26.0189 17.1787 26.0651 17.0025 26.0651C16.8264 26.0651 16.6533 26.0189 16.5005 25.9313L9.60299 21.93C9.58146 21.917 9.56559 21.8983 9.54633 21.8841L11.9263 20.5343C11.9841 20.5865 12.0456 20.6342 12.1105 20.6771L16.2579 23.0379C16.4866 23.1662 16.7444 23.2333 17.0066 23.2328C17.2688 23.2323 17.5264 23.1642 17.7545 23.035L21.8968 20.6771L21.9019 20.6737C21.965 20.6319 22.0248 20.5855 22.081 20.5349L24.461 21.8841C24.4423 21.8972 24.4276 21.9147 24.4077 21.9261L17.5046 25.9313ZM16.8053 11.9522C16.8648 11.9184 16.9319 11.9005 17.0003 11.9C17.0663 11.9 17.1313 11.917 17.189 11.9493L21.0072 14.1225L17.0003 16.3506L12.9922 14.1225L16.8053 11.9522ZM12.4669 15.13L16.4336 17.3355V21.8382L12.6732 19.6979C12.6106 19.6614 12.5586 19.6091 12.5224 19.5463C12.4863 19.4835 12.4671 19.4123 12.4669 19.3398V15.13ZM17.5669 17.3355L21.5336 15.13V19.3426C21.5329 19.4143 21.5138 19.4846 21.4779 19.5466C21.4421 19.6087 21.3908 19.6604 21.329 19.6968L17.5669 21.8354V17.3355ZM24.4004 12.078C24.5627 12.1764 24.6971 12.3149 24.7904 12.4803C24.8838 12.6456 24.9331 12.8321 24.9336 13.022V20.8534L22.6392 19.55C22.6532 19.4809 22.6625 19.4108 22.6669 19.3404V14.6586C22.6654 14.3877 22.5933 14.1219 22.4577 13.8875C22.322 13.653 22.1275 13.4581 21.8934 13.3218L17.746 10.9616C17.688 10.9335 17.6282 10.9095 17.5669 10.8897V8.10789L24.4004 12.078ZM9.59733 12.078L16.4336 8.10732V10.8902C16.3705 10.9105 16.309 10.9354 16.2494 10.9645L12.1014 13.3252C11.8687 13.4617 11.6755 13.6564 11.5409 13.8902C11.4062 14.124 11.3348 14.3888 11.3336 14.6586V19.3398C11.338 19.4102 11.3473 19.4803 11.3614 19.5495L9.06693 20.8534V13.022C9.06652 12.8322 9.11513 12.6455 9.20805 12.48C9.30098 12.3145 9.43507 12.1764 9.59733 12.078Z"
        fill="#21D0FF" />
</svg>