<svg width="17" height="16" viewBox="0 0 17 16" fill="none" xmlns="http://www.w3.org/2000/svg">
    <g clip-path="url(#a)" fill="#00A3FF">
        <path
            d="M7.758 6.27c-.375.24-.73.465-1.08.699a.415.415 0 0 1-.465.04c-.09-.05-.142-.008-.204.047-.585.52-1.168 1.03-1.761 1.537a4.34 4.34 0 0 1-.43.268.711.711 0 0 0-.232.186c-.467.76-.927 1.527-1.388 2.292-.167.278-.325.32-.607.166l-.597-.337c-.25-.141-.297-.324-.148-.57.472-.781.944-1.558 1.417-2.331a.273.273 0 0 0 .037-.273.859.859 0 0 1-.065-.225.482.482 0 0 1 .012-.271c.115-.213.26-.41.43-.581.684-.601 1.385-1.183 2.077-1.772a.617.617 0 0 0 .109-.19c.03-.08.069-.157.115-.23a12.45 12.45 0 0 0 1.489-2.129c.227-.424.386-.88.472-1.353a.486.486 0 0 1 .13-.27C7.617.483 8.231.118 8.974.02c.444-.065.898-.01 1.312.162a.767.767 0 0 1 .28.296c.2.305.194.307.551.25l3.58-.562a.346.346 0 0 1 .412.2c.095.22.236.26.465.214a9.105 9.105 0 0 1 1.063-.139.332.332 0 0 1 .336.463.327.327 0 0 1-.28.224l-.877.122-.194.031.213.848c.17-.02.358-.052.546-.062a.33.33 0 0 1 .355.39.321.321 0 0 1-.279.292c-.194.033-.389.052-.584.09a.178.178 0 0 0-.115.107.887.887 0 0 1-.272.545c-.032.026-.025.116-.014.17a5.385 5.385 0 0 1-.01 2.394c-.169.75-.619 1.17-1.34 1.343-.544.133-1.1.209-1.66.225a10.439 10.439 0 0 1-3.13-.318 4.536 4.536 0 0 1-.519-.175c-.425-.177-.834-.394-1.055-.86Zm6.143.446c.16-.056.32-.109.477-.169a.488.488 0 0 0 .276-.295c.389-.882.26-1.777.07-2.684l-.536.09a.24.24 0 0 0-.01.046c0 .037.013.072.02.108.109.609.232 1.217.13 1.84-.063.39-.123.78-.428 1.068-.41.025-.818.054-1.227.073-.705.031-1.412.064-2.111-.053-.622-.103-1.2-.289-1.428-.961l-.726.277c.153.128.317.245.488.347.22.106.45.188.686.247a9.82 9.82 0 0 0 3.658.213 6.45 6.45 0 0 0 .66-.147ZM9.27.697c-.648.035-1.167.316-1.63.72a.246.246 0 0 0-.063.139 5.098 5.098 0 0 1-.52 1.395c-.389.753-.908 1.414-1.427 2.07a.309.309 0 0 0-.075.222c.09.445.285.824.718 1.027a.259.259 0 0 0 .207-.014c.26-.152.509-.304.745-.48a2.104 2.104 0 0 1 1.007-.414c.65-.09.993-.45 1.109-1.04.03-.152.039-.31.063-.463.141-.84.385-1.66.727-2.44a.522.522 0 0 0-.38-.674c-.165-.022-.326-.03-.48-.048Zm.897 2.894a.63.63 0 0 0 .082 0l4.404-.717c.44-.072.428-.074.432-.528a2.315 2.315 0 0 0-.39-1.354c-.044-.067-.087-.136-.188-.058.068.117.13.235.201.35.158.277.243.59.246.91a.337.337 0 0 1-.313.373.328.328 0 0 1-.375-.326 1.953 1.953 0 0 0-.467-1.116c-.067-.083-.13-.117-.225-.038.074.115.145.228.22.34.16.256.258.547.284.85a.345.345 0 0 1-.282.414.334.334 0 0 1-.404-.33c-.054-.44-.302-.78-.57-1.102a.129.129 0 0 0-.168-.06.13.13 0 0 0-.05.04c.103.149.208.29.303.438.164.253.26.545.282.846a.327.327 0 0 1-.295.358.329.329 0 0 1-.39-.278c-.063-.495-.357-.852-.682-1.194a.214.214 0 0 0-.16-.052c-.232.03-.46.078-.693.106a.174.174 0 0 0-.162.13c-.12.322-.26.636-.363.961-.104.326-.183.682-.277 1.037Zm2.596 2.518a1.234 1.234 0 0 1-.053-.34.39.39 0 0 0-.213-.442 1.648 1.648 0 0 0-.347-.14 4.682 4.682 0 0 0-1.45-.11c-.293.015-.585.045-.87.068-.139.58.13.73.564.844.261.068.528.106.797.115.525.017 1.051.005 1.568.005h.004ZM4.99 5.871c-.022.016-.047.032-.07.052a537.5 537.5 0 0 0-1.773 1.502 1.02 1.02 0 0 0-.156.191.159.159 0 0 0 .05.251c.13.089.26.167.39.26a.214.214 0 0 0 .314-.019c.24-.213.483-.425.725-.637l.99-.874-.47-.726Zm5.04-1.458h.14c.357-.012.713-.035 1.072-.035.493-.015.984.073 1.441.26.283.109.511.325.636.6a.922.922 0 0 1 0 .81c.205 0 .195 0 .25-.173.23-.708.037-1.394-.077-2.081-.33-.02-3.4.52-3.465.619h.004ZM2.934 8.617l-.062.006-.802 1.321.115.082c.26-.429.52-.849.765-1.274.014-.031-.012-.095-.02-.135h.004Zm-1.32 2.08c.13.121.156.017.197-.067l-.107-.076-.09.143ZM0 14.588c.007-.478.187-.937.507-1.29a2.95 2.95 0 0 0 .544-.882.333.333 0 0 1 .34-.248.345.345 0 0 1 .336.26c.13.318.313.61.542.865.425.49.626 1.053.46 1.7-.18.708-.817 1.098-1.59.998C.47 15.897-.005 15.32 0 14.588Zm1.406-1.301c-.161.2-.313.378-.45.566a1.179 1.179 0 0 0-.268.826.687.687 0 0 0 .6.619.674.674 0 0 0 .757-.46.912.912 0 0 0-.105-.807c-.158-.251-.349-.484-.534-.74v-.004Z" />
    </g>
    <defs>
        <clipPath id="a">
            <path fill="#fff" d="M0 0h17v16H0z" />
        </clipPath>
    </defs>
</svg>