<svg width="48" height="49" viewBox="0 0 48 49" fill="none" xmlns="http://www.w3.org/2000/svg">
    <path
        d="M12.2306 19.5163L17.5529 28.735C17.866 29.2766 18.0548 29.8712 18.1252 30.4799C18.8225 29.2841 20.0042 28.48 21.3731 28.2713L22.4795 28.1023C21.9379 27.7231 21.4708 27.2411 21.1379 26.6655L15.8155 17.4469C14.5452 17.9959 13.3419 18.6907 12.2306 19.5163Z"
        fill="#FFAE00" />
    <path
        d="M12.9767 2.59609L0.786719 9.63516L0.165625 8.55859C5.96046e-08 8.26875 -0.0414063 7.9375 0.0414062 7.61453C0.1325 7.29984 0.33125 7.02656 0.621094 6.86094L10.658 1.06406C10.8567 0.956406 11.0638 0.898438 11.2791 0.898438C11.3867 0.898438 11.4944 0.915 11.602 0.939844C11.925 1.03094 12.19 1.22969 12.3556 1.51953L12.9767 2.59609Z"
        fill="#FFAE00" />
    <path d="M14.633 5.46141L2.44297 12.5005L1.20078 10.3556L13.3908 3.30828L14.633 5.46141Z" fill="#FFAE00" />
    <path
        d="M23.604 27.7943C24.327 27.4804 24.9423 26.9529 25.3473 26.2515L25.9601 25.1898C25.7903 25.1343 25.6719 24.9803 25.6719 24.7998V22.4297H21.5312V24.799C21.5312 24.9795 21.4128 25.1335 21.2431 25.189L21.8559 26.2507C22.2534 26.938 22.8728 27.4755 23.604 27.7943Z"
        fill="#FFAE00" />
    <path
        d="M34.9725 19.5163C33.8612 18.6907 32.6579 17.9959 31.3868 17.446L26.0644 26.6647C25.3688 27.8696 24.1812 28.6804 22.8057 28.8899L21.4981 29.0895C20.3727 29.2609 19.4013 29.9242 18.8316 30.9097L18.3769 31.6964L20.5648 32.9593C21.6753 31.4554 23.7548 30.9751 25.4127 31.9333C26.2748 32.431 26.8917 33.2342 27.1493 34.1949C27.3704 35.0205 27.2875 35.8726 26.9488 36.6445L29.1351 37.9065L29.5889 37.1198C30.1587 36.1343 30.2473 34.9617 29.8324 33.9L29.3512 32.6686C28.8453 31.3734 28.9537 29.9383 29.6494 28.7342L34.9725 19.5163Z"
        fill="#FFAE00" />
    <path
        d="M17.9645 32.4136L15.8942 36.0002L17.4867 36.9194C17.5736 36.9699 17.6399 37.0494 17.6722 37.1446C18.1566 38.5806 19.1413 39.7864 20.4456 40.54C21.749 41.2919 23.2852 41.5428 24.7717 41.2439C24.8711 41.2232 24.9729 41.2405 25.0607 41.2919L26.6532 42.2111L28.7235 38.6245L26.5472 37.3682C25.8292 38.3438 24.7021 38.887 23.5444 38.887C22.9126 38.887 22.2732 38.7264 21.6878 38.3877C20.0307 37.4312 19.4046 35.3898 20.1524 33.6756L17.9645 32.4136Z"
        fill="#FFAE00" />
    <path
        d="M22.1002 37.6713C23.4823 38.468 25.2595 37.9935 26.0594 36.6097C26.447 35.9389 26.5497 35.158 26.3493 34.411C26.1489 33.6632 25.6694 33.038 24.9986 32.6504C23.6132 31.8504 21.8377 32.3274 21.0393 33.7112C20.2402 35.0959 20.7164 36.8714 22.1002 37.6713Z"
        fill="#FFAE00" />
    <path
        d="M11.2294 12.4036C11.019 12.4036 10.8054 12.4566 10.6108 12.57C10.0178 12.912 9.81411 13.6739 10.1561 14.2669C10.4981 14.8598 11.26 15.066 11.853 14.7215C12.4459 14.3795 12.6496 13.6176 12.3076 13.0247C12.0765 12.6263 11.6583 12.4036 11.2294 12.4036Z"
        fill="#FFAE00" />
    <path
        d="M35.3502 14.7215C35.9439 15.0635 36.7042 14.8581 37.047 14.266C37.3898 13.6731 37.1853 12.9112 36.5924 12.5684C35.9986 12.2264 35.2375 12.4309 34.8955 13.0238C34.5535 13.6168 34.7581 14.3787 35.3502 14.7215Z"
        fill="#FFAE00" />
    <path
        d="M26.876 15.3219C31.6907 15.996 36.0756 18.5284 39.0685 22.361L44.3453 13.2201L32.1528 6.18105L26.876 15.3219ZM34.1784 12.6106C34.749 11.6227 36.0176 11.2823 37.0064 11.852C37.9952 12.4235 38.3347 13.693 37.7642 14.6809C37.3816 15.3442 36.6835 15.7161 35.968 15.7161C35.6168 15.7161 35.2616 15.6266 34.9361 15.4395C33.9482 14.8673 33.6078 13.5986 34.1784 12.6106Z"
        fill="#FFAE00" />
    <path
        d="M15.0503 6.18105L2.85786 13.2201L8.13467 22.361C11.1275 18.5284 15.5124 15.996 20.3272 15.3219L15.0503 6.18105ZM12.2662 15.4387C11.9407 15.6266 11.5855 15.7161 11.2343 15.7161C10.518 15.7161 9.82074 15.3442 9.43814 14.6809C8.86756 13.693 9.2071 12.4235 10.1959 11.8529C11.1847 11.2831 12.4525 11.6227 13.0239 12.6106C13.5953 13.5986 13.255 14.8673 12.2662 15.4387Z"
        fill="#FFAE00" />
    <path
        d="M33.6649 32.8765C33.4107 31.8049 32.9875 30.7838 32.4054 29.8406C32.3043 29.6774 32.3292 29.4663 32.465 29.3305L34.1419 27.6535L32.2969 25.8076L30.3673 29.1491C29.7976 30.1346 29.709 31.3072 30.1239 32.3688L30.605 33.6003C31.111 34.8955 31.0025 36.3306 30.3069 37.5347L27.1617 42.9829C27.107 43.0782 27.0159 43.1469 26.9099 43.1759C26.8751 43.185 26.8387 43.19 26.8031 43.19C26.731 43.19 26.6598 43.1717 26.5961 43.1345L24.7783 42.0844C23.1436 42.3759 21.4642 42.0828 20.0307 41.2563C18.598 40.4298 17.5049 39.1205 16.9393 37.5587L15.1216 36.5086C14.9236 36.3944 14.8557 36.1418 14.97 35.943L17.1322 32.1982C17.4751 31.1813 17.3691 30.0708 16.8366 29.1483L14.9071 25.8068L13.062 27.6527L14.739 29.3296C14.8748 29.4654 14.8996 29.6766 14.7986 29.8398C14.2164 30.783 13.7933 31.8041 13.539 32.8757C13.4951 33.0628 13.3287 33.1945 13.1365 33.1945H10.7656V37.3351H13.1357C13.3278 37.3351 13.4943 37.4668 13.5382 37.6539C13.7924 38.7255 14.2156 39.7466 14.7978 40.6898C14.8988 40.853 14.874 41.0642 14.7381 41.2L13.0612 42.8769L15.9894 45.8043L17.6664 44.1282C17.8022 43.9916 18.0134 43.9676 18.1765 44.0686C19.1198 44.6508 20.1408 45.0748 21.2124 45.3282C21.3996 45.3721 21.5312 45.5393 21.5312 45.7306V48.1016H25.6719V45.7323C25.6719 45.541 25.8035 45.3729 25.9907 45.3298C27.0623 45.0756 28.0834 44.6524 29.0266 44.0702C29.1889 43.9692 29.4001 43.9932 29.5367 44.1299L31.2137 45.806L34.1419 42.8786L32.465 41.2016C32.3292 41.0658 32.3043 40.8546 32.4054 40.6915C32.9875 39.7483 33.4107 38.7272 33.6649 37.6556C33.7088 37.4684 33.8753 37.3368 34.0674 37.3368H36.4375V33.1961H34.0674C33.8753 33.1953 33.7088 33.0636 33.6649 32.8765Z"
        fill="#FFAE00" />
    <path d="M33.8123 3.31656L46.0023 10.3556L44.7602 12.5005L32.5702 5.46141L33.8123 3.31656Z" fill="#FFAE00" />
    <path
        d="M47.0375 8.55859L46.4164 9.63516L34.2264 2.59609L34.8475 1.51953C35.0131 1.22969 35.2781 1.03094 35.6011 0.939844C35.9241 0.857031 36.2553 0.898438 36.5452 1.06406L46.582 6.86094C46.8719 7.02656 47.0706 7.29984 47.1617 7.61453C47.2445 7.9375 47.2031 8.26875 47.0375 8.55859Z"
        fill="#FFAE00" />
</svg>