<svg width="54" height="38" viewBox="0 0 54 38" fill="none" xmlns="http://www.w3.org/2000/svg">
    <path
        d="M10.6508 33.4026C10.094 33.9036 9.5503 34.4553 8.94715 34.9236C7.24607 36.2449 5.4672 36.0997 3.73116 35.0379C2.27484 34.1468 1.21888 32.7982 0.565027 31.2147C-0.238307 29.269 -0.251419 27.277 0.958389 25.443C1.17081 25.1208 1.49861 24.8477 1.82641 24.6462C4.52225 22.9855 7.22684 21.3411 9.9393 19.7094C10.2234 19.5379 10.2968 19.3637 10.2802 19.0325C10.1561 16.5477 11.3659 14.0276 13.7121 12.8433C17.2462 11.0592 20.7104 9.12442 24.1939 7.23229C26.4806 5.98993 28.7569 4.72579 31.0192 3.43714C31.5069 3.15945 31.9763 2.78738 32.347 2.35904C32.875 1.75011 33.4965 1.30362 34.2299 1.11849C35.6626 0.756404 37.1067 0.402481 38.5665 0.216444C39.9756 0.0367601 41.4188 -0.0621569 42.8305 0.0431126C45.3463 0.230964 47.8595 0.577627 50.1278 1.86446C52.4225 3.1658 53.5597 5.27029 53.9295 7.90202C54.2826 10.4158 53.2826 12.346 51.53 13.9251C48.828 16.3599 46.085 18.7448 43.369 21.1633C41.3812 22.9338 39.4092 24.7234 37.4318 26.5075C37.3348 26.5946 37.2439 26.6953 37.174 26.8061C35.958 28.7372 34.2902 30.0476 32.1608 30.7065C31.8181 30.8127 31.4457 30.8453 31.0856 30.8571C29.7324 30.9025 28.3784 30.9134 27.0261 30.966C26.8014 30.9751 26.5444 31.0731 26.3661 31.2156C24.6406 32.6004 22.9203 33.9934 21.2174 35.4082C20.6641 35.8683 20.2052 36.4536 19.637 36.8892C18.1833 38.0036 16.5408 38.3485 14.8694 37.6062C14.0268 37.2323 13.3012 36.529 12.5906 35.8928C11.7654 35.1541 11.0302 34.3129 10.6491 33.4035L10.6508 33.4026ZM11.6089 30.1266C11.8991 33.1458 13.1124 35.3792 15.6562 36.666C17.7489 37.7241 19.7646 36.6342 20.151 34.2775C20.3197 33.2502 20.1947 32.2256 19.8284 31.2501C19.0181 29.092 17.7034 27.4431 15.4831 26.7643C14.0224 26.3178 12.6115 26.9848 12.0241 28.4323C11.7925 29.004 11.7217 29.6456 11.608 30.1275L11.6089 30.1266ZM9.44453 31.31C9.42268 31.1148 9.41569 30.7473 9.33789 30.3979C8.75921 27.7998 7.42789 25.816 4.95321 24.8477C3.13849 24.1371 1.40245 25.2606 1.1271 27.258C0.732862 30.123 2.5738 33.5242 5.163 34.6305C6.19186 35.0697 7.25744 35.2076 8.23123 34.4435C9.17617 33.7021 9.43667 32.6422 9.44366 31.3109L9.44453 31.31ZM37.5376 23.8903C39.9319 21.7486 42.3296 19.5733 44.7598 17.4371C47.446 15.0758 50.1628 12.7517 52.8648 10.4094C52.9627 10.3241 53.0912 10.2316 53.1226 10.1172C53.3324 9.364 53.4391 8.60352 53.1506 7.78042C52.1698 8.55451 51.2205 9.29866 50.2756 10.0492C46.0255 13.4241 41.7789 16.8036 37.5228 20.1695C37.2325 20.3991 37.0691 20.5797 37.2649 20.9672C37.3619 21.1596 37.3864 21.4019 37.403 21.6252C37.4589 22.4011 37.4965 23.1788 37.5376 23.8903ZM20.8451 33.6704C21.5688 33.0714 22.311 32.4661 23.0444 31.849C25.6878 29.6229 28.3277 27.3923 30.9711 25.1662C31.7543 24.5065 31.9947 23.4674 31.5533 22.5263C31.4816 22.5789 31.409 22.627 31.3417 22.6815C29.4204 24.2242 27.499 25.7679 25.5776 27.3115C24.0365 28.5503 22.4937 29.7872 20.9561 31.0295C20.7839 31.1684 20.5828 31.2664 20.6353 31.5994C20.7419 32.2773 20.7786 32.967 20.8451 33.6704ZM31.2648 26.7571C31.3522 26.7571 31.3872 26.7679 31.4047 26.7552C31.534 26.6572 31.6634 26.5592 31.7867 26.4539C33.118 25.3114 33.9449 23.9166 33.7194 22.0517C33.5419 20.5788 32.8417 19.3492 31.8985 18.2665C30.8303 17.0396 29.5515 16.2973 27.8941 16.5259C26.9946 16.6494 26.1729 16.9788 25.4596 17.575C25.6222 17.565 25.7735 17.5233 25.9247 17.4815C27.4658 17.055 28.9728 17.1303 30.2123 18.2357C30.9588 18.9009 31.5646 19.7675 32.1258 20.6197C32.7508 21.5689 32.8304 22.6706 32.6145 23.795C32.4064 24.884 31.8942 25.8223 31.2639 26.758L31.2648 26.7571ZM15.0076 16.6303C18.5784 15.3253 20.9692 16.898 22.2367 19.4898C22.4036 19.3682 22.575 19.2548 22.7341 19.125C22.8993 18.9898 23.0523 18.8382 23.2017 18.7021C21.0129 14.7264 17.7961 14.4423 15.0067 16.6303H15.0076Z"
        fill="#FFAE00" />
</svg>