<svg width="43" height="43" viewBox="0 0 43 43" fill="none" xmlns="http://www.w3.org/2000/svg">
    <path d="M18.397 3.06695H24.5304V4.60029H18.397V3.06695Z" fill="#FFAE00" />
    <path
        d="M26.0637 0.766952C26.0637 0.563619 25.9829 0.368615 25.8391 0.224837C25.6954 0.0810589 25.5004 0.000285387 25.297 0.000285387H17.6304C17.427 0.000285387 17.232 0.0810589 17.0882 0.224837C16.9445 0.368615 16.8637 0.563619 16.8637 0.766952V1.53362H26.0637V0.766952Z"
        fill="#FFAE00" />
    <path
        d="M40.6955 3.57219L35.5451 0.246385C35.3759 0.136847 35.1869 0.0617125 34.9887 0.0252776C34.7906 -0.0111573 34.5872 -0.00817822 34.3901 0.0340443C34.1931 0.0762668 34.0064 0.156905 33.8405 0.271349C33.6747 0.385793 33.5331 0.531798 33.4237 0.701019L41.1517 5.69432C41.3718 5.35218 41.4474 4.93678 41.3619 4.53904C41.2764 4.14131 41.0368 3.79365 40.6955 3.57219Z"
        fill="#FFAE00" />
    <path d="M3.46389 8.30559L11.2034 3.32992L10.3371 1.98979L2.60905 6.98309L3.46389 8.30559Z" fill="#FFAE00" />
    <path
        d="M4.33175 31.1316C4.43145 31.4412 4.62658 31.7114 4.88921 31.9034C5.15183 32.0953 5.46848 32.1993 5.79379 32.2003H8.28929L2.98702 14.8361L0.847253 15.904C0.521242 16.0695 0.264332 16.3451 0.12204 16.6818C-0.0202514 17.0186 -0.0387388 17.3949 0.0698532 17.744L4.33175 31.1316Z"
        fill="#FFAE00" />
    <path
        d="M28.3637 41.4003H14.5637V42.167C14.5637 42.3703 14.6445 42.5653 14.7882 42.7091C14.932 42.8528 15.127 42.9336 15.3304 42.9336H27.597C27.8004 42.9336 27.9954 42.8528 28.1391 42.7091C28.2829 42.5653 28.3637 42.3703 28.3637 42.167V41.4003Z"
        fill="#FFAE00" />
    <path
        d="M42.0801 15.904L39.9442 14.8361L34.6381 32.2003H37.1336C37.4584 32.1994 37.7747 32.0959 38.0371 31.9045C38.2995 31.7131 38.4948 31.4436 38.5949 31.1346L42.8575 17.7456C42.9665 17.3962 42.9482 17.0196 42.8059 16.6825C42.6636 16.3454 42.4065 16.0696 42.0801 15.904Z"
        fill="#FFAE00" />
    <path
        d="M11.8942 36.7474C12.217 36.8347 12.5026 37.0249 12.7076 37.2892C12.9126 37.5534 13.026 37.8773 13.0304 38.2117V39.1003C13.0304 39.3036 13.1111 39.4986 13.2549 39.6424C13.3987 39.7862 13.5937 39.867 13.797 39.867H29.1304C29.3337 39.867 29.5287 39.7862 29.6725 39.6424C29.8162 39.4986 29.897 39.3036 29.897 39.1003V38.2117C29.9014 37.8773 30.0147 37.5534 30.2198 37.2892C30.4248 37.0249 30.7104 36.8347 31.0332 36.7474C31.2399 36.6867 31.4284 36.5758 31.5817 36.4244C31.735 36.2731 31.8484 36.0862 31.9118 35.8803L39.5747 10.8019C39.6178 10.6578 39.6131 10.5037 39.5613 10.3626C39.5094 10.2215 39.4132 10.1009 39.2872 10.0191L30.2405 4.20469C30.1718 4.16035 30.0899 4.14102 30.0087 4.14995C29.9274 4.15889 29.8517 4.19555 29.7943 4.25375L28.1391 5.90899C27.9953 6.05277 27.8003 6.13358 27.597 6.13362H15.3304C15.127 6.13358 14.9321 6.05277 14.7883 5.90899L13.1293 4.24915C13.0624 4.18217 12.9717 4.14441 12.877 4.14412C12.8086 4.14441 12.7416 4.16408 12.6838 4.20085L3.63715 10.0153C3.51096 10.097 3.41471 10.2175 3.36287 10.3587C3.31103 10.4998 3.30639 10.654 3.34965 10.798L11.0163 35.8765C11.0791 36.083 11.1922 36.2706 11.3454 36.4227C11.4986 36.5747 11.6872 36.6863 11.8942 36.7474ZM8.43035 13.8003C8.42912 12.6876 8.77408 11.6022 9.41742 10.6944C10.0608 9.78657 10.9706 9.10143 12.0208 8.73392C13.071 8.36641 14.2095 8.33475 15.2785 8.64333C16.3475 8.95191 17.2941 9.58544 17.9869 10.4561L26.6502 12.1129C27.8925 11.4615 29.3406 11.3229 30.6838 11.7269C32.0271 12.1309 33.1586 13.0452 33.8355 14.2738C34.5124 15.5023 34.6809 16.9472 34.3048 18.2986C33.9287 19.6499 33.0379 20.8 31.8237 21.5022L28.2824 28.137C28.3338 28.4667 28.361 28.7999 28.3637 29.1336C28.3668 30.1458 28.1471 31.1463 27.7203 32.0641C27.2936 32.9819 26.6701 33.7945 25.8941 34.4445C25.1181 35.0944 24.2086 35.5656 23.2302 35.8247C22.2517 36.0838 21.2283 36.1245 20.2323 35.9439C19.2364 35.7633 18.2924 35.3657 17.4673 34.7795C16.6421 34.1932 15.9561 33.4326 15.4578 32.5516C14.9595 31.6705 14.6611 30.6907 14.5839 29.6814C14.5066 28.6722 14.6523 27.6583 15.0107 26.7117L11.6373 18.7108C10.6844 18.2911 9.87394 17.6036 9.30458 16.7318C8.73523 15.86 8.4315 14.8415 8.43035 13.8003Z"
        fill="#FFAE00" />
    <path
        d="M21.4637 23.767C20.4023 23.767 19.3647 24.0817 18.4821 24.6714C17.5996 25.2611 16.9117 26.0993 16.5055 27.0799C16.0993 28.0605 15.9931 29.1396 16.2001 30.1806C16.4072 31.2216 16.9183 32.1779 17.6689 32.9284C18.4194 33.679 19.3757 34.1901 20.4167 34.3972C21.4577 34.6042 22.5368 34.498 23.5174 34.0918C24.4981 33.6856 25.3362 32.9977 25.9259 32.1152C26.5156 31.2326 26.8304 30.195 26.8304 29.1336C26.8285 27.7109 26.2625 26.3469 25.2565 25.3408C24.2504 24.3348 22.8865 23.7688 21.4637 23.767ZM21.4637 32.2003C20.8572 32.2003 20.2642 32.0204 19.7599 31.6835C19.2556 31.3465 18.8626 30.8675 18.6305 30.3072C18.3983 29.7468 18.3376 29.1302 18.4559 28.5353C18.5743 27.9405 18.8663 27.394 19.2952 26.9652C19.7241 26.5363 20.2705 26.2442 20.8654 26.1259C21.4603 26.0076 22.0769 26.0683 22.6372 26.3004C23.1976 26.5325 23.6766 26.9256 24.0135 27.4299C24.3505 27.9342 24.5304 28.5271 24.5304 29.1336C24.5304 29.947 24.2073 30.727 23.6321 31.3021C23.057 31.8772 22.277 32.2003 21.4637 32.2003Z"
        fill="#FFAE00" />
    <path
        d="M21.4637 30.667C22.3105 30.667 22.997 29.9805 22.997 29.1336C22.997 28.2868 22.3105 27.6003 21.4637 27.6003C20.6169 27.6003 19.9304 28.2868 19.9304 29.1336C19.9304 29.9805 20.6169 30.667 21.4637 30.667Z"
        fill="#FFAE00" />
    <path
        d="M1.77722 5.69509L9.50369 0.701785C9.28294 0.360328 8.9356 0.12053 8.53807 0.0351286C8.14054 -0.0502723 7.72536 0.0257173 7.38385 0.246385L2.23032 3.57295C2.06116 3.68238 1.91523 3.82408 1.80086 3.98994C1.68649 4.1558 1.60593 4.34257 1.56377 4.53958C1.52162 4.73659 1.51871 4.93998 1.5552 5.13811C1.5917 5.33625 1.66688 5.52525 1.77645 5.69432L1.77722 5.69509Z"
        fill="#FFAE00" />
    <path d="M40.3183 6.98309L32.5903 1.98979L31.724 3.32992L39.4635 8.30559L40.3183 6.98309Z" fill="#FFAE00" />
    <path
        d="M13.797 14.567C14.2204 14.567 14.5637 14.2237 14.5637 13.8003C14.5637 13.3769 14.2204 13.0336 13.797 13.0336C13.3736 13.0336 13.0304 13.3769 13.0304 13.8003C13.0304 14.2237 13.3736 14.567 13.797 14.567Z"
        fill="#FFAE00" />
    <path
        d="M17.6304 13.8003C17.6304 13.0421 17.4055 12.301 16.9843 11.6706C16.5631 11.0402 15.9644 10.5489 15.264 10.2587C14.5635 9.96861 13.7928 9.8927 13.0492 10.0406C12.3056 10.1885 11.6225 10.5536 11.0864 11.0897C10.5503 11.6258 10.1853 12.3088 10.0373 13.0524C9.88943 13.796 9.96535 14.5668 10.2555 15.2672C10.5456 15.9677 11.0369 16.5664 11.6673 16.9876C12.2977 17.4088 13.0389 17.6336 13.797 17.6336C14.8133 17.6324 15.7876 17.2281 16.5063 16.5095C17.2249 15.7909 17.6291 14.8166 17.6304 13.8003ZM11.497 13.8003C11.497 13.3454 11.6319 12.9007 11.8846 12.5225C12.1374 12.1442 12.4966 11.8494 12.9168 11.6754C13.3371 11.5013 13.7996 11.4557 14.2457 11.5445C14.6919 11.6332 15.1017 11.8523 15.4234 12.1739C15.745 12.4956 15.9641 12.9054 16.0528 13.3516C16.1416 13.7977 16.096 14.2602 15.9219 14.6805C15.7479 15.1007 15.4531 15.4599 15.0748 15.7127C14.6966 15.9654 14.2519 16.1003 13.797 16.1003C13.187 16.1003 12.602 15.858 12.1707 15.4266C11.7393 14.9953 11.497 14.4103 11.497 13.8003Z"
        fill="#FFAE00" />
    <path
        d="M13.797 19.167C13.6935 19.167 13.5923 19.157 13.4904 19.1516L15.9537 24.9982C16.6584 24.0542 17.5937 23.307 18.67 22.8281C19.7463 22.3492 20.9275 22.1547 22.1005 22.2632C23.2736 22.3716 24.3991 22.7795 25.3693 23.4477C26.3395 24.1159 27.1219 25.022 27.6415 26.0792L29.7115 22.2007C28.6413 22.3189 27.5602 22.1119 26.6093 21.6068C25.6584 21.1017 24.8817 20.3219 24.3804 19.369C23.8791 18.4161 23.6765 17.3342 23.799 16.2645C23.9215 15.1947 24.3633 14.1867 25.067 13.3717L18.9184 12.1957C19.1702 12.9993 19.2293 13.8509 19.091 14.6816C18.9527 15.5124 18.6208 16.2989 18.1222 16.9776C17.6236 17.6563 16.9723 18.2081 16.2209 18.5885C15.4695 18.9688 14.6392 19.167 13.797 19.167Z"
        fill="#FFAE00" />
    <path
        d="M29.1304 20.7003C29.8885 20.7003 30.6297 20.4755 31.26 20.0543C31.8904 19.633 32.3818 19.0344 32.6719 18.3339C32.962 17.6335 33.0379 16.8627 32.89 16.1191C32.7421 15.3755 32.377 14.6925 31.8409 14.1564C31.3048 13.6203 30.6218 13.2552 29.8782 13.1073C29.1346 12.9594 28.3638 13.0353 27.6634 13.3254C26.9629 13.6156 26.3643 14.1069 25.9431 14.7373C25.5218 15.3677 25.297 16.1088 25.297 16.867C25.2982 17.8832 25.7025 18.8576 26.4211 19.5762C27.1397 20.2948 28.1141 20.6991 29.1304 20.7003ZM29.1304 14.567C29.5853 14.567 30.0299 14.7018 30.4082 14.9546C30.7864 15.2073 31.0812 15.5665 31.2553 15.9868C31.4294 16.4071 31.4749 16.8695 31.3862 17.3157C31.2974 17.7618 31.0784 18.1716 30.7567 18.4933C30.435 18.815 30.0252 19.034 29.5791 19.1228C29.1329 19.2115 28.6705 19.166 28.2502 18.9919C27.8299 18.8178 27.4707 18.523 27.218 18.1448C26.9652 17.7665 26.8304 17.3218 26.8304 16.867C26.8304 16.257 27.0727 15.6719 27.504 15.2406C27.9353 14.8093 28.5204 14.567 29.1304 14.567Z"
        fill="#FFAE00" />
    <path
        d="M29.1304 17.6336C29.5538 17.6336 29.897 17.2904 29.897 16.867C29.897 16.4435 29.5538 16.1003 29.1304 16.1003C28.7069 16.1003 28.3637 16.4435 28.3637 16.867C28.3637 17.2904 28.7069 17.6336 29.1304 17.6336Z"
        fill="#FFAE00" />
</svg>