<svg width="46" height="42" viewBox="0 0 46 42" fill="none" xmlns="http://www.w3.org/2000/svg">
    <path
        d="M5.25637 26.5265H2.45539L0.457906 25.7603C-0.152635 22.6153 -0.152635 19.3847 0.457906 16.2397L2.45539 15.4725L5.25637 15.4609C4.74871 17.2648 4.49032 19.128 4.48819 21C4.48792 22.868 4.74637 24.7273 5.25637 26.5265ZM33.6567 21C33.6567 22.7488 33.1302 24.4583 32.1439 25.9123C31.1575 27.3664 29.7556 28.4997 28.1154 29.1689C26.4752 29.8381 24.6703 30.0132 22.9291 29.672C21.1878 29.3309 19.5884 28.4888 18.333 27.2522C17.0776 26.0156 16.2227 24.4401 15.8763 22.725C15.53 21.0098 15.7078 19.232 16.3872 17.6163C17.0666 16.0007 18.2171 14.6198 19.6932 13.6482C21.1694 12.6766 22.9049 12.1581 24.6803 12.1581C27.0601 12.1609 29.3416 13.0933 31.0244 14.7509C32.7072 16.4085 33.6538 18.6558 33.6567 21ZM28.6474 17.0923C28.8043 17.2469 29.0043 17.3523 29.2221 17.395C29.4398 17.4377 29.6655 17.4159 29.8706 17.3322C30.0757 17.2486 30.2511 17.1069 30.3744 16.9251C30.4978 16.7433 30.5636 16.5295 30.5636 16.3108C30.5636 16.0921 30.4978 15.8784 30.3744 15.6966C30.2511 15.5147 30.0757 15.373 29.8706 15.2894C29.6655 15.2057 29.4398 15.1839 29.2221 15.2266C29.0043 15.2693 28.8043 15.3747 28.6474 15.5294C28.5432 15.632 28.4604 15.7538 28.404 15.8879C28.3476 16.0219 28.3185 16.1657 28.3185 16.3108C28.3185 16.456 28.3476 16.5997 28.404 16.7338C28.4604 16.8679 28.5432 16.9897 28.6474 17.0923ZM23.5579 14.368C23.5577 14.5867 23.6234 14.8006 23.7466 14.9825C23.8698 15.1644 24.045 15.3063 24.25 15.3901C24.4551 15.474 24.6808 15.496 24.8986 15.4535C25.1163 15.4109 25.3164 15.3057 25.4735 15.1512C25.6305 14.9966 25.7375 14.7996 25.7809 14.5851C25.8243 14.3707 25.8022 14.1483 25.7172 13.9463C25.6323 13.7442 25.4885 13.5715 25.3039 13.45C25.1193 13.3284 24.9023 13.2636 24.6803 13.2636C24.3828 13.2636 24.0975 13.3799 23.887 13.587C23.6766 13.7941 23.5582 14.075 23.5579 14.368ZM19.1265 17.0923C19.2834 17.2469 19.4834 17.3523 19.7011 17.395C19.9188 17.4377 20.1445 17.4159 20.3496 17.3322C20.5548 17.2486 20.7301 17.1069 20.8534 16.9251C20.9768 16.7433 21.0426 16.5295 21.0426 16.3108C21.0426 16.0921 20.9768 15.8784 20.8534 15.6966C20.7301 15.5147 20.5548 15.373 20.3496 15.2894C20.1445 15.2057 19.9188 15.1839 19.7011 15.2266C19.4834 15.2693 19.2834 15.3747 19.1265 15.5294C19.0222 15.632 18.9395 15.7538 18.883 15.8879C18.8266 16.0219 18.7976 16.1657 18.7976 16.3108C18.7976 16.456 18.8266 16.5997 18.883 16.7338C18.9395 16.8679 19.0222 16.9897 19.1265 17.0923ZM19.0697 21C19.0697 20.7814 19.0039 20.5676 18.8806 20.3858C18.7573 20.204 18.582 20.0623 18.3769 19.9786C18.1718 19.895 17.9462 19.8731 17.7285 19.9157C17.5108 19.9584 17.3108 20.0637 17.1538 20.2183C16.9969 20.3729 16.89 20.5699 16.8467 20.7843C16.8034 20.9988 16.8256 21.2211 16.9105 21.4231C16.9955 21.6251 17.1393 21.7977 17.3239 21.9192C17.5085 22.0407 17.7255 22.1055 17.9474 22.1055C18.2451 22.1055 18.5306 21.989 18.741 21.7817C18.9515 21.5744 19.0697 21.2932 19.0697 21ZM20.7131 24.9077C20.5562 24.753 20.3562 24.6477 20.1385 24.605C19.9207 24.5623 19.695 24.5841 19.4899 24.6677C19.2848 24.7514 19.1095 24.8931 18.9861 25.0749C18.8628 25.2567 18.7969 25.4705 18.7969 25.6892C18.7969 25.9079 18.8628 26.1216 18.9861 26.3034C19.1095 26.4853 19.2848 26.627 19.4899 26.7106C19.695 26.7943 19.9207 26.8161 20.1385 26.7734C20.3562 26.7307 20.5562 26.6253 20.7131 26.4706C20.8174 26.368 20.9001 26.2462 20.9565 26.1121C21.0129 25.9781 21.042 25.8343 21.042 25.6892C21.042 25.544 21.0129 25.4003 20.9565 25.2662C20.9001 25.1321 20.8174 25.0103 20.7131 24.9077ZM25.8026 27.632C25.8028 27.4133 25.7371 27.1994 25.614 27.0175C25.4908 26.8356 25.3156 26.6937 25.1105 26.6099C24.9054 26.526 24.6797 26.504 24.462 26.5465C24.2442 26.5891 24.0441 26.6943 23.887 26.8488C23.73 27.0034 23.623 27.2004 23.5796 27.4149C23.5362 27.6293 23.5584 27.8517 23.6433 28.0537C23.7282 28.2558 23.872 28.4285 24.0566 28.55C24.2412 28.6716 24.4582 28.7364 24.6803 28.7364C24.9777 28.7364 25.263 28.6201 25.4735 28.413C25.6839 28.2059 25.8023 27.925 25.8026 27.632ZM29.1685 21C29.1685 20.1243 28.9048 19.2684 28.4108 18.5404C27.9168 17.8124 27.2147 17.245 26.3933 16.9102C25.5719 16.5753 24.6681 16.488 23.7963 16.6592C22.9245 16.8304 22.1238 17.2525 21.4956 17.872C20.8674 18.4916 20.4398 19.2808 20.2671 20.1397C20.0943 20.9987 20.184 21.8888 20.525 22.6975C20.8659 23.5062 21.4427 24.1971 22.1823 24.6828C22.922 25.1686 23.7913 25.4273 24.6803 25.4262C25.8711 25.4248 27.0127 24.9579 27.8542 24.128C28.6958 23.298 29.1685 22.173 29.1685 21ZM30.2383 24.9077C30.0814 24.753 29.8814 24.6477 29.6637 24.605C29.446 24.5623 29.2203 24.5841 29.0152 24.6677C28.81 24.7514 28.6347 24.8931 28.5114 25.0749C28.388 25.2567 28.3222 25.4705 28.3222 25.6892C28.3222 25.9079 28.388 26.1216 28.5114 26.3034C28.6347 26.4853 28.81 26.627 29.0152 26.7106C29.2203 26.7943 29.446 26.8161 29.6637 26.7734C29.8814 26.7307 30.0814 26.6253 30.2383 26.4706C30.3423 26.3678 30.4247 26.2457 30.4808 26.1115C30.5368 25.9773 30.5655 25.8335 30.5651 25.6883C30.5647 25.5431 30.5353 25.3995 30.4785 25.2656C30.4217 25.1316 30.3386 25.01 30.2341 24.9077H30.2383ZM31.4152 19.8945C31.1932 19.8941 30.976 19.9586 30.7911 20.0798C30.6063 20.201 30.4621 20.3735 30.3768 20.5755C30.2915 20.7774 30.269 20.9998 30.3121 21.2144C30.3551 21.429 30.4619 21.6261 30.6187 21.781C30.7756 21.9358 30.9756 22.0413 31.1934 22.0841C31.4111 22.1269 31.6369 22.1052 31.8421 22.0216C32.0473 21.9379 32.2227 21.7962 32.3461 21.6144C32.4695 21.4326 32.5354 21.2187 32.5354 21C32.5354 20.7068 32.4172 20.4256 32.2067 20.2183C31.9962 20.011 31.7108 19.8945 31.4131 19.8945H31.4152ZM46 21C46.0031 25.1417 44.7619 29.1917 42.4327 32.6398C40.1035 36.088 36.7906 38.7801 32.9111 40.3771C29.0316 41.9742 24.759 42.4047 20.6316 41.6145C16.5042 40.8243 12.7065 38.8486 9.71675 35.9364L12.9328 33.9562C13.0941 33.8569 13.2271 33.7188 13.3192 33.5549C13.4112 33.391 13.4595 33.2067 13.4592 33.0193V28.9093C13.4589 28.7089 13.4038 28.5124 13.2998 28.3402C11.9365 26.126 11.2157 23.5859 11.2157 20.9963C11.2157 18.4067 11.9365 15.8667 13.2998 13.6524C13.4039 13.4807 13.459 13.2844 13.4592 13.0844V8.98593C13.4595 8.79859 13.4112 8.61428 13.3192 8.45037C13.2271 8.28646 13.0941 8.14835 12.9328 8.04904L9.71675 6.06356C12.7065 3.15136 16.5042 1.17573 20.6316 0.385509C24.759 -0.404714 29.0316 0.0258084 32.9111 1.62285C36.7906 3.21989 40.1035 5.91203 42.4327 9.36019C44.7619 12.8083 46.0031 16.8583 46 21ZM30.8075 7.77293C30.8633 7.9073 30.9454 8.02952 31.0492 8.13258C31.153 8.23564 31.2764 8.31752 31.4123 8.37351C31.5483 8.42951 31.6941 8.45853 31.8415 8.45892C31.9889 8.4593 32.1349 8.43103 32.2711 8.37574L33.5999 7.83827C33.7362 7.78291 33.8601 7.70165 33.9645 7.59914C34.0689 7.49662 34.1518 7.37485 34.2084 7.24078C34.2651 7.10671 34.2943 6.96297 34.2946 6.81776C34.2948 6.67255 34.266 6.52872 34.2098 6.39447C34.1536 6.26023 34.0711 6.1382 33.967 6.03536C33.8629 5.93252 33.7393 5.85088 33.6032 5.7951C33.4671 5.73932 33.3212 5.71049 33.1738 5.71026C33.0263 5.71004 32.8803 5.73841 32.744 5.79377L31.4152 6.33124C31.2792 6.38656 31.1556 6.46773 31.0514 6.57014C30.9472 6.67254 30.8645 6.79416 30.8081 6.92805C30.7517 7.06193 30.7226 7.20546 30.7225 7.35043C30.7224 7.4954 30.7513 7.63897 30.8075 7.77293ZM23.237 6.4029C23.3538 6.49241 23.4875 6.55824 23.6304 6.59659C23.7732 6.63493 23.9223 6.64504 24.0691 6.62633C24.2159 6.60762 24.3575 6.56045 24.4858 6.48756C24.614 6.41466 24.7263 6.31748 24.8161 6.20162L25.6945 5.08662C25.8681 4.85404 25.9424 4.56382 25.9016 4.27798C25.8608 3.99214 25.7081 3.73334 25.4762 3.55691C25.2443 3.38048 24.9515 3.30039 24.6604 3.33378C24.3693 3.36716 24.1031 3.51137 23.9185 3.73557L23.0401 4.85056C22.8582 5.08245 22.7772 5.376 22.8149 5.66669C22.8526 5.95738 23.006 6.22143 23.2413 6.4008L23.237 6.4029ZM15.0234 7.70021C14.9839 7.99087 15.0631 8.28509 15.2436 8.51827C15.4242 8.75144 15.6913 8.90448 15.9863 8.94377C16.0367 8.95008 16.0875 8.95325 16.1382 8.95326C16.4097 8.95285 16.6717 8.85557 16.8759 8.67943C17.0801 8.5033 17.2126 8.26025 17.2488 7.9953L17.4414 6.5926C17.4782 6.3035 17.3976 6.01177 17.2173 5.78085C17.0369 5.54992 16.7712 5.39848 16.4781 5.35946C16.185 5.32043 15.8881 5.39697 15.6519 5.57244C15.4158 5.7479 15.2595 6.00811 15.2171 6.29646L15.0234 7.70021ZM18.0437 34.2271C17.9879 34.0927 17.9056 33.9704 17.8018 33.8673C17.6979 33.7643 17.5744 33.6824 17.4383 33.6264C17.3023 33.5704 17.1563 33.5414 17.0089 33.541C16.8614 33.5407 16.7154 33.5689 16.579 33.6243L15.2502 34.1617C14.975 34.2735 14.7561 34.4885 14.6417 34.7592C14.5274 35.03 14.5269 35.3344 14.6404 35.6055C14.7539 35.8766 14.9721 36.0922 15.247 36.2049C15.5219 36.3176 15.8309 36.318 16.1061 36.2062L17.435 35.6688C17.7097 35.557 17.9282 35.3424 18.0423 35.0721C18.1565 34.8017 18.157 34.4978 18.0437 34.2271ZM25.6132 35.5971C25.3776 35.4183 25.0795 35.3388 24.7845 35.3762C24.4895 35.4135 24.2215 35.5646 24.0394 35.7963L23.161 36.9134C23.071 37.0282 23.0047 37.1593 22.9661 37.2993C22.9275 37.4393 22.9173 37.5855 22.936 37.7294C22.9547 37.8733 23.0021 38.0121 23.0753 38.138C23.1485 38.2639 23.2461 38.3744 23.3627 38.4631C23.4792 38.5518 23.6124 38.617 23.7545 38.6551C23.8967 38.6931 24.045 38.7032 24.1911 38.6847C24.3372 38.6663 24.4782 38.6197 24.606 38.5475C24.7338 38.4754 24.8459 38.3792 24.936 38.2644L25.8143 37.1452C25.9955 36.9138 26.076 36.6211 26.0383 36.3312C26.0006 36.0414 25.8477 35.7781 25.6132 35.5992V35.5971ZM33.8268 34.2998C33.8488 34.1549 33.8414 34.007 33.8049 33.865C33.7684 33.7229 33.7036 33.5894 33.6143 33.4722C33.5249 33.355 33.4128 33.2565 33.2845 33.1824C33.1561 33.1082 33.0141 33.06 32.8666 33.0404C32.7192 33.0209 32.5693 33.0304 32.4256 33.0684C32.2819 33.1064 32.1473 33.1722 32.0297 33.262C31.912 33.3517 31.8137 33.4636 31.7404 33.5911C31.667 33.7186 31.6201 33.8592 31.6025 34.0047L31.4099 35.4074C31.39 35.5514 31.3992 35.6978 31.4368 35.8382C31.4745 35.9787 31.5399 36.1105 31.6294 36.226C31.7188 36.3415 31.8305 36.4385 31.9581 36.5114C32.0857 36.5844 32.2266 36.6318 32.3728 36.651C32.4228 36.6572 32.4732 36.6604 32.5236 36.6604C32.795 36.6601 33.0571 36.563 33.2614 36.3871C33.4658 36.2112 33.5986 35.9684 33.6353 35.7035L33.8268 34.2998ZM35.9013 21C35.9013 18.8139 35.2432 16.677 34.0102 14.8593C32.7772 13.0417 31.0247 11.625 28.9744 10.7884C26.924 9.95184 24.6678 9.73295 22.4911 10.1594C20.3145 10.5859 18.3151 11.6386 16.7458 13.1844C15.1765 14.7302 14.1078 16.6996 13.6748 18.8437C13.2419 20.9877 13.4641 23.2101 14.3134 25.2298C15.1627 27.2494 16.6009 28.9757 18.4462 30.1902C20.2915 31.4047 22.461 32.0529 24.6803 32.0529C27.6552 32.0496 30.5074 30.884 32.611 28.8119C34.7146 26.7398 35.8979 23.9304 35.9013 21ZM37.6313 13.9328L39.0564 14.1225C39.1064 14.1287 39.1568 14.1319 39.2073 14.132C39.4855 14.123 39.7504 14.0124 39.9505 13.8219C40.1506 13.6313 40.2717 13.3742 40.2902 13.1007C40.3088 12.8271 40.2234 12.5565 40.0508 12.3414C39.8781 12.1263 39.6305 11.9821 39.356 11.9368L37.9319 11.746C37.6368 11.7067 37.338 11.7845 37.1011 11.9623C36.8643 12.1401 36.7088 12.4033 36.6689 12.694C36.6291 12.9846 36.7081 13.279 36.8885 13.5123C37.069 13.7456 37.3362 13.8988 37.6313 13.938V13.9328ZM39.8652 29.2001L39.3185 27.8902C39.205 27.6192 38.9869 27.4037 38.7121 27.2912C38.4373 27.1786 38.1284 27.1782 37.8533 27.29C37.5782 27.4018 37.3595 27.6167 37.2452 27.8873C37.1309 28.158 37.1305 28.4623 37.244 28.7333L37.7896 30.0432C37.8741 30.2459 38.0179 30.4193 38.2027 30.5413C38.3875 30.6633 38.605 30.7283 38.8274 30.7282C38.9743 30.7287 39.1198 30.7004 39.2554 30.645C39.3919 30.5898 39.516 30.5085 39.6206 30.406C39.7252 30.3034 39.8082 30.1815 39.8649 30.0473C39.9215 29.913 39.9507 29.7691 39.9508 29.6237C39.9509 29.4784 39.9218 29.3344 39.8652 29.2001ZM42.1602 22.0539C42.2505 21.9392 42.317 21.808 42.3558 21.6679C42.3946 21.5279 42.4049 21.3816 42.3862 21.2376C42.3676 21.0936 42.3202 20.9546 42.2469 20.8287C42.1736 20.7027 42.0757 20.5923 41.959 20.5036L40.8228 19.63C40.5873 19.4507 40.2891 19.3709 39.9939 19.4081C39.6986 19.4454 39.4305 19.5966 39.2484 19.8286C39.0664 20.0606 38.9854 20.3543 39.0232 20.6452C39.061 20.936 39.2146 21.2001 39.4501 21.3794L40.5863 22.2446C40.8208 22.4246 41.1182 22.5056 41.4133 22.4699C41.7084 22.4341 41.977 22.2845 42.1602 22.0539ZM11.2157 32.4134L7.0249 35.0069C5.56609 33.1035 4.41683 30.988 3.61837 28.7364H5.25637C5.60064 28.7371 5.94041 28.6595 6.24919 28.5095C6.55798 28.3596 6.82742 28.1414 7.0365 27.872C7.24559 27.6026 7.38867 27.2892 7.45458 26.9564C7.52049 26.6236 7.50745 26.2802 7.41648 25.9532C6.4978 22.7156 6.4978 19.2918 7.41648 16.0542C7.50824 15.7269 7.52188 15.3831 7.45634 15.0497C7.3908 14.7163 7.24785 14.4024 7.03867 14.1325C6.8295 13.8625 6.55977 13.6439 6.25058 13.4937C5.94138 13.3436 5.60111 13.2659 5.25637 13.2667H3.63228C4.42497 11.0205 5.56931 8.9101 7.02383 7.01204L11.221 9.59612V12.7893C9.75075 15.2847 8.97637 18.1185 8.97637 21.0037C8.97637 23.8888 9.75075 26.7227 11.221 29.218L11.2157 32.4134ZM8.64258 11.8314C8.79962 11.6768 8.90658 11.4798 8.94995 11.2653C8.99332 11.0509 8.97114 10.8286 8.88621 10.6265C8.80129 10.4245 8.65744 10.2518 8.47286 10.1302C8.28828 10.0087 8.07126 9.94388 7.84926 9.94388C7.62725 9.94388 7.41023 10.0087 7.22565 10.1302C7.04107 10.2518 6.89722 10.4245 6.8123 10.6265C6.72737 10.8286 6.70519 11.0509 6.74856 11.2653C6.79193 11.4798 6.89889 11.6768 7.05593 11.8314C7.26638 12.0385 7.55173 12.1549 7.84926 12.1549C8.14678 12.1549 8.43213 12.0385 8.64258 11.8314ZM8.64258 30.1623C8.48559 30.0078 8.28561 29.9026 8.06792 29.86C7.85024 29.8174 7.62461 29.8393 7.41958 29.923C7.21455 30.0067 7.03931 30.1484 6.91602 30.3302C6.79273 30.512 6.72693 30.7257 6.72693 30.9443C6.72693 31.1629 6.79273 31.3766 6.91602 31.5584C7.03931 31.7402 7.21455 31.8819 7.41958 31.9656C7.62461 32.0493 7.85024 32.0712 8.06792 32.0286C8.28561 31.986 8.48559 31.8808 8.64258 31.7262C8.851 31.519 8.96793 31.2391 8.96793 30.9474C8.96793 30.6557 8.851 30.3758 8.64258 30.1686V30.1623Z"
        fill="#FFAE00" />
</svg>