<svg width="192" height="26" viewBox="0 0 192 26" fill="none" xmlns="http://www.w3.org/2000/svg">
    <path
        d="M16.72 21.144h-2.74c-.986 0-2.007-.571-2.481-1.429L4.745 7.786V25H0V1.642C0 .679.694 0 1.68 0h3.067L16.72 21.144ZM29.021 0v25h-4.745V7.821l-5.658 9.964-2.229-3.892 7.082-12.465C23.948.571 24.969 0 25.955 0h3.067Zm8.905 5.071v14.322c0 1.072.474 1.679 1.315 1.679h17.741v2.286c0 .965-.694 1.644-1.68 1.644H38.33c-3.103 0-5.148-2.001-5.148-5.036V6.716c0-.964.695-1.643 1.68-1.643h3.065V5.07ZM56.98 0v2.286c0 .965-.694 1.642-1.68 1.642H38.693V1.642C38.692.677 39.386 0 40.37 0h16.61Zm54.389 0v3.928H90.232V1.642c0-.965.694-1.642 1.68-1.642h19.457Zm-5.199 10.536v3.928H90.232v-2.286c0-.965.694-1.642 1.68-1.642h14.258ZM111.369 25H90.232v-2.286c0-.965.694-1.644 1.68-1.644h19.457V25Zm9.269-25v25h-4.745V1.642c0-.965.695-1.642 1.68-1.642h3.065Zm13.617 0c3.103 0 5.148 2 5.148 5.036v5.071c0 1.215-.329 2.25-.913 3.072.584.821.913 1.857.913 3.072v8.75h-3.067c-.986 0-1.68-.678-1.68-1.571v-7.002c0-.82-.621-1.285-1.716-1.285h-8.833v-2.286c0-.964.695-1.643 1.607-1.643h7.629c.839 0 1.315-.608 1.315-1.68V5.608c0-1.072-.474-1.679-1.315-1.679h-9.236V1.642c0-.965.695-1.642 1.68-1.642h8.468Zm32.45 1.642v2.286h-17.449c-.839 0-1.315.607-1.315 1.679v3.25h-4.745V5.036c0-3.035 2.045-5.036 5.147-5.036h16.682c.988 0 1.68.68 1.68 1.642Zm-18.179 8.322h13.032c3.14 0 5.147 1.964 5.147 5.036v4.964c0 3.035-2.045 5.036-5.147 5.036h-18.362v-2.286c0-.965.694-1.644 1.606-1.644h15.843c.839 0 1.315-.607 1.315-1.678V15.57c0-1.07-.474-1.678-1.315-1.678h-10.439c-.986 0-1.679-.68-1.679-1.644V9.964h-.001ZM192 0v3.928h-21.135V1.642c0-.965.694-1.642 1.68-1.642H192Zm-5.197 10.536v3.928h-15.938v-2.286c0-.965.694-1.642 1.68-1.642h14.258ZM192 25h-21.135v-2.286c0-.965.694-1.644 1.68-1.644H192V25ZM79.002 5.32l.91-1.674h-.009L79 5.32h.004Z"
        fill="#00A3FF" />
    <path
        d="m67.181 5.355 5.897 10.883 1.219-2.248-3.994-7.374c-.331-.61.223-1.296 1.05-1.296h4.114c.631 0 1.21-.34 1.504-.886l.425-.788h-8.831c-1.088 0-1.82.903-1.384 1.709Z"
        fill="url(#a)" />
    <path
        d="M83.197 0c-.814 0-1.561.44-1.941 1.143l-1.351 2.501h.008L73.08 16.236 67.181 5.355c-.436-.806.296-1.707 1.384-1.707h8.83L79.366 0H61.848c-1.09 0-1.822.904-1.384 1.71L73.14 25.002 86.62 0h-3.424Z"
        fill="#00A3FF" />
    <defs>
        <linearGradient id="a" x1="95.993" y1="-.026" x2="95.993" y2="23.094" gradientUnits="userSpaceOnUse">
            <stop stop-color="#00A3FF" />
            <stop offset="1" stop-color="#fff" stop-opacity="0" />
        </linearGradient>
    </defs>
</svg>