<svg width="20" height="15" viewBox="0 0 20 15" fill="none" xmlns="http://www.w3.org/2000/svg">
    <g clip-path="url(#clip0_168_98)">
        <path
            d="M19.9617 1.78613C19.225 2.08609 18.4377 2.28866 17.6081 2.38216C18.4524 1.91274 19.1026 1.17258 19.4108 0.288274C18.6192 0.714842 17.739 1.02649 16.806 1.1979C16.0588 0.459681 14.9949 0 13.8129 0C11.548 0 9.71365 1.69459 9.71365 3.78068C9.71365 4.08064 9.75165 4.36891 9.81919 4.6455C6.40811 4.49747 3.38753 2.98598 1.36537 0.703155C1.00864 1.25828 0.810223 1.903 0.810223 2.60616C0.810223 3.92092 1.53423 5.07596 2.63397 5.75575C1.96062 5.73627 1.32948 5.56486 0.77645 5.28243V5.32918C0.77645 7.164 2.18648 8.69303 4.0651 9.04168C3.72104 9.12739 3.35798 9.17413 2.98437 9.17413C2.72262 9.17413 2.47144 9.15076 2.22025 9.10791C2.74584 10.6097 4.25719 11.7043 6.05772 11.7355C4.65824 12.7503 2.88305 13.3541 0.972757 13.3541C0.647691 13.3541 0.322625 13.3366 -0.00244141 13.3035C1.82131 14.3748 3.97012 15.0019 6.29413 15.0019C13.8382 15.0019 17.9606 9.23841 17.9606 4.24815C17.9606 4.08648 17.9606 3.92481 17.948 3.76315C18.748 3.23335 19.4487 2.5633 19.9976 1.80366L19.9575 1.78808L19.9617 1.78613Z"
            fill="#1890FF" />
    </g>
    <defs>
        <clipPath id="clip0_168_98">
            <rect width="20" height="15" fill="white" />
        </clipPath>
    </defs>
</svg>