<svg width="18" height="20" viewBox="0 0 18 20" fill="none" xmlns="http://www.w3.org/2000/svg">
    <g clip-path="url(#clip0_168_100)">
        <path
            d="M11.9424 9.5C11.9424 10.1106 11.4804 10.6106 10.8933 10.6106C10.3176 10.6106 9.84425 10.1106 9.84425 9.5C9.84425 8.88938 10.3062 8.38938 10.8933 8.38938C11.4804 8.38938 11.9424 8.88938 11.9424 9.5ZM7.13856 8.38938C6.55145 8.38938 6.08951 8.88938 6.08951 9.5C6.08951 10.1106 6.56283 10.6106 7.13856 10.6106C7.72566 10.6106 8.18761 10.1106 8.18761 9.5C8.19671 8.88938 7.72566 8.38938 7.13856 8.38938ZM18 2.05973V20C15.4081 17.7743 16.2364 18.5111 13.2281 15.7898L13.7742 17.6394H2.10948C0.94665 17.6394 0 16.719 0 15.5796V2.05973C0 0.920354 0.94665 0 2.10948 0H15.8928C17.0533 0 18 0.920354 18 2.05973ZM15.069 11.5398C15.069 8.3208 13.5876 5.71018 13.5876 5.71018C12.1062 4.63053 10.6976 4.65929 10.6976 4.65929L10.5542 4.81858C12.3019 5.3385 13.1143 6.0885 13.1143 6.0885C10.6703 4.78761 7.80076 4.7854 5.43186 5.79867C5.05183 5.96903 4.82427 6.0885 4.82427 6.0885C4.82427 6.0885 5.67762 5.29867 7.52996 4.77876L7.42756 4.65929C7.42756 4.65929 6.01896 4.62832 4.53755 5.71018C4.53755 5.71018 3.05613 8.3208 3.05613 11.5398C3.05613 11.5398 3.92086 12.9889 6.19418 13.0597C6.19418 13.0597 6.57421 12.6106 6.88369 12.2301C5.5775 11.8496 5.08369 11.0509 5.08369 11.0509C5.23388 11.1549 5.4842 11.2876 5.50468 11.3009C7.24096 12.2456 9.70771 12.5553 11.9219 11.6504C12.2814 11.5199 12.6819 11.3296 13.1052 11.0597C13.1052 11.0597 12.5909 11.8805 11.2437 12.25C11.5532 12.6305 11.9219 13.0597 11.9219 13.0597C14.1952 12.9889 15.069 11.5398 15.069 11.5398Z"
            fill="#8A60E3" />
    </g>
    <defs>
        <clipPath id="clip0_168_100">
            <rect width="18" height="20" fill="white" />
        </clipPath>
    </defs>
</svg>